<?xml version="1.0" standalone="no"?>
<!DOCTYPE svg PUBLIC "-//W3C//DTD SVG 1.1//EN" "http://www.w3.org/Graphics/SVG/1.1/DTD/svg11.dtd" >
<svg>
<metadata>
Created by FontForge 20090914 at Thu Nov 24 11:07:30 2016
 By www-data
</metadata>
<defs>
<font id="UsualNewItalic" horiz-adv-x="958" >
  <font-face 
    font-family="Usual New"
    font-weight="400"
    font-style="italic"
    font-stretch="normal"
    units-per-em="4096"
    panose-1="2 11 114 0 0 0 0 0 0 0"
    ascent="3276"
    descent="-820"
    x-height="1884"
    cap-height="2941"
    bbox="-475 -949.997 5054 3826"
    underline-thickness="76"
    underline-position="-93"
    unicode-range="U+0020-U+2219"
  />
<missing-glyph horiz-adv-x="3072" 
d="M512 0v2560h2048v-2560h-2048zM2494 66v2428h-1916v-2428h1916z" />
    <glyph glyph-name=".notdef" horiz-adv-x="3072" 
d="M512 0v2560h2048v-2560h-2048zM2494 66v2428h-1916v-2428h1916z" />
    <glyph glyph-name="space" unicode=" " horiz-adv-x="1389" 
 />
    <glyph glyph-name="exclam" unicode="!" horiz-adv-x="1094" 
d="M356 725l-56.998 0.000976562c32.667 246 65.334 433 98.001 561c19.333 84.667 42.666 202 69.999 352c27.333 150.667 47.666 256 60.999 316c14 65.333 32 155.333 54 269.999c18.667 114.667 37.667 221.334 57 320c38 177.333 76.333 302.666 115 375.999
c30 60.667 79 91 147 91c14 0 29 -1.66699 45 -5c87.333 -16 136.666 -74.667 147.999 -176c0 -100.667 -132.667 -502 -398 -1204l-86 -242l-73 -196c-79.333 -213.333 -134 -348.666 -164 -405.999c0 -27.333 -5.66699 -46.333 -17 -57zM16.002 193.001
c0 68 22.001 123.667 66.001 167c43.333 44 96.666 66 159.999 66c62.667 0 115.667 -24.667 159 -74c41.333 -48.667 62 -101.667 62 -159c0 -58 -22 -110 -66 -156c-43.333 -46.667 -95 -70 -155 -70c-66 0 -119.333 20.667 -160 62c-44 38 -66 92.667 -66 164z" />
    <glyph glyph-name="quotedbl" unicode="&#x22;" horiz-adv-x="1708" 
d="M1376 1946l-37 57c104 57.333 220.167 140.666 348.5 250c128.333 109.333 192.5 199.333 192.5 270c0 32.667 -12.333 56 -37 70c-5.33301 5.33301 -20.333 8 -45 8c-49.333 0 -98.333 16.333 -147 49c-52 30 -78 86 -78 168c0 57.333 21.667 109.333 65 156
c41.333 43.333 94.666 66.333 159.999 69h33c62.667 0 117.334 -20.333 164.001 -61c52 -52 79.333 -120.333 82 -205v-24c0 -128.667 -54.667 -264 -164 -406c-120 -152.667 -299 -286.334 -537 -401zM504 1946l-40.999 68.998c68 32.667 141.667 79 221 139
c79.333 58 151.666 122.333 216.999 193c62.667 68 94 126.667 94 176c0 11.333 -1.33301 21 -4 29s-6.66699 17.333 -12 28c-8 11.333 -12 18.333 -12 21h-54c-144.667 24.667 -217 97 -217 217c6 62.667 28 117.334 66 164c38 46.667 88.333 71.334 151 74h33
c62.667 0 118.667 -23.333 168 -70c57.333 -54.667 87.333 -121.667 90 -201v-24c0 -74 -23 -156 -69 -246c-52 -101.333 -130 -199.666 -234 -294.999s-236.333 -186.666 -397 -273.999z" />
    <glyph glyph-name="numbersign" unicode="#" horiz-adv-x="3600" 
d="M94 1274h1258l98 401h-1257l53 201h1257l312 1253h200l-311 -1253h401l312 1253h204l-311 -1253h1262l-54 -201h-1261l-98 -401h1261l-53 -209h-1262l-311 -1258h-205l312 1258h-402l-311 -1258h-201l311 1258h-1257zM1954 1274l98 401h-401l-99 -401h402z" />
    <glyph glyph-name="dollar" unicode="$" horiz-adv-x="2458" 
d="M1921 3334l-114.997 -355.996c44 -22 79.667 -37 107 -45c24.667 -11.333 57.334 -27.666 98.001 -49c71.333 -22 124.666 -33 160 -33c19.333 0 45.333 5.33301 78 16c32.667 11.333 55.667 36 69 74h115l-225 -901h-115l25 131v86c0 155.333 -19.333 281 -58 377
c-48.667 109.333 -141.334 192.666 -278.001 249.999l-348 -1139c172 -114.667 312.333 -240.334 421 -377.001c109.333 -136.667 171 -303.334 185 -500.001c2.66699 -24.667 4 -49 4 -73c0 -118 -22 -227.333 -66 -328c-51.333 -125.333 -130.333 -230.333 -237 -315
c-109.333 -88 -236.333 -147 -381 -177c-79.333 -18.667 -162.666 -28 -249.999 -28c-70.667 0 -144.334 6.66699 -221.001 20l-135 -454h-127l151 471l-12 12h-8h-4c-24.667 8 -60.334 21.667 -107.001 41c-49.333 16 -89 29.667 -119 41c-81.333 38 -140 57 -176 57
c-16 2.66699 -31 4 -45 4c-38 0 -68 -8 -90 -24c-30 -24.667 -57.333 -63 -82 -115h-119l271 1057h119c-6 -46.667 -9 -93 -9 -139c0 -84.667 8.33301 -169.334 25 -254.001c24.667 -131.333 69.667 -249 135 -353c65.333 -106 148.666 -179.667 249.999 -221l397 1294
c-338.667 196.667 -508 452 -508 766v37c0 166.667 43.667 315.5 131 446.5s207.666 230.833 360.999 299.5c109.333 46 228 69 356 69c49.333 0 100 -2.66699 152 -8l102 340h123zM1307 1315l-389 -1262c70.667 -18.667 138.667 -28 204 -28c44 0 86.333 4 127 12
c98.667 22 184.667 64.333 258 127c71.333 60 126 136.333 164 229c30 76.667 45 153.334 45 230.001c0 18.667 -1.33301 37.667 -4 57c-22 259.333 -157 471 -405 635zM1343 1815l324 1110c-38 5.33301 -75 8 -111 8c-150 0 -279.667 -46.667 -389 -140
c-128 -108.667 -192 -242.334 -192 -401.001v-29c8 -95.333 46.333 -195 115 -299c68 -103.333 152.333 -186.333 253 -249z" />
    <glyph glyph-name="percent" unicode="%" horiz-adv-x="3355" 
d="M94 2040l-0.000976562 65c0 180.667 41 358.334 123 533c90 196.667 208.667 355 356 475c136.667 112 272 168 406 168h25c117.333 -5.33301 221 -57.333 311 -156c82 -92.667 123 -222.334 123 -389v-49c-8.66699 -202 -58 -391.667 -148 -569
c-92.667 -178 -210 -321.333 -352 -430c-142 -112 -281.333 -168 -418 -168c-117.333 0 -215.666 47.667 -294.999 143s-123 221 -131 377zM2580 3285l86 -45l-1916 -3355l-86 58zM1892 438l0.000976562 16.999c0 193.333 45.333 384.333 136 573
c92.667 191.333 212.667 347 360 467c142 117.333 280 176 414 176h8c120 -5.33301 225 -57 315 -155c82 -93.333 123 -226 123 -398v-49c-2.66699 -196.667 -50.334 -383.667 -143 -561c-96 -177.333 -213.333 -319.333 -352 -426c-142 -106.667 -278.667 -160 -410 -160
c-126 0 -229.667 46.333 -311 139c-84.667 90.667 -131.334 216.334 -140.001 377.001zM324 1831c10.667 -152.667 77.334 -229 200.001 -229c126 0 239.333 79 340 237c101.333 158.667 180.666 344.334 237.999 557.001c54.667 213.333 82 396.333 82 549
c2.66699 8 4 17.667 4 29c0 18.667 -2.66699 41.667 -8 69c-8.66699 44 -28 82.333 -58 115c-27.333 30 -65.333 45 -114 45h-17c-122.667 0 -236 -86 -340 -258c-103.333 -174.667 -185 -375.334 -245 -602.001c-54.667 -202 -82 -359 -82 -471v-41zM2134 220.999
c10.667 -152.667 80.334 -228.998 209 -228.998c125.333 0 240 79 344 237c101.333 156 180.666 341.667 238 557c57.333 213.333 86 397.666 86 552.999c0 175.333 -68.333 263 -205 263c-126 -8.66699 -242 -100.334 -348 -275.001
c-109.333 -174.667 -192.666 -372.667 -250 -594c-49.333 -194 -74 -348.333 -74 -463v-49z" />
    <glyph glyph-name="ampersand" unicode="&#x26;" horiz-adv-x="2941" 
d="M1655 1782c-52 -218.667 -80.666 -416.671 -85.999 -594.004c-2.66699 -71.333 -4 -135.666 -4 -192.999c0 -117.333 6.66699 -212.666 20 -285.999c22 -109.333 54.667 -213.333 98 -312c109.333 71.333 201 145 275 221c70.667 76.667 178.334 206.667 323.001 390
l62 82c8 13.333 23 36.333 45 69c109.333 142 218.666 217 328 225c73.333 0 136 -24.333 188 -73c49.333 -52 74 -110.667 74 -176c0 -52 -17.667 -94.333 -53 -127c-38.667 -36 -79.667 -54 -123 -54c-60 0 -112 27.333 -156 82c-22 46.667 -44 71.334 -66 74.001h-49
c-38 -10.667 -109 -79 -213 -205c-24.667 -27.333 -83.334 -101 -176.001 -221c-152.667 -166.667 -285 -289.667 -397 -369c109.333 -160.667 262.333 -241 459 -241c30 0 60 1.33301 90 4c130.667 27.333 248 72.333 352 135l37 -66
c-87.333 -57.333 -184.333 -105 -291 -143c-100.667 -38 -205.667 -57 -315 -57h-25c-191.333 0 -368.666 66.667 -531.999 200c-256.667 -133.333 -502.667 -200 -738 -200c-254 10.667 -452 94 -594 250c-142 152.667 -215.667 338.334 -221 557.001
c0 150 35.667 304.333 107 463c70.667 155.333 179.667 291.666 327 408.999c144.667 114.667 326.334 191 545.001 229c27.333 6 65.666 11.667 114.999 17c46 5.33301 89.667 9.33301 131 12c19.333 2.66699 39.666 5.33398 60.999 8.00098c22 2.66699 40 4 54 4
c133.333 382.667 310.666 665.334 531.999 848c216 174.667 412.667 262 590 262h16c134 -2.66699 235 -45 303 -127c66 -81.333 101.667 -170 107 -266v-33c0 -180 -93 -349 -279 -507c-196.667 -166.667 -503.667 -263.667 -921 -291zM1655 1896h49.001
c232 0 449 79.333 651 238c213.333 169.333 322.666 352.333 327.999 549c0 98 -26 163.333 -78 196c-54.667 30.667 -103.667 46 -147 46c-161.333 -6 -309 -88 -443 -246c-136.667 -161.333 -256.667 -422.333 -360 -783zM1257 1782
c-190.667 -2.66699 -355.669 -52 -495.002 -148c-139.333 -95.333 -241.666 -218 -306.999 -368c-57.333 -128.667 -86 -262.667 -86 -402c0 -27.333 1.33301 -56 4 -86c18.667 -190.667 84 -340.667 196 -450c109.333 -112 243.333 -175 402 -189
c22 -2.66699 43.667 -4 65 -4c136.667 0 273.334 37 410.001 111c-199.333 232 -299 518.667 -299 860v53c0 126 13.667 245 41 357c24.667 111.333 47.667 200 69 266z" />
    <glyph glyph-name="quotesingle" unicode="'" horiz-adv-x="860" 
d="M532 1937l-36.001 69.998c92.667 40.667 204.334 113 335.001 217c131.333 104 197 191.333 197 262c0 27.333 -12.333 53.333 -37 78h-49c-142 22 -213 94.333 -213 217c0 60 20.667 114.667 62 164c38 46.667 88.333 71.334 151 74.001h25
c70.667 0 130.667 -23.333 180 -70c52 -52 80.667 -119 86 -201c0 -128 -64.333 -267 -193 -417c-128 -153.333 -297.333 -284.666 -508 -393.999z" />
    <glyph glyph-name="parenleft" unicode="(" horiz-adv-x="1192" 
d="M479 -655l-82 -58c-245.333 366 -376.333 803 -393 1311c0 147.333 16.333 304.333 49 471c30 164 87.333 344.333 172 541c84.667 194 217.334 415 398.001 663c177.333 246 414.666 512.333 711.999 799l74 -37c-204.667 -240 -376.667 -495.333 -516 -766
c-142 -270 -254 -540.333 -336 -811c-82 -272.667 -138 -519.667 -168 -741c-32.667 -221.333 -49 -425 -49 -611c10.667 -352 57 -605.667 139 -761z" />
    <glyph glyph-name="parenright" unicode=")" horiz-adv-x="1401" 
d="M909 3023l94.999 49.001c253.333 -371.333 380 -807 380 -1307v-49c0 -188 -27 -391.333 -81 -610c-63.333 -240.667 -191.666 -512.334 -384.999 -815.001c-194 -306 -479.667 -640.667 -857 -1004l-73 29c202 234.667 372.667 486 512 754
c136.667 264.667 247 533.667 331 807c84.667 270 145 522.333 181 757c27.333 199.333 41 377 41 533v78c-14 371.333 -62 630.666 -144 778z" />
    <glyph glyph-name="asterisk" unicode="*" horiz-adv-x="2101" 
d="M1225 2257c24.667 0 53.333 24.667 86 74c2.66699 13.333 4 32.333 4 57c0 44 -5.66699 100 -17 168c-10.667 68 -16 128 -16 180v33c8 73.333 36.667 136 86 188s102.666 78 159.999 78c57.333 -5.33301 97 -32.666 119 -82c8 -22 12 -45 12 -69
c0 -33.333 -8.33301 -71.666 -25 -115c-16 -49.333 -54 -120.333 -114 -213c-68.667 -98.667 -111 -173.667 -127 -225c0 -30 16.333 -56 49 -78c24.667 -19.333 49.334 -29 74.001 -29c8 0 16 1.33301 24 4c41.333 16.667 112.333 75.334 213 176
c84.667 84.667 147.667 138 189 160c13.333 14 50 34.667 110 62c16.667 2.66699 33 4 49 4c19.333 0 38.666 -3 58 -9c35.333 -10.667 61 -28.334 77 -53c11.333 -16 17 -36.333 17 -61c0 -11.333 -1.33301 -23.666 -4 -37c-30 -104 -99.667 -175 -209 -213
c-32.667 -10.667 -107.667 -27 -225 -49c-123.333 -19.333 -197.333 -33 -222 -41c-27.333 -8.66699 -50.333 -30.667 -69 -66c-19.333 -40.667 -29 -73.334 -29 -98.001c0 -22 8.33301 -37 25 -45c32.667 -19.333 106.334 -35.666 221.001 -48.999
c79.333 -16.667 146.333 -37.334 201 -62.001c73.333 -27.333 110 -72.333 110 -135c0 -16 -2.66699 -35 -8 -57c-10.667 -54.667 -43.334 -98.334 -98.001 -131.001c-46.667 -27.333 -90.334 -41 -131.001 -41c-11.333 0 -22.333 1.33301 -33 4
c-54.667 22 -87.667 39.667 -99 53c-30 30 -64 86 -102 168c-60 112 -102.333 170.667 -127 176c-8 5.33301 -17.667 8 -29 8c-21.333 0 -45.666 -8 -72.999 -24c-44 -24.667 -75.667 -52 -95 -82c-2.66699 -19.333 -4 -41.333 -4 -66c0 -43.333 5.66699 -99.333 17 -168
c10.667 -57.333 16 -107.666 16 -150.999c0 -19.333 -1.33301 -37 -4 -53c-8 -82 -34 -146.333 -78 -193c-40.667 -43.333 -88.334 -65 -143.001 -65h-17c-54 0 -93.333 24.333 -118 73c-11.333 24.667 -17 50.667 -17 78c0 32.667 7 68.334 21 107.001
c18.667 48.667 58.334 116.667 119.001 204c84.667 136.667 127 214.667 127 234c0 24.667 -15.333 49.334 -46 74.001c-24 16 -48.333 24 -73 24c-8.66699 0 -18.334 -1.33301 -29.001 -4c-38 -16.667 -107.667 -74 -209 -172c-38 -32.667 -70.667 -62.667 -98 -90
c-30 -30 -62.667 -56 -98 -78c-6 -2.66699 -24 -12.334 -54 -29.001l-73 -36c-57.333 0 -102.666 13.667 -135.999 41c-27.333 18.667 -41 48.667 -41 90c0 10.667 1.66699 22.667 5 36c24 98.667 90.667 167 200 205c54.667 24.667 131.334 45.334 230.001 62.001
c103.333 13.333 173 25.666 209 36.999c35.333 8 61 32.333 77 73c22 38.667 33 70.334 33 95c0 18.667 -8 32 -24 40c-36 19.333 -110 37.333 -222 54c-68 0 -134.667 16.333 -200 49c-76.667 38 -115 92.667 -115 164c0 13.333 1.33301 27 4 41
c19.333 57.333 57.666 102.333 114.999 135c38 22 74.667 33 110 33c14 0 27.667 -1.33301 41 -4c49.333 -24.667 82.333 -45.334 99 -62c18.667 -10.667 37.667 -32.5 57 -65.5s37 -64.5 53 -94.5c52 -106 93 -164.667 123 -176c10.667 -8 23 -12 37 -12
c22 0 46.667 13.667 74 41z" />
    <glyph glyph-name="plus" unicode="+" horiz-adv-x="2863" 
d="M168 1450h1192l295 1184h200l-294 -1184h1179l-49 -205h-1180l-299 -1188h-200l299 1188h-1192z" />
    <glyph glyph-name="comma" unicode="," horiz-adv-x="823" 
d="M8 -643l-37.002 61c96 44 209.333 119.333 340 226c128.667 103.333 193 193.333 193 270c0 27.333 -11 49.333 -33 66c-8 10.667 -25.667 16 -53 16c-147.333 0 -221 69.667 -221 209c2.66699 57.333 25.667 109 69 155c44 44 94.667 70 152 78h8
c79.333 0 145 -24.333 197 -73c54.667 -52 83.334 -120.333 86.001 -205v-17c0 -122.667 -60.333 -255 -181 -397c-125.333 -147.333 -298.666 -277 -519.999 -389z" />
    <glyph glyph-name="hyphen" unicode="-" horiz-adv-x="1413" 
d="M119 877l49 176h1089l-40 -176h-1098z" />
    <glyph glyph-name="period" unicode="." horiz-adv-x="627" 
d="M90 193c0 68 22 123.668 66 167.001c43.333 44 96.333 66 159 66c46.667 0 86.334 -12.333 119.001 -37s58.667 -53.334 78 -86.001c16.667 -35.333 25 -72 25 -110c0 -60.667 -19.333 -112.667 -58 -156c-40.667 -46.667 -95.334 -70 -164.001 -70
c-65.333 0 -118.333 20.667 -159 62c-44 38 -66 92.667 -66 164z" />
    <glyph glyph-name="slash" unicode="/" horiz-adv-x="1782" 
d="M-25 -713l-163 62l1839 4325l143 -65z" />
    <glyph glyph-name="zero" unicode="0" horiz-adv-x="2286" 
d="M139 934c0 322 65.666 645.668 196.999 971.001c128 322 293 586.667 495 794c202.667 204.667 409 307 619 307c152.667 0 294.667 -61.333 426 -184c128 -122.667 203 -331.667 225 -627c5.33301 -57.333 8 -116 8 -176c0 -210 -27 -421.667 -81 -635
c-71.333 -272.667 -172.666 -518.334 -303.999 -737.001c-133.333 -218.667 -282 -390.667 -446 -516c-158.667 -122.667 -315.667 -184 -471 -184h-16c-172.667 5.33301 -324.5 88.5 -455.5 249.5s-196.5 406.833 -196.5 737.5zM1450 2925
c-134 0 -265 -97.001 -393 -291.001c-128.667 -196.667 -240.667 -434.334 -336 -713c-98.667 -281.333 -173.667 -560 -225 -836c-46.667 -240 -70 -428.333 -70 -565v-57c13.333 -158.667 58.333 -270.667 135 -336c76.667 -68 158.667 -105 246 -111h8
c128.667 0 254.334 94.333 377.001 283c125.333 191.333 235.833 429 331.5 713s169.5 566.667 221.5 848c40.667 237.333 61 428.333 61 573v70c-10.667 272.667 -129.334 413.334 -356.001 422.001z" />
    <glyph glyph-name="one" unicode="1" horiz-adv-x="1880" 
d="M1679 2929h144l-881 -2851h545l-17 -90h-1421l29 90h512l778 2515c-180 -35.333 -374 -53 -582 -53h-81l16 81c289.333 0 505 28.667 647 86c139.333 57.333 243 131.333 311 222z" />
    <glyph glyph-name="two" unicode="2" horiz-adv-x="2187" 
d="M1806 840l89.9951 0.000976562c-73.333 -208 -185 -406 -335 -594c-153.333 -188.667 -314.666 -288.334 -483.999 -299.001c-68 0 -126.667 12.333 -176 37c-76.667 27.333 -160 91.333 -250 192c-139.333 120 -243 180 -311 180h-16
c-36 -2.66699 -67.667 -21.667 -95 -57c0 -35.333 4.33301 -58.666 13 -69.999c2.66699 -5.33301 21.667 -32.666 57 -81.999c30 -32.667 45 -65.334 45 -98.001c0 -10.667 -1.33301 -21.667 -4 -33c-2.66699 -46 -35.334 -69 -98.001 -69c-82 8 -123 66.667 -123 176
c0 22 1.33301 45.333 4 70c10.667 199.333 186.667 436.666 528 711.999c36 35.333 74.333 69.5 115 102.5l123 98.5c300 251.333 507.333 482 622 692c114.667 207.333 176.334 419 185.001 635c2.66699 22 4 45.333 4 70c0 35.333 -2.66699 73.333 -8 114
c-14 71.333 -51 138.333 -111 201s-148.667 98.334 -266 107h-8c-139.333 0 -276 -50.667 -410 -152c-136.667 -106.667 -216 -216 -238 -328v-32c-2.66699 -49.333 14 -85 50 -107c24 -16.667 60.667 -25 110 -25c49.333 -13.333 90.333 -36.333 123 -69
c32.667 -35.333 49 -76.333 49 -123v-16c0 -33.333 -6.66699 -66.333 -20 -99c-16.667 -40.667 -44 -70.667 -82 -90c-32.667 -19.333 -69.667 -29 -111 -29h-16c-76.667 0 -141 33 -193 99c-51.333 60 -77 135 -77 225v16c0 109.333 39.333 229.666 118 361
c79.333 128 190 235.667 332 323c134 84.667 288.333 127 463 127h16c194 -2.66699 352.333 -60 475 -172c120.667 -114.667 181 -263.334 181 -446c0 -188.667 -50.667 -360.667 -152 -516c-100.667 -158.667 -229 -300.667 -385 -426
c-158 -128.667 -343.667 -265.334 -557 -410.001c-49.333 -27.333 -128.666 -83.333 -237.999 -168c-150 -100.667 -293.333 -242.667 -430 -426h21c38 24.667 95.333 37 172 37c16 2.66699 32.333 4 49 4c40.667 0 84.334 -6.66699 131.001 -20
c49.333 -5.33301 112.333 -19 189 -41c76 -24.667 133.333 -42.334 172 -53.001c62.667 -24.667 136.334 -37 221.001 -37c136.667 2.66699 244.334 50.334 323.001 143.001c79.333 92.667 150.333 214.334 213 365.001z" />
    <glyph glyph-name="three" unicode="3" horiz-adv-x="2200" 
d="M1245 1626c16.667 0 55.001 -9.66797 115.001 -29.001c60 -21.333 122.667 -54 188 -98c66 -46 123.333 -113 172 -201c46.667 -81.333 70 -183.666 70 -306.999v-24c-2.66699 -183.333 -52 -352.666 -148 -507.999c-95.333 -156 -223.666 -280.333 -384.999 -373
c-160.667 -92.667 -331.334 -139 -512.001 -139c-193.333 0 -344.666 57.333 -453.999 172c-112 112 -168 237.667 -168 377c0 117.333 34 215.666 102 294.999c66 78.667 142.667 121 230 127c70.667 0 129.334 -20.667 176.001 -62c43.333 -40.667 65 -98 65 -172
c0 -68 -23 -121.333 -69 -160c-46.667 -40.667 -101.334 -61 -164.001 -61c-2.66699 0 -13.667 2.66699 -33 8s-39.666 8 -60.999 8c-57.333 -10.667 -94.333 -42 -111 -94c-2.66699 -8 -4 -17.667 -4 -29c0 -68 43.667 -139 131 -213c95.333 -84.667 210 -127 344 -127h16
c148 11.333 275 82.333 381 213c104 128.667 182 285.667 234 471c52 183.333 78 342 78 476c0 120 -30 215.333 -90 286c-54.667 62.667 -121.667 94 -201 94h-25l-102 -40c-65.333 -36 -113 -55.333 -143 -58c-44 -18.667 -82.333 -28 -115 -28s-56 9.33301 -70 28
c-10.667 14 -16 27.667 -16 41c0 5.33301 1.33301 11 4 17c2.66699 35.333 24.334 62.333 65.001 81c41.333 19.333 83.666 29 126.999 29c16.667 0 30.334 1.33301 41.001 4h50c264.667 30 466.667 150.333 606 361c114.667 177.333 172 358.666 172 544
c0 33.333 -1.33301 66.333 -4 99c-27.333 160.667 -113.333 257.667 -258 291c-19.333 2.66699 -38.666 4 -57.999 4c-128 0 -249.333 -41 -364 -123c-120 -87.333 -180 -164 -180 -230v-24c8 -14 21.667 -30.333 41 -49c16 -16.667 35 -27.667 57 -33
c79.333 -46.667 125.666 -105.334 138.999 -176v-25c0 -57.333 -20.333 -106.333 -61 -147c-46.667 -46.667 -101.334 -70 -164.001 -70c-62.667 5.33301 -117.334 32.666 -164.001 82c-49.333 46.667 -74 108 -74 184c0 109.333 39.667 218.666 119 328
c79.333 109.333 184.333 198 315 266c123.333 62.667 258.666 94 405.999 94h16c161.333 -5.33301 296.666 -55.666 405.999 -151c109.333 -95.333 164 -227.666 164 -397c0 -169.333 -64.333 -330.666 -193 -484c-130.667 -152.667 -343.667 -268.667 -639 -348z" />
    <glyph glyph-name="four" unicode="4" horiz-adv-x="2310" 
d="M2048 918l-25 -140h-557l-196 -688h561l-29 -90h-1466l16 90h566l196 688h-991l33 168l1675 1995h246l-570 -2023h541zM1626 2515l-1356 -1597h881z" />
    <glyph glyph-name="five" unicode="5" horiz-adv-x="2249" 
d="M631 1491l-81.998 -0.00195312l479 1515h115c65.333 -117.333 197.666 -176 396.999 -176c226.667 0 438.334 58.667 635.001 176v-139c-232 -234.667 -487.333 -352 -766 -352c-147.333 2.66699 -274.333 35.334 -381 98.001l-295 -876c150 106 307 159 471 159
s313 -60 447 -180c130.667 -120 205.667 -285 225 -495c2.66699 -38.667 4 -75.667 4 -111c0 -182.667 -39.667 -356 -119 -520c-98 -196.667 -235.667 -353.667 -413 -471c-175.333 -114.667 -359.666 -172 -552.999 -172h-17c-199.333 0 -357.666 65.333 -474.999 196
c-106.667 117.333 -160 241.666 -160 372.999c0 16.667 1.33301 33 4 49c14 98.667 51 178 111 238s132.333 91.333 217 94h8c76.667 0 137 -27.333 181 -82c38 -49.333 57 -99.666 57 -150.999v-25c0 -46.667 -20.667 -87.667 -62 -123
c-40.667 -35.333 -81.334 -55.666 -122.001 -60.999h-25c-10.667 -2.66699 -20.334 -2.66699 -29.001 0h-73c-63.333 -14 -96.333 -42.667 -99 -86c-2.66699 -11.333 -4 -23.666 -4 -36.999c0 -60 38.333 -124.333 115 -193c82 -70.667 184.333 -106 307 -106h49
c153.333 10.667 292.666 95.334 417.999 254.001c122.667 155.333 217 343.666 283 564.999c46 164 69 310 69 438c0 44 -2.66699 86.333 -8 127c-16 112 -50 206.333 -102 283c-54.667 76.667 -150.334 115 -287.001 115c-95.333 0 -192.333 -30.333 -291 -91
c-98 -62.667 -174.333 -140.334 -229 -233.001z" />
    <glyph glyph-name="six" unicode="6" horiz-adv-x="2040" 
d="M610 1569c63.333 62.667 141.335 117.333 234.002 164c90 43.333 182.667 67.666 278 72.999c104 0 202.333 -27.333 295 -82c92.667 -57.333 169.334 -137.666 230.001 -240.999c57.333 -104 87.333 -216 90 -336c0 -204.667 -43.667 -397.334 -131 -578.001
c-90.667 -180 -211 -326 -361 -438c-152.667 -114.667 -308.334 -176 -467.001 -184h-33c-111.333 0 -212.333 24.333 -303 73c-98 54.667 -177 141 -237 259c-62.667 114.667 -98.334 259.334 -107.001 434.001v73c0 210.667 30 436 90 676c68.667 265.333 167 514 295 746
c128.667 232 283 423 463 573c177.333 150 360.333 225 549 225c169.333 0 297.666 -47.667 384.999 -143c76.667 -90 115 -184.333 115 -283v-28c0 -98.667 -28.667 -180.667 -86 -246c-60 -65.333 -127 -98 -201 -98c-46.667 0 -93 19 -139 57c-49.333 38 -74 90 -74 156
c0 100.667 47.667 171.667 143 213c30 27.333 57.333 43.666 82 49c19.333 24.667 30.333 45 33 61c2.66699 8.66699 4 17 4 25c0 22 -6.66699 42.333 -20 61c-19.333 27.333 -49.333 50.666 -90 69.999c-41.333 16.667 -88 25 -140 25
c-248 -11.333 -441.667 -170 -581 -476c-142 -305.333 -247.333 -598.666 -316 -879.999zM1397 1372c-8.66699 234.667 -109.667 352.001 -303 352.001h-17c-136.667 -8 -260.667 -79 -372 -213c-115.333 -133.333 -200 -305.333 -254 -516c-44 -158 -66 -315 -66 -471
c0 -52 2.66699 -103.667 8 -155c22 -235.333 141 -353 357 -353c136 11.333 256 97.333 360 258c101.333 158.667 176.333 346 225 562c41.333 185.333 62 343.666 62 474.999v61z" />
    <glyph glyph-name="seven" unicode="7" horiz-adv-x="1929" 
d="M360 1982l-105.999 0.00195312l369 1024h106l-143 -380c199.333 199.333 364.333 299 495 299c60 0 121.667 -19.333 185 -58c21.333 -16 70.333 -67.667 147 -155c68.667 -84.667 142.334 -128.667 221.001 -132c14 -2.66699 26.333 -4 37 -4
c54.667 0 101 16.667 139 50c44 38 66 100.667 66 188c0 35.333 4 64 12 86c0 70.667 33 106 99 106c32.667 0 55.667 -21.667 69 -65c2.66699 -8 4 -16.333 4 -25v-8c-2.66699 -13.333 -4 -27 -4 -41c-10.667 -38 -23 -77.667 -37 -119
c-13.333 -40.667 -46 -103.334 -98 -188.001c-44 -52 -134 -176.333 -270 -373c-194 -256.667 -359.333 -532.334 -496 -827.001s-243 -683.667 -319 -1167c-14 -27.333 -21 -56.333 -21 -87c-32.667 -106 -111.667 -159 -237 -159c-118 18.667 -177 92.334 -177 221.001
c0 19.333 1.66699 39.666 5 60.999c13.333 161.333 81.333 365 204 611c120.667 242.667 283.334 500.667 488.001 774l209 274l151 201c144.667 172 250 319.333 316 442c-150.667 -98 -276.334 -147 -377.001 -147c-16.667 0 -33 1.33301 -49 4
c-60.667 2.66699 -106 15 -136 37c-32.667 22 -80.334 64.333 -143.001 127c-13.333 27.333 -38 58.666 -74 94c-24.667 24.667 -61.334 37 -110.001 37h-25c-155.333 0 -297.333 -162.667 -426 -488z" />
    <glyph glyph-name="eight" unicode="8" horiz-adv-x="2187" 
d="M1397 1626c160.667 -152.667 284.664 -294.666 371.997 -425.999c84.667 -134 127 -278.667 127 -434c0 -139.333 -42.333 -271.666 -127 -396.999c-84.667 -128.667 -200.667 -231.334 -348 -308.001c-147.333 -76 -309.666 -114 -486.999 -114
c-229.333 0 -419.166 73.667 -569.499 221s-225.5 319.333 -225.5 516c8.66699 213.333 86.667 384 234 512c147.333 128.667 342.333 244.667 585 348c-26.667 27.333 -45.667 50.666 -57 69.999l-90 106c-35.333 38.667 -62.666 74.334 -81.999 107.001
c-22 30 -38.333 61.333 -49 94c-46.667 109.333 -70 210.333 -70 302.999v41c14 210 103 389 267 537c152.667 136 337 204 553 204h36c136.667 -8 255.667 -43.333 357 -106c98 -62.667 169 -137.667 213 -225c35.333 -76.667 53 -156 53 -238v-49
c-5.33301 -114.667 -42.333 -225.334 -111 -332c-70.667 -106.667 -166 -198 -286 -274l-226 -127c-8 0 -31 -9.66699 -69 -29zM1343 1696c109.333 46 206.333 107.331 291 183.998c82 76.667 146.333 165.334 193 266.001c40.667 87.333 61 183 61 287v41
c-10.667 142 -55.667 250 -135 324c-79.333 70.667 -175 113 -287 127h-32c-123.333 0 -241 -42.333 -353 -127c-125.333 -93.333 -193.333 -209.666 -204 -348.999v-24c0 -216 155.333 -459 466 -729zM1012 1475c-166.667 -71.333 -312.999 -181.999 -438.999 -331.999
c-125.333 -150 -193.333 -314 -204 -492c0 -174.667 47.667 -322 143 -442s234.666 -184.333 417.999 -193c196.667 0 355 56 475 168c109.333 101.333 164 232.666 164 393.999v32c-5.33301 134 -49 268 -131 402c-84.667 130.667 -226.667 285 -426 463z" />
    <glyph glyph-name="nine" unicode="9" horiz-adv-x="2101" 
d="M1511 1384c-65.333 -70.667 -145.666 -129.336 -240.999 -176.003c-96 -48.667 -189 -73 -279 -73c-160.667 0 -300 61.333 -418 184c-117.333 120 -177.333 279.667 -180 479v49c0 178 41 351.333 123 520c87.333 186 207.666 337.667 360.999 455
c150 114.667 304 176 462 184h33c177.333 0 326.333 -62.667 447 -188c128 -136.667 196 -334.667 204 -594v-90c0 -286.667 -56 -589.667 -168 -909c-125.333 -358 -298.666 -660 -519.999 -906c-220.667 -248 -459.667 -372 -717 -372
c-160.667 0 -283.334 46.333 -368.001 139s-127 196.334 -127 311.001c0 96 28.667 175.333 86 238s120 94 188 94c60 0 111.833 -17.667 155.5 -53s65.5 -84.666 65.5 -147.999c3.33301 -13.333 5 -27 5 -41c0 -76 -48 -137.333 -144 -184
c-32.667 -5.33301 -60 -20.333 -82 -45c-16 -13.333 -26.667 -28.333 -32 -45c-3.33301 -8 -5 -16.333 -5 -25c0 -32.667 20.667 -66.667 62 -102c49.333 -46.667 112 -70 188 -70c248.667 8.66699 442.667 163 582 463c136.667 300.667 243 602.334 319 905.001zM721 1573
c0 -84.667 23.3311 -164 69.998 -238c46 -76 129 -114 249 -114c136.667 2.66699 262.334 72.334 377.001 209.001c114.667 133.333 200.667 306.666 258 519.999c44 163.333 66 328.333 66 495c0 46.667 -1.33301 93.334 -4 140c-30 226.667 -153 340 -369 340
c-139.333 -8.66699 -259.333 -92 -360 -250c-101.333 -161.333 -176.666 -348.333 -225.999 -561c-40.667 -186 -61 -344.667 -61 -476v-65z" />
    <glyph glyph-name="colon" unicode=":" horiz-adv-x="922" 
d="M139 193c0 68 22.001 123.667 66.001 167c43.333 44 96.666 66 159.999 66c62.667 0 115.667 -24.667 159 -74c41.333 -48.667 62 -101.667 62 -159c0 -58 -22 -110 -66 -156c-43.333 -46.667 -95 -70 -155 -70c-66 0 -119.333 20.667 -160 62c-44 38 -66 92.667 -66 164
zM352.001 1753c0 71.333 21.834 127.334 65.501 168.001s97.167 61 160.5 61c65.333 0 119.666 -21.667 162.999 -65c44 -46.667 66 -101.334 66 -164.001c0 -54.667 -22 -105 -66 -151c-46 -49.333 -100.333 -74 -163 -74c-60.667 0 -112.667 23 -156 69
c-46.667 44 -70 96 -70 156z" />
    <glyph glyph-name="semicolon" unicode=";" horiz-adv-x="872" 
d="M315 1765c0 63.333 21.832 115.333 65.499 156s95.834 61 156.501 61c70.667 0 126.667 -20.333 168 -61c38 -44 57 -96 57 -156c0 -65.333 -20.667 -121.333 -62 -168c-40.667 -46 -95 -69 -163 -69c-57.333 0 -108 24.667 -152 74c-46.667 46 -70 100.333 -70 163z
M-106.001 -655l-29.001 61.002c98 49.333 211.333 125.666 340 228.999c125.333 101.333 188 190.333 188 267c0 21.333 -13.667 43 -41 65c-8 11.333 -21.667 17 -41 17c-48.667 0 -96.334 15 -143.001 45c-46.667 27.333 -70 77.666 -70 150.999v13
c0 57.333 20.667 109 62 155c40.667 44 92.334 70 155.001 78h17c68 0 126.667 -24.667 176 -74c54.667 -54.667 82 -123 82 -205v-28c0 -68.667 -24.667 -146.667 -74 -234c-57.333 -100.667 -139.333 -196 -246 -286c-109.333 -93.333 -234.666 -178 -375.999 -254z" />
    <glyph glyph-name="less" unicode="&#x3c;" horiz-adv-x="3183" 
d="M168 1040l2838 1094l13 -127l-2421 -967l1942 -958l-74 -123z" />
    <glyph glyph-name="equal" unicode="=" horiz-adv-x="3047" 
d="M365 1753h2572l-49 -209h-2573zM217 1147h2572l-53 -205h-2572z" />
    <glyph glyph-name="greater" unicode="&#x3e;" horiz-adv-x="3072" 
d="M2978 1028l-2835 -1081l-20 123l2421 958l-1942 967l82 127z" />
    <glyph glyph-name="question" unicode="?" horiz-adv-x="1917" 
d="M479 713h-85.999l185 651c70.667 -22 137.334 -33 200.001 -33c131.333 0 248.666 48 351.999 144c150.667 138.667 260 320 328 544c57.333 183.333 86 344.666 86 484c0 27.333 -1.33301 54.666 -4 82c-2.66699 103.333 -32.667 188 -90 254
c-60 62.667 -133.667 96.667 -221 102c-71.333 0 -126 -15 -164 -45c-32.667 -27.333 -49 -54.666 -49 -82c0 -5.33301 1.33301 -10.666 4 -16c2.66699 -8.66699 6.66699 -17 12 -25s8 -17.667 8 -29c49.333 -43.333 74 -87 74 -131v-16
c0 -41.333 -13.667 -79.666 -41 -114.999c-35.333 -40.667 -87 -61 -155 -61c-54.667 0 -98.667 20.333 -132 61c-35.333 41.333 -53 89.333 -53 144c0 60 21.833 120 65.5 180s105.167 109 184.5 147c76.667 35.333 158.667 53 246 53c92.667 0 182.667 -24.333 270 -73
c84.667 -49.333 157 -123 217 -221c60 -101.333 94.333 -219 103 -353c2.66699 -24.667 4 -49 4 -73c0 -120.667 -23.333 -242.334 -70 -365.001c-54.667 -147.333 -133.667 -274.333 -237 -381c-106.667 -106.667 -228.334 -185.667 -365.001 -237
c-92.667 -38.667 -191 -58 -295 -58c-46.667 0 -93 4 -139 12zM123.001 193c0 65.333 23.333 120.998 70 166.998c43.333 44 96.333 66 159 66c68.667 0 123.334 -23.333 164.001 -70c41.333 -46 62 -100.333 62 -163c0 -63.333 -20.667 -116.666 -62 -159.999
c-40.667 -44 -95.334 -66 -164.001 -66c-65.333 0 -120 20.667 -164 62c-43.333 40.667 -65 95.334 -65 164.001z" />
    <glyph glyph-name="A" unicode="A" horiz-adv-x="3146" 
d="M2347 2941l111 -0.000976562l114 -2851h402l-21 -90h-1134l16 90h352l-24 799h-1065l-221 -344c-16.667 -16.667 -40 -61.667 -70 -135c-24.667 -57.333 -37 -105.333 -37 -144c0 -13.333 1.33301 -25.666 4 -36.999c2.66699 -24 23.334 -55.333 62.001 -94
c30 -24.667 107.667 -37 233 -37h33h8c5.33301 -2.66699 9.33301 -2.66699 12 0l-16 -98h-967l8 90c145.333 22 263 69.667 353 143c87.333 74 174.666 182 261.999 324zM1151 966.999h1012l-33 1466z" />
    <glyph glyph-name="B" unicode="B" horiz-adv-x="2986" 
d="M528 90l799 2777h-369l17 74h1282c188.667 0 343 -27.333 463 -82c117.333 -57.333 202 -131 254 -221c48.667 -90 73 -187 73 -291c0 -125.333 -34 -241.333 -102 -348s-170.333 -198.334 -307 -275.001c-139.333 -76 -308.666 -127.667 -508 -155v-13
c207.333 -10.667 375.333 -89.667 504 -237c112 -134 168 -276 168 -426c0 -19.333 -1.33301 -38.333 -4 -57c-22 -221.333 -142.333 -415.333 -361 -582c-218.667 -169.333 -513.667 -254 -885 -254h-1425l29 90h372zM1343 90.001c128.667 0 269.332 16.332 421.999 48.999
c150.667 30 292.667 113.333 426.001 250c114.667 117.333 172 285.333 172 504c0 32.667 -1.33301 65.334 -4 98.001c-27.333 358 -254 537 -680 537h-336l-413 -1438h413zM1368 1614h299c647.333 0 980.333 248.333 999 745v17c0 204.667 -61.333 338.334 -184 401
c-128 60 -259 90 -393 90h-365z" />
    <glyph glyph-name="C" unicode="C" horiz-adv-x="2568" 
d="M2630 1982l-74 -0.00195312c19.333 88 29 181 29 279c0 40.667 -1.66699 81.667 -5 123c-13.333 142 -59.666 266.333 -138.999 373c-79.333 103.333 -198 159.333 -356 168h-25c-182.667 0 -356 -78 -520 -234c-174.667 -166.667 -329 -379.667 -463 -639
c-133.333 -262 -234.333 -520 -303 -774c-65.333 -237.333 -98 -440.666 -98 -609.999v-41c8 -221.333 68 -375.666 180 -462.999c109.333 -87.333 226.666 -131 351.999 -131h29c338.667 0 692.334 234.667 1061 704l74 -53c-175.333 -232 -364 -412.333 -566 -541
c-204.667 -130.667 -408 -196 -610 -196c-232 0 -435.333 90 -610 270c-174.667 177.333 -262 427.333 -262 750c2.66699 300 88.667 608.333 258 925s387.666 580.334 654.999 791c267.333 207.333 540.333 315 819 323c106.667 0 198.334 -16.333 275 -49
c27.333 -10.667 57.333 -25.667 90 -45l94 -61c22 -8 38.333 -13.667 49 -17c10.667 -5.33301 22.834 -10.666 36.5 -16c13.667 -5.33301 31.5 -10.666 53.5 -16c11.333 -2.66699 21 -4 29 -4c10.667 0 20.334 1.33301 29 4c68 21.333 108.667 67.666 122 139h82z" />
    <glyph glyph-name="D" unicode="D" horiz-adv-x="3084" 
d="M508 90l749 2777h-380l28 74h1143c322 0 593.667 -79.333 815 -238c218.667 -160.667 329.334 -450 332 -868v-49c0 -325.333 -73.667 -621.666 -221 -888.999c-156 -281.333 -362.333 -501 -619 -659c-259.333 -158.667 -531 -238 -815 -238h-1434l21 90h381z
M901 89.999h381c322 0 667.333 128.333 1036 385c344 243.333 516 767.666 516 1573v147c0 172.667 -51.667 328.334 -155 467.001c-104 136.667 -314.333 205 -631 205h-385z" />
    <glyph glyph-name="E" unicode="E" horiz-adv-x="2728" 
d="M1393 1569l270.001 0.000976562c186 0 332 47.667 438 143c104 92.667 190 238.667 258 438h82l-397 -1314h-78c41.333 106 62 211 62 315c0 35.333 -3 70.666 -9 105.999c-40.667 153.333 -163.334 230 -368.001 230h-283l-422 -1397h484c262 0 515.667 42.333 761 127
c243.333 84.667 411.333 291 504 619h82l-250 -836h-2388l37 90h373l831 2777h-381l29 74h2110l-185 -819h-86c19.333 95.333 29 180 29 254c0 100.667 -17.667 184 -53 250c-63.333 108.667 -145.333 176.667 -246 204c-104 24.667 -222.667 37 -356 37h-463z" />
    <glyph glyph-name="F" unicode="F" horiz-adv-x="2937" 
d="M1356 1569h269.999c191.333 0 340.333 49 447 147c106 96 187.667 240.667 245 434h86l-385 -1314h-90c41.333 112 62 213 62 303c0 40.667 -4.33301 80 -13 118c-35.333 153.333 -152.666 230 -351.999 230h-287l-434 -1397h381l-16 -90h-1151l20 90h389l815 2777h-368
l24 74h2102l-181 -819h-81c18.667 95.333 28 180 28 254c0 109.333 -20.333 196.666 -61 262c-68.667 106.667 -157.334 172 -266 196c-109.333 22 -236.333 33 -381 33h-406z" />
    <glyph glyph-name="G" unicode="G" horiz-adv-x="2949" 
d="M2589 1982l-74.001 0.00195312c27.333 114.667 41 220 41 316c0 70.667 -8.33301 137.667 -25 201c-38 142 -102 247 -192 315s-188.333 105 -295 111h-25c-160.667 0 -323 -71 -487 -213c-172 -153.333 -327.667 -355.666 -467 -607
c-142 -250.667 -250 -507.334 -324 -770.001c-68 -237.333 -102 -453 -102 -647v-61c16.667 -380 195.667 -574 537 -582h36c139.333 0 281.333 42.333 426 127c158.667 90 277.667 274.333 357 553l90 405h-356l4 91h1171l-37 -91h-373l-303 -1146h-106
c0 98 -45 152.333 -135 163c-14 3.33301 -27.667 5 -41 5c-38.667 0 -75.667 -8.33301 -111 -25c-65.333 -32.667 -111.666 -57.334 -138.999 -74.001c-177.333 -70.667 -344 -106 -500 -106c-245.333 5.33301 -451.333 100.666 -618 285.999
c-169.333 183.333 -254 428 -254 734c2.66699 316.667 95.334 637.334 278.001 962.001c183.333 322.667 408.666 585 675.999 787c256.667 193.333 503.667 290 741 290h33c76.667 0 165.334 -21.667 266 -65c22 -8 55 -23 99 -45l86 -53
c27.333 -8.66699 50.333 -17 69 -25c16.667 -8 38.667 -14.667 66 -20h25c26.667 0 55.334 8 86 24c38 19.333 63.667 59 77 119h86z" />
    <glyph glyph-name="H" unicode="H" horiz-adv-x="3158" 
d="M1311 1540l-393 -1450h352l-17 -90h-1147l21 90h381l762 2777h-381l29 74h1155l-29 -74h-377l-352 -1253h1102l340 1253h-381l28 74h1151l-16 -74h-381l-754 -2777h373l-20 -90h-1160l29 90h381l389 1450h-1085z" />
    <glyph glyph-name="I" unicode="I" horiz-adv-x="1659" 
d="M1270 2867h-381l29 74h1159l-29 -74h-381l-749 -2777h368l-29 -90h-1134l16 90h369z" />
    <glyph glyph-name="J" unicode="J" horiz-adv-x="1905" 
d="M1487 1233l-147.999 -507.995c-46 -147.333 -106 -284 -180 -410c-76.667 -128 -170.667 -226.333 -282 -295c-90.667 -54 -194.667 -81 -312 -81c-32.667 0 -66.667 2.66699 -102 8c-131.333 18.667 -227 69 -287 151c-52 71.333 -78 150.666 -78 237.999v33
c0 106 31.667 190.667 95 254c60 60 128 90 204 90c71.333 0 128.666 -24.667 171.999 -74c41.333 -46.667 62 -101.334 62 -164.001v-8c-19.333 -109.333 -79.333 -179 -180 -209c-8.66699 -2.66699 -37.334 -8 -86.001 -16c-33.333 -14 -50 -36 -50 -66
c0 -35.333 18 -68 54 -98c32.667 -32.667 73.667 -53.334 123 -62.001h32c96 0 171.333 35.667 226 107c57.333 79.333 90 151.666 98 216.999c5.33301 19.333 15 57.666 29 114.999c10.667 54.667 20 94 28 118c38.667 166.667 67.334 272 86.001 316l529 1978h-377l28 74
h1147l-24 -74h-373z" />
    <glyph glyph-name="K" unicode="K" horiz-adv-x="3244" 
d="M1270 1384l1327 1131c120 100.667 180 174.334 180 221v8c0 82 -60 123 -180 123h-115l33 74h913l-28 -74c-66 -8 -129 -24.333 -189 -49s-114.667 -54.667 -164 -90c-51.333 -35.333 -96.333 -69.333 -135 -102l-155 -127l-820 -693l660 -1716h393l-37 -90h-1175l28 90
h357l-549 1450l-385 -336l-324 -1114h381l-16 -90h-1151l20 90h389l742 2777h-381l29 74h1155l-25 -74h-381z" />
    <glyph glyph-name="L" unicode="L" horiz-adv-x="2630" 
d="M877 90h466.001c273.333 0 516.666 68.333 729.999 205c210 134 384.667 385.333 524 754h106l-344 -1049h-2269l29 90h373l753 2777h-385l29 74h1155l-25 -74h-381z" />
    <glyph glyph-name="M" unicode="M" horiz-adv-x="3711" 
d="M1868 651l1356 2290h901l-29 -74h-381l-848 -2777h381l-24 -90h-1151l28 90h381l848 2777h-41l-1704 -2867h-74l-24 2867h-21l-704 -2330c-32.667 -98.667 -49 -176.667 -49 -234c0 -10.667 1.33301 -21.667 4 -33c8 -51.333 34 -96.333 78 -135
c38 -38 107.667 -57 209 -57h24l-29 -78h-860l37 78c147.333 10.667 256.666 62.334 327.999 155.001c70.667 93.333 132 219 184 377l668 2257h-381l24 74h832z" />
    <glyph glyph-name="N" unicode="N" horiz-adv-x="2875" 
d="M2331 598l446 1647c30 120 47.667 199 53 237c6 38.667 9 62 9 70c5.33301 30 8 57.333 8 82c0 73.333 -18 128 -54 164c-46 46 -125 69 -237 69l24 74h738l-29 -74c-90 -2.66699 -159.667 -32.667 -209 -90c-49.333 -60 -87.333 -140.667 -114 -242l-87 -290l-622 -2298
h-127l-860 2883l-619 -2257c-30 -95.333 -45 -178.333 -45 -249c0 -46.667 7 -86.334 21 -119.001c27.333 -76.667 106.333 -115 237 -115h54l-41 -90h-754l16 90c126 14 210.667 53.667 254 119c41.333 65.333 86.333 186.666 135 363.999l549 1958
c14 54.667 21 115 21 181c-24.667 106 -113.667 159 -267 159c-16 0 -33.667 -1.33301 -53 -4l29 74h835z" />
    <glyph glyph-name="O" unicode="O" horiz-adv-x="2753" 
d="M319 1012v16c0 308.667 82 616 246 922c164 311.333 377 568 639 770c262 199.333 528.333 299 799 299c229.333 0 430 -76.667 602 -230c172 -155.333 282.667 -364 332 -626c13.333 -76.667 20 -154.667 20 -234c0 -191.333 -41 -392 -123 -602
c-144.667 -384.667 -361.667 -708.334 -651 -971.001c-292 -264.667 -595 -397 -909 -397c-174.667 0 -333 42.333 -475 127c-144.667 84.667 -259.334 207.667 -344.001 369c-87.333 160.667 -132.666 346.334 -135.999 557.001zM2015 2937
c-204.667 0 -391.667 -81.999 -561 -245.999c-172 -164 -318 -375.667 -438 -635c-123.333 -259.333 -215 -521.333 -275 -786c-48.667 -216 -73 -401.667 -73 -557c0 -36 1.33301 -70.333 4 -103c22 -357.333 206.333 -551 553 -581h24c180.667 0 352.667 76.333 516 229
c172 161.333 320.833 370.333 446.5 627s221.5 514.667 287.5 774c57.333 229.333 86 431.333 86 605.999v66c-19.333 392.667 -209.333 594.667 -570 606z" />
    <glyph glyph-name="P" unicode="P" horiz-adv-x="2703" 
d="M1200 1204l-311 -1114h368l-24 -90h-1135l25 90h369l761 2777h-376l24 74h995c243.333 0 468.666 -41 676 -123c208 -84.667 320 -282.667 336 -594v-33c0 -152.667 -36.667 -300 -110 -442c-79.333 -155.333 -212 -285 -398 -389c-188 -104 -422.667 -156 -704 -156
h-496zM1229 1286h352c92.667 0 206 20.667 340 62c134 38 263.667 136 389 294c117.333 148 176 368 176 660v57c0 208 -56 344.667 -168 410c-114.667 65.333 -234.667 98 -360 98h-307z" />
    <glyph glyph-name="Q" unicode="Q" horiz-adv-x="2802" 
d="M365 1036l0.000976562 17.001c0 234.667 49 470.667 147 708c101.333 243.333 238 460.666 410 651.999c169.333 190.667 356.333 343.334 561 458.001s402.667 172 594 172c160.667 0 315 -42.333 463 -127c144.667 -84.667 262 -210 352 -376
c82 -153.333 123 -336.333 123 -549v-58c-8.66699 -305.333 -97.667 -609.666 -267 -912.999c-169.333 -306 -382.333 -556 -639 -750c-256.667 -190.667 -514.667 -286 -774 -286h-8c-35.333 0 -75 4 -119 12c-46 5.33301 -78.667 8 -98 8v-20
c49.333 0 117.666 -20.667 204.999 -62c87.333 -40.667 172 -121 254 -241c24.667 -38.667 64.334 -115.334 119.001 -230.001c100.667 -150 246.667 -225 438 -225c22 0 45 1.33301 69 4v-90c-78.667 -5.33301 -151 -8 -217 -8c-144.667 0 -262 13.667 -352 41
c-136.667 40.667 -235 102 -295 184c-62.667 79.333 -124 192.666 -184 339.999c-16.667 70.667 -45.334 134.667 -86.001 192c-44 52 -72.667 83.667 -86 95c-27.333 30 -64.333 62.667 -111 98c-46 32.667 -84 62.667 -114 90c-246 216 -374.333 504 -385 864z
M1278 53.001l24.999 -0.000976562c185.333 0 361.333 76.667 528 230c172 160.667 322 368 450 622c126 251.333 221.667 512.333 287 783c54.667 223.333 82 417 82 581c0 32.667 -1.33301 65.334 -4 98c-8 196.667 -57 345.667 -147 447
c-90.667 98 -231.334 147 -422.001 147c-265.333 0 -501.666 -132.333 -708.999 -397c-210 -267.333 -369.667 -584 -479 -950c-101.333 -344 -152 -647 -152 -909v-58c11.333 -169.333 55 -305.666 131 -408.999c76.667 -104 213.334 -165.667 410.001 -185z" />
    <glyph glyph-name="R" unicode="R" horiz-adv-x="3121" 
d="M528 90l742 2777h-381l29 74h1130c188.667 0 354 -11 496 -33c139.333 -22 263.333 -79.333 372 -172c109.333 -95.333 164 -238.666 164 -430c0 -172 -62.833 -327.667 -188.5 -467s-303.167 -237.666 -532.5 -294.999c-35.333 0 -68 -2.66699 -98 -8
c-32.667 -5.33301 -76.334 -10.666 -131.001 -15.999h-41v-17c161.333 -22 291 -76.667 389 -164c98.667 -90 152 -203.333 160 -340c0 -62.667 -13.667 -152.667 -41 -270l-82 -295c-22 -87.333 -33 -150 -33 -188c16.667 -153.333 134 -230 352 -230h58v-69
c-38.667 -2.66699 -75.667 -4 -111 -4c-302.667 0 -498 53 -586 159c-84.667 96 -127 202.667 -127 320c0 22 1.66699 43.667 5 65c8 49.333 36.667 156 86 320c35.333 120 58.333 215.667 69 287c2.66699 27.333 4 53 4 77c0 106.667 -35.333 184.667 -106 234
c-87.333 57.333 -189.666 86 -306.999 86h-521l-393 -1401h381l-16 -90h-1151l20 90h389zM1315 1573h503.999c182.667 0 361.334 56 536.001 168c172 112 266.333 329 283 651v33c0 152.667 -39.667 263.334 -119 332c-87.333 73.333 -244.333 110 -471 110h-385z" />
    <glyph glyph-name="S" unicode="S" horiz-adv-x="2470" 
d="M2404 2040l-113.997 0.00195312l24 131c2.66699 32.667 4 65.334 4 98c0 437.333 -192.333 656 -577 656c-174.667 0 -315.334 -56 -422.001 -168c-98.667 -104 -148 -224.333 -148 -361v-33c6 -81.333 41.667 -181 107 -299c38 -57.333 80.333 -105 127 -143
c43.333 -40.667 104.666 -88.334 183.999 -143.001c79.333 -57.333 124.333 -90.333 135 -99c148 -114.667 267 -232 357 -352c90 -122.667 141.667 -275.667 155 -459c3.33301 -21.333 5 -43 5 -65c0 -142 -33 -274.333 -99 -397c-73.333 -142 -181 -254 -323 -336
c-144.667 -82 -315.334 -123 -512.001 -123c-188.667 0 -382.667 43.667 -582 131c-82 38 -140.667 57 -176 57c-16.667 2.66699 -31.667 4 -45 4c-38.667 0 -68.667 -8 -90 -24c-30 -24.667 -57.333 -63 -82 -115h-119l270 1057h119c-5.33301 -54.667 -8 -108 -8 -160
c0 -136.667 19 -262.334 57 -377.001c52 -158 136.667 -280.833 254 -368.5s250 -132.834 398 -135.501c196 0 350 67 462 201c98.667 114.667 148 247 148 397c0 22 -1.33301 44 -4 66c-11.333 155.333 -59.333 285 -144 389c-84.667 101.333 -202 206.333 -352 315
c-142 106.667 -236.333 180.667 -283 222c-46 40.667 -92.333 99.334 -139 176.001c-65.333 109.333 -98 244.333 -98 405c0 150.667 38.333 288.667 115 414c73.333 125.333 175.666 225 306.999 299c130.667 70.667 280.667 106 450 106
c68.667 0 145.334 -9.33301 230.001 -28c73.333 -24.667 144.333 -56 213 -94c70.667 -22 123.667 -33 159 -33c88 0 137.333 30 148 90h115z" />
    <glyph glyph-name="T" unicode="T" horiz-adv-x="2765" 
d="M2855 2011h-73.999c16.667 101.333 25 193 25 275c0 379.333 -173.333 569 -520 569h-54l-807 -2777h381l-28 -90h-1160l29 90h381l807 2777h-45c-158.667 0 -325.334 -50.667 -500.001 -152c-174.667 -103.333 -327.667 -334 -459 -692h-73l270 918h2032z" />
    <glyph glyph-name="U" unicode="U" horiz-adv-x="2875" 
d="M786 1036c-8 -48.667 -18.665 -99 -31.998 -151c-16.667 -54.667 -29 -119 -37 -193c-8 -60 -12 -114.667 -12 -164v-32c0 -87.333 40.667 -187 122 -299c82 -114.667 235 -175 459 -181c213.333 0 410 60.333 590 181c177.333 117.333 309.666 330.333 397 639l467 1585
c27.333 100.667 41 177 41 229c0 16.667 -1.33301 30.334 -4 41c-10.667 82 -72 135.333 -184 160c-38.667 2.66699 -90.667 4 -156 4c-16 8 -37.667 12 -65 12l24 74h918l-25 -74c-144.667 -10.667 -244.334 -50.334 -299.001 -119
c-57.333 -68 -109.333 -178.333 -156 -331l-454 -1581c-68.667 -243.333 -187.667 -455 -357 -635c-160.667 -169.333 -410.334 -254 -749.001 -254h-66c-278 10.667 -488 81.5 -630 212.5s-222.667 286.833 -242 467.5c0 158 17.667 294.333 53 409l504 1831h-373l17 74
h1167l-29 -74h-381z" />
    <glyph glyph-name="V" unicode="V" horiz-adv-x="2826" 
d="M1397 496l1159 2003c43.333 78.667 66.666 127.667 70 147c0 90 -38.333 151.333 -115 184c-22 11.333 -46.667 19.666 -74 25c-30 2.66699 -64 6.66699 -102 12h-66l17 74h909l-29 -74c-122.667 -13.333 -214 -48.666 -274 -106
c-62.667 -57.333 -138 -158.333 -226 -303l-1482 -2511h-160l-152 2920h-409l20 74h1213l-29 -74h-397z" />
    <glyph glyph-name="W" unicode="W" horiz-adv-x="4301" 
d="M3011 516l1032 1753c103.334 161.333 159.334 285.666 168 373c2.66602 13.333 4 25.666 4 37c0 79.333 -38.334 132.666 -115 160c-43.333 10.667 -96.666 16 -160 16h-57l25 74h868l-33 -74c-76.666 -8 -145 -30 -205 -66c-62.666 -38 -115.666 -85.667 -159 -143
c-46.666 -60 -87.666 -122.667 -123 -188l-119 -205l-1356 -2319h-110l-99 2319l-1380 -2319h-119l-94 2921h-356l28 74h1131l-29 -74h-393l94 -2294l1118 1847v447h-409l28 74h1184l-24 -74h-398z" />
    <glyph glyph-name="X" unicode="X" horiz-adv-x="3084" 
d="M1847 1614l693 803c16 24.667 43 62.667 81 114c38.667 52 59.334 95.667 62 131c2.66699 14 4 26.333 4 37c0 66 -39.667 114 -119 144c-38 16 -102 24 -192 24h-45l28 74h1073l-16 -74c-164 -2.66699 -291 -38 -381 -106c-92.667 -68.667 -210 -178 -352 -328
l-787 -930l521 -1413h381l-13 -90h-1204l29 90h385l-414 1102l-582 -655c-106 -118 -170 -207 -192 -267c0 -82 37 -136.667 111 -164c21.333 -2.66699 40.333 -4 57 -4l74 -12h57l-29 -90h-958l20 90c158.667 0 287 38.333 385 115c96 76 213.667 196 353 360l663 750
l-582 1552h-409l29 74h1228v-74h-426z" />
    <glyph glyph-name="Y" unicode="Y" horiz-adv-x="2556" 
d="M1610 1372l815 1147v0l33 61c21.333 44 33.333 74.333 36 91c6 16 9 31 9 45c0 92.667 -87.333 139 -262 139h-70l12 74h860l-41 -74c-108.667 -8 -190.334 -35.333 -245 -82c-54.667 -46.667 -123 -131.334 -205 -254l-877 -1274l-352 -1167h393l-41 -90h-1163l16 90
h385l369 1184l-385 1593h-336l33 74h1016l-17 -74h-340z" />
    <glyph glyph-name="Z" unicode="Z" horiz-adv-x="2716" 
d="M651 2040h-102l311 901h1860l-2069 -2851h463c117.333 0 251.333 17.667 402 53c150 33.333 312.333 121 487 263c172 138.667 305.667 348.667 401 630h111l-381 -1036h-1995v45l2048 2822h-327c-150.667 0 -287.334 -15 -410.001 -45
c-125.333 -30 -260.666 -105 -405.999 -225c-144.667 -120 -275.667 -305.667 -393 -557z" />
    <glyph glyph-name="bracketleft" unicode="[" horiz-adv-x="2101" 
d="M1130 3387h889l-28 -77h-512l-1127 -3679h500l-4 -65h-881z" />
    <glyph glyph-name="backslash" unicode="\" horiz-adv-x="1647" 
d="M1528 -819l-164 -8l-1159 4649l168 4z" />
    <glyph glyph-name="bracketright" unicode="]" horiz-adv-x="1597" 
d="M737 -434h-884l41 65h499l1127 3679h-500l8 77h881z" />
    <glyph glyph-name="underscore" unicode="_" horiz-adv-x="2568" 
d="M-102 -631h2572l-49 -209h-2573z" />
    <glyph glyph-name="grave" unicode="`" horiz-adv-x="1020" 
d="M1257 3006l37.001 -65c-100.667 -54.667 -214 -132.667 -340 -234c-128 -103.333 -192 -190.666 -192 -262c0 -32.667 9.66699 -51.667 29 -57c21.333 -16.667 40.333 -25 57 -25c142 -10.667 213 -77.334 213 -200c0 -63.333 -19 -118 -57 -164
c-41.333 -49.333 -93.333 -74 -156 -74c-84.667 0 -154.334 24.667 -209.001 74s-82 112 -82 188c0 134 62.667 277.333 188 430c126 150.667 296.667 280.334 512 389z" />
    <glyph glyph-name="a" unicode="a" horiz-adv-x="2126" 
d="M1438 1602l102.003 282.002h279l-439 -1511c-2.66699 -14 -9.5 -42.833 -20.5 -86.5s-16.5 -74.834 -16.5 -93.501v-9c0 -68 22 -111.667 66 -131c10.667 -2.66699 21.667 -4 33 -4c32.667 0 68 15 106 45c49.333 35.333 97.166 83.166 143.499 143.499
s87.5 116.5 123.5 168.5l106 167l57 -28c-202 -380 -395.667 -572.667 -581 -578c-96 0 -168.333 45 -217 135c-33.333 57.333 -50 131.333 -50 222c0 43.333 4.33301 91 13 143c-14 -10.667 -36 -43.334 -66 -98.001c-24.667 -27.333 -52 -61.666 -82 -102.999
c-32.667 -40.667 -64 -77.334 -94 -110.001c-32.667 -36 -64 -64.667 -94 -86c-98.667 -60 -194.334 -94.333 -287.001 -103c-70.667 0 -140.334 17.667 -209.001 53c-68 33.333 -122.667 96.333 -164 189c-35.333 70.667 -53 163.334 -53 278.001c0 27.333 1.33301 56 4 86
c11.333 205.333 71.5 413 180.5 623s241.5 383.333 397.5 520c150 131.333 290.667 197 422 197h8c74 0 143.667 -26 209 -78c62.667 -52 103.667 -129.667 123 -233zM352.003 299.002c0 -164 58.668 -252.667 176.001 -266h9c122.667 0 253.667 95.333 393 286
c142 194 256.667 419.333 344 676c70.667 202 106 368.667 106 500c0 32.667 -2.66699 62.667 -8 90c-10.667 82 -42 145 -94 189c-54.667 40.667 -109.334 61 -164.001 61h-16c-87.333 0 -173.333 -53.333 -258 -160c-90 -114.667 -173.333 -262 -250 -442
c-76.667 -183.333 -136.667 -359.333 -180 -528c-38.667 -150.667 -58 -275 -58 -373v-33z" />
    <glyph glyph-name="b" unicode="b" horiz-adv-x="1966" 
d="M201 946l519.998 1921h-385l16 74h660l-373 -1413c74 100.667 168.333 190.667 283 270c108.667 76.667 224.667 115 348 115h16c131.333 0 247.333 -49.333 348 -148c101.333 -98 157.333 -241.333 168 -430v-41c0 -128 -23 -263 -69 -405
c-52 -156 -127.333 -303.667 -226 -443c-100.667 -138.667 -220.667 -252 -360 -340c-139.333 -90 -285.333 -136.333 -438 -139c-169.333 0 -308.666 53.333 -417.999 160s-164 252.667 -164 438c10.667 131.333 35.334 258.333 74.001 381zM425.998 737
c0 -35.333 -4.00098 -72 -12.001 -110c-11.333 -41.333 -22.333 -94.666 -33 -159.999c-5.33301 -24.667 -8 -49.334 -8 -74.001s2.66699 -50.667 8 -78c10.667 -68 43.334 -130.667 98.001 -188c52 -54.667 125.667 -82 221 -82h17c152.667 2.66699 292 90 418 262
c122.667 172 221 374 295 606c73.333 229.333 110 422 110 578c0 191.333 -76.333 299.333 -229 324c-22 2.66699 -44 4 -66 4c-125.333 0 -260.333 -68.333 -405 -205c-169.333 -164 -307.333 -456.333 -414 -877z" />
    <glyph glyph-name="c" unicode="c" horiz-adv-x="1757" 
d="M1393 528l72.999 -48.999c-100.667 -166.667 -218 -293.667 -352 -381s-273.333 -131 -418 -131c-160.667 0 -298.334 58.667 -413.001 176c-118 114.667 -177 280 -177 496v16c0 202 52 400 156 594c106.667 199.333 243.334 359.166 410.001 479.499
s329 181.833 487 184.5h17c68 0 136 -16.333 204 -49c71.333 -36 126 -85.333 164 -148c35.333 -60 53 -125.333 53 -196v-17c-13.333 -92.667 -43.333 -158 -90 -196c-43.333 -24.667 -84.333 -37 -123 -37c-30 0 -58.667 8 -86 24c-62.667 32.667 -94 87.334 -94 164.001
c11.333 46.667 33.333 89 66 127c5.33301 2.66699 13.333 9.66699 24 21l25 24c5.33301 8 12 16.333 20 25c19.333 0 29 13.667 29 41v16c0 30 -16.333 60 -49 90c-27.333 24.667 -64.333 37 -111 37c-16 0 -32.333 -1.33301 -49 -4c-136.667 -8 -263.667 -81.667 -381 -221
c-117.333 -142 -211.5 -315.5 -282.5 -520.5s-109.167 -404.167 -114.5 -597.5v-54c0 -158 32.667 -264.333 98 -319c74 -60 150.667 -90 230 -90c122.667 0 248 47.667 376 143c128.667 95.333 231.334 212.666 308.001 351.999z" />
    <glyph glyph-name="d" unicode="d" horiz-adv-x="2322" 
d="M1229 299h-28.999c-194 -221.333 -383.667 -332 -569 -332c-128.667 0 -240.667 50.667 -336 152c-95.333 98 -147.333 237.333 -156 418v32c0 194 41 392 123 594c87.333 213.333 204.666 392.333 351.999 537c142 142 293.667 213 455 213h8
c221.333 -11.333 366 -148 434 -410l377 1348h-381l13 74h655l-668 -2519c-27.333 -98.667 -41 -185 -41 -259c16.667 -62.667 51 -94 103 -94h8c87.333 0 176 73.667 266 221c92.667 148 178.667 312 258 492l62 -29c-101.333 -232 -204 -416.333 -308 -553
c-103.333 -136 -218 -208.333 -344 -217h-8c-90 0 -158.333 33 -205 99c-46 60 -69 129.333 -69 208v25zM1438 1343c0 164 -31.668 287.001 -95.001 369.001c-62.667 82 -136.334 123 -221.001 123c-128 -2.66699 -246.667 -83.334 -356 -242.001
c-112 -160.667 -203.333 -353 -274 -577c-74 -224 -115 -418 -123 -582c0 -120 24.333 -212.667 73 -278c49.333 -68.667 119 -109.667 209 -123h8c120.667 0 241 62.667 361 188c122.667 126 222.334 291.333 299.001 496c76.667 202 116.334 410.667 119.001 626z" />
    <glyph glyph-name="e" unicode="e" horiz-adv-x="1708" 
d="M1438 565l69.002 -37.002c-254 -357.333 -527 -544.333 -819 -561h-33c-158 0 -289 61.667 -393 185c-109.333 130.667 -164 297 -164 499c2.66699 183.333 60 373.333 172 570s252.667 360.334 422 491.001c169.333 131.333 338.666 198.333 507.999 201h17
c128 0 227.667 -35.667 299 -107c65.333 -68 98 -144.333 98 -229v-33c0 -142 -86 -278.333 -258 -409c-174.667 -134 -476.334 -210.667 -905.001 -230c-68.667 -234.667 -105.667 -380.667 -111 -438c0 -156 41 -264 123 -324s166.667 -90 254 -90
c98 0 204.333 35.667 319 107c112 70.667 214.333 164.667 307 282c11.333 14 25 29 41 45c16.667 16.667 29 30.334 37 41.001c2.66699 2.66699 5.66699 7 9 13c0 5.33301 1.33301 10.666 4 15.999c0 2.66699 1.33301 5.33398 4 8.00098zM475.002 990.998h16.999
c250.667 0 455.334 58.667 614.001 176c161.333 117.333 248.666 260.666 261.999 429.999v41c0 90.667 -23.333 148 -70 172c-40.667 19.333 -78.667 29 -114 29c-14 0 -27.667 -1.33301 -41 -4c-147.333 -8 -282.666 -101 -405.999 -279
c-122.667 -177.333 -210 -365.666 -262 -564.999z" />
    <glyph glyph-name="f" unicode="f" horiz-adv-x="1352" 
d="M537 1798l-397.998 -0.000976562l8 86h418l21 70c2.66699 54.667 4 124.334 4 209.001c10.667 204.667 62.334 383.334 155.001 536c93.333 150.667 194.666 226 303.999 226c57.333 0 102.333 -15.333 135 -46c30 -32.667 45 -73.334 45 -122
c0 -52 -19.333 -93 -58 -123c-40.667 -32.667 -88.334 -49 -143.001 -49c-24.667 0 -61.334 9.33301 -110.001 28c-19.333 8.66699 -34.666 13 -45.999 13c-10.667 0 -18.667 -4.33301 -24 -13c-30 -8 -56 -32.333 -78 -73c-16.667 -33.333 -25 -69 -25 -107
c0 -13.333 1.66699 -28.333 5 -45c8 -49.333 21.667 -106.666 41 -172l24 -74c8 -27.333 13.333 -49 16 -65c8.66699 -38.667 13 -75.667 13 -111c0 -27.333 -2.66699 -54.666 -8 -81.999h421l-12 -86h-426l-344 -1282l-53 -229c-35.333 -90 -64 -211.667 -86 -365
c-14 -84.667 -22.333 -158.334 -25 -221.001c-40.667 -180 -98 -318 -172 -414c-76 -98 -157.667 -147 -245 -147c-49.333 0 -90.333 16.333 -123 49c-36 30 -54 68.333 -54 115v8c0 46.667 17.833 85 53.5 115s82.167 45 139.5 45c8 0 43.333 -9.66699 106 -29
c19.333 -5.33301 49.333 -8 90 -8c27.333 10.667 46.666 29.667 57.999 57c10.667 24.667 16 53.334 16 86.001s-1.33301 62.667 -4 90c-24.667 74 -37 130 -37 168c-5.33301 16.667 -10.666 42.667 -15.999 78s-11 62.666 -17 81.999v110c6 30.667 11.667 63.667 17 99
c5.33301 32.667 10.666 60 15.999 82c5.33301 46 26 129.333 62 250l28 98c6 24.667 13 50.667 21 78z" />
    <glyph glyph-name="g" unicode="g" horiz-adv-x="2064" 
d="M1487 1798c114.667 150 229.33 225 343.997 225h29c43.333 -5.33301 85.5 -27 126.5 -65s61.5 -88.667 61.5 -152c0 -51.333 -15 -89.333 -45 -114c-32.667 -24.667 -65.334 -37 -98.001 -37c-84.667 0 -127 36.667 -127 110v50v28c0 27.333 -13.667 45 -41 53h-8
c-30.667 0 -62.334 -16.333 -95.001 -49c-35.333 -35.333 -62.666 -72 -81.999 -110c96 -112 144 -246 144 -402c-16.667 -190.667 -102.667 -354.334 -258 -491.001c-158.667 -136.667 -328 -205 -508 -205c-62.667 0 -128.334 8.33301 -197.001 25
c-68 16 -111.667 31 -131 45c-73.333 -19.333 -130.666 -49.666 -171.999 -90.999c-43.333 -43.333 -65 -87 -65 -131c0 -112 101 -178.667 303 -200c32.667 -5.33301 80.334 -11 143.001 -17c62.667 -5.33301 117.334 -13.333 164.001 -24
c357.333 -60 536 -218.333 536 -475v-41c0 -150.667 -68 -286 -204 -406c-150.667 -134 -359.667 -201 -627 -201c-243.333 0 -425 49.333 -545 148c-109.333 87.333 -164 188.333 -164 303c0 13.333 1.33301 27 4 41c8.66699 95.333 56.667 182.666 144 261.999
c84.667 76.667 191 123 319 139v17c-84.667 22 -153 61.667 -205 119c-51.333 57.333 -80 117.333 -86 180v16c0 68.667 28.667 138.334 86 209.001c60.667 76.667 159 142.334 295 197.001c-128 120 -192 270 -192 450c2.66699 191.333 86 356.666 250 495.999
c160.667 136.667 346.334 207.667 557.001 213h33c122.667 0 226.334 -38.333 311.001 -115zM617.996 1008c19.333 -196.667 108.333 -295 267 -295h33c144.667 10.667 266 115.667 364 315c92.667 186 139 358 139 516v25c-16 142 -99.333 228 -250 258h-24
c-104 0 -195.667 -43.667 -275 -131c-84.667 -96 -148.667 -215 -192 -357c-41.333 -128 -62 -230.333 -62 -307v-24zM167.996 -426v-16c0 -98.667 38.333 -180.667 115 -246c78.667 -71.333 205.667 -107 381 -107h16c196.667 0 349.667 38.333 459 115
c109.333 74 168 158.667 176 254c5.33301 13.333 8 28.333 8 45c0 27.333 -5.33301 60 -16 98c-16.667 60 -67.334 119 -152.001 177c-84.667 54 -219.667 81 -405 81h-17c-182.667 0 -320.667 -39.333 -414 -118c-95.333 -82 -145.666 -176.333 -150.999 -283z" />
    <glyph glyph-name="h" unicode="h" horiz-adv-x="2335" 
d="M2175 598l52.999 -33.001c-49.333 -95.333 -98.333 -181.333 -147 -258c-49.333 -79.333 -116.333 -157 -201 -233c-79.333 -71.333 -161.333 -107 -246 -107h-24c-96 8.66699 -172.667 48.334 -230 119.001c-48.667 57.333 -73 129.666 -73 216.999
c0 16.667 1.33301 33 4 49c0 62.667 19 153 57 271c38 114.667 88.667 252.334 152 413.001c60 158.667 103.667 270.667 131 336c48.667 104 73 188.667 73 254c0 109.333 -51.667 169.333 -155 180h-25c-100.667 0 -215.334 -61.333 -344.001 -184
c-142 -136.667 -270.333 -303.334 -385 -500.001c-114.667 -199.333 -198 -394.333 -250 -585l-143 -537h-283l762 2867h-373l9 74h663l-483 -1819c117.333 221.333 258 408.333 422 561c163.333 153.333 316 230 458 230h17c32.667 0 68 -5.66699 106 -17
c46.667 -13.333 86.334 -33.666 119.001 -60.999c32.667 -30 61.334 -71 86.001 -123c22 -54.667 33 -118.667 33 -192c0 -44 -12.333 -115 -37 -213c-8 -44 -47.667 -161.667 -119 -353c-57.333 -174.667 -116 -330.334 -176 -467.001
c-46.667 -122.667 -71.334 -199 -74.001 -229c-2.66699 -22 -4 -42.333 -4 -61c0 -82 34.333 -125.667 103 -131c10.667 -3.33301 21.334 -5 32.001 -5c66 0 144 49.333 234 148c104 114.667 190 244.334 258 389.001z" />
    <glyph glyph-name="i" unicode="i" horiz-adv-x="1167" 
d="M397 442c-32.667 -120 -49 -204.667 -49 -254c0 -10.667 1.33301 -18.667 4 -24c11.333 -68.667 40 -103 86 -103c14 0 27.667 3 41 9c136.667 30 302 262 496 696l65 -29c-98 -232 -197.667 -416.333 -299 -553c-103.333 -136 -219.333 -208.333 -348 -217h-16
c-87.333 0 -150.333 24.667 -189 74c-40.667 52 -63.667 102.667 -69 152c-2.66699 30 -4 61.333 -4 94c0 79.333 10.667 169.333 32 270l345 1241h-386l17 86h655zM565 2585c0 54 19.168 98.833 57.501 134.5s80.833 53.5 127.5 53.5c38 0 72 -8.33301 102 -25
c27.333 -18.667 50.666 -41.667 69.999 -69c16 -27.333 24 -58.666 24 -94c0 -54.667 -17.667 -100 -53 -136c-38 -38 -85.667 -57 -143 -57c-46.667 0 -89 19 -127 57c-38.667 38.667 -58 84 -58 136z" />
    <glyph glyph-name="j" unicode="j" horiz-adv-x="1044" 
d="M426 332l-44.999 -168.001c-8 -19.333 -12 -50.666 -12 -93.999c-19.333 -57.333 -30.333 -116 -33 -176c-35.333 -290 -95.333 -488.167 -180 -594.5s-172 -159.5 -262 -159.5c-49.333 0 -90.333 16.333 -123 49c-36 30 -54 68.333 -54 115c0 52 19.333 93 58 123
c35.333 30 80.333 45 135 45c19.333 0 57.666 -9.66699 114.999 -29c18.667 -5.33301 45.667 -8 81 -8c49.333 30 74 87.333 74 172c0 18.667 -1.33301 39 -4 61c0 22 -5.33301 53.333 -16 94c-11.333 38.667 -18.333 63.334 -21 74.001c-13.333 96 -20 168.333 -20 217
c0 93.333 6.66699 165.666 20 216.999l389 1528h-381l21 86h663zM602.001 2585c0 57.333 20.668 103.665 62.001 138.999c38 32.667 84.333 49 139 49c35.333 0 68 -8.33301 98 -25c27.333 -18.667 49.166 -41.667 65.499 -69s24.5 -58.666 24.5 -93.999
c0 -54.667 -17.667 -100 -53 -136c-38 -38 -83 -57 -135 -57c-54.667 0 -101 19 -139 57c-41.333 36 -62 81.333 -62 136z" />
    <glyph glyph-name="k" unicode="k" horiz-adv-x="2212" 
d="M659 1122l74 -0.00195312c234.667 0 400 58.667 496 176c35.333 44 77.666 118 126.999 222c65.333 122.667 132 222.334 200 299.001c57.333 65.333 135.333 98 234 98c13.333 0 28.333 -1.33301 45 -4c52 -5.33301 98.333 -20.333 139 -45
c38.667 -27.333 68.667 -63 90 -107c16.667 -40.667 25 -85.667 25 -135v-24c-2.66699 -63.333 -23 -114 -61 -152c-41.333 -40.667 -85.333 -61 -132 -61c-43.333 0 -80 16.333 -110 49c-32.667 30 -49 69.333 -49 118c0 46.667 23 93.334 69 140.001l21 28
c13.333 16.667 20 30.334 20 41.001c0 11.333 -9.33301 25 -28 41c-14 8.66699 -29 13 -45 13c-8.66699 0 -17 -1.33301 -25 -4c-57.333 0 -121.666 -39.667 -192.999 -119c-8 -11.333 -38 -67.333 -90 -168c-68 -139.333 -129.333 -241.833 -184 -307.5
s-132.334 -112.167 -233.001 -139.5c136 -8 242.333 -40.667 319 -98c76.667 -60 119 -132.333 127 -217c2.66699 -19.333 4 -41.333 4 -66c0 -46 -6.66699 -100.333 -20 -163c-36 -128.667 -55.333 -198.334 -58 -209.001c-21.333 -46.667 -32 -89 -32 -127
c0 -16.667 2.66699 -31.667 8 -45c27.333 -54.667 64 -82 110 -82c11.333 0 22.333 1.33301 33 4c60 13.333 118.667 53 176 119c54.667 65.333 146.334 188 275.001 368l57 -37c-210 -374 -420.333 -561 -631 -561h-24c-180.667 35.333 -273.667 142 -279 320
c0 60 12.333 126.667 37 200c13.333 52 31 127.333 53 226c5.33301 30 8 57.333 8 82c0 160.667 -98 241 -294 241h-168h-111l-274 -1036h-275l758 2867h-373l17 74h659z" />
    <glyph glyph-name="l" unicode="l" horiz-adv-x="1241" 
d="M438 537c-13.333 -52 -28.332 -103.998 -44.999 -155.998c-16 -52 -27 -94.333 -33 -127c-2.66699 -14 -4 -27.667 -4 -41c0 -19.333 3 -38.333 9 -57c2.66699 -57.333 32.667 -87.333 90 -90c57.333 0 111.666 25.667 162.999 77c52 49.333 98.667 106.666 140 171.999
c40.667 66 87 150.667 139 254l94 197l58 -29c-104 -237.333 -203.667 -423 -299 -557c-98.667 -133.333 -212 -204.333 -340 -213c-158.667 0 -253 75.333 -283 226c-5.33301 24 -8 51 -8 81c0 79.333 16.333 173.666 49 282.999l606 2294h-377l25 74h655z" />
    <glyph glyph-name="m" unicode="m" horiz-adv-x="3342" 
d="M119 0l470.999 1798h-369l8 86h660l-168 -614c104 155.333 235 304 393 446c150 131.333 289.333 197 418 197h24c109.333 -11.333 194 -63.333 254 -156c27.333 -46 41 -103.333 41 -172c0 -73.333 -15 -159.333 -45 -258c98.667 172 220.334 315.333 365.001 430
c130.667 104 256.334 156 377 156h24c109.333 -8 199.666 -62.667 271 -164c51.333 -74 77 -157.333 77 -250c0 -35.333 -4 -72 -12 -110c-5.33301 -22 -9.33301 -41.333 -12 -58c-5.33301 -18.667 -11 -33.667 -17 -45c-8 -10.667 -12 -28.334 -12 -53.001l-340 -946
c-10.667 -36 -16 -73 -16 -111c0 -52 19 -78 57 -78c14 -8 30.333 -12 49 -12c52 0 120.333 35.667 205 107c112 95.333 226.667 244 344 446l66 -41c-79.333 -144.667 -183.333 -285.334 -312 -422.001c-128 -139.333 -253.333 -209 -376 -209
c-98.667 2.66699 -172.667 42.334 -222 119.001c-40.667 62.667 -61 137.667 -61 225c0 19.333 1.33301 38.666 4 57.999c5.33301 46 20.333 99 45 159l270 799c52 142 78 248.667 78 320c0 13.333 -1.33301 25.333 -4 36c-16 60.667 -48.667 99 -98 115
c-19.333 5.33301 -38.333 8 -57 8c-76.667 0 -162.667 -35.333 -258 -106c-120.667 -87.333 -234.167 -215.666 -340.5 -384.999s-189.5 -357.666 -249.5 -564.999l-213 -750h-279l381 1327c38 156 57 261 57 315v25c-13.333 74 -52.666 117.667 -117.999 131h-25
c-74 0 -165.333 -45 -274 -135c-120.667 -101.333 -235.334 -235 -344.001 -401c-112 -166.667 -194 -337.334 -246 -512.001l-197 -750h-274z" />
    <glyph glyph-name="n" unicode="n" horiz-adv-x="2372" 
d="M2159 639l56.998 -41.002c-79.333 -147.333 -181.666 -289.333 -306.999 -426c-128.667 -136.667 -254.334 -205 -377.001 -205c-92.667 5.33301 -163.667 39.666 -213 102.999c-44 51.333 -66 122.333 -66 213c0 18.667 1.33301 37.667 4 57c11.333 98 40 203 86 315
l238 672l66 246c5.33301 24.667 8 49.334 8 74.001c0 16 -1.33301 32.333 -4 49c-16.667 52 -56.334 86 -119.001 102c-16.667 2.66699 -33 4 -49 4c-74 0 -158.667 -35.333 -254 -106c-120 -87.333 -232 -211.666 -336 -372.999c-104 -164 -184.667 -344.333 -242 -541
l-200 -782h-295l495 1798h-393l21 74l655 12l-143 -569c100.667 169.333 219.334 312.666 356.001 429.999c134 112 259.667 168 377 168h8c70.667 0 139 -23.333 205 -70c62.667 -46 110.334 -110 143.001 -192c19.333 -49.333 29 -101.333 29 -156
c0 -35.333 -4.33301 -70.666 -13 -105.999c0 -41.333 -9.33301 -75.666 -28 -102.999c-5.33301 -10.667 -8 -28.334 -8 -53.001l-320 -860c-32.667 -49.333 -49 -102.666 -49 -159.999c0 -10.667 1.33301 -23 4 -37c0 -40.667 15 -66.667 45 -78
c16.667 -5.33301 34.334 -8 53.001 -8c54.667 -2.66699 123 27.333 205 90c106.667 79.333 227 232.333 361 459z" />
    <glyph glyph-name="o" unicode="o" horiz-adv-x="2028" 
d="M139 696c0 183.333 44.999 369.001 134.999 557.001c90.667 186 216.334 341.667 377.001 467c161.333 126 340.333 190.333 537 193h33c188 0 339.333 -64.333 454 -193c117.333 -136 179 -312 185 -528c0 -128.667 -22 -265.334 -66 -410.001
c-46.667 -147.333 -126 -289.333 -238 -426c-193.333 -248 -435 -377.667 -725 -389c-188 0 -347.667 65.667 -479 197c-133.333 128 -204.333 305.333 -213 532zM421.999 528.001c0 -297.333 128.333 -462.332 385 -494.999h24c150.667 0 282 72.333 394 217
c117.333 150 206 330.167 266 540.5s90 404.166 90 581.499c-10.667 186 -58.334 310.333 -143.001 373c-84.667 60 -173.667 90 -267 90c-202 0 -375.333 -140.667 -520 -422c-147.333 -284 -223.666 -579 -228.999 -885z" />
    <glyph glyph-name="p" unicode="p" horiz-adv-x="2015" 
d="M819 1573h29c57.333 109.333 138 195.333 242 258c92.667 54.667 186.667 82 282 82h25c142 0 259.333 -50.667 352 -152c90 -100.667 139 -240 147 -418v-49c0 -182.667 -39.333 -373.667 -118 -573c-87.333 -218.667 -205 -399 -353 -541
c-147.333 -142 -300 -213 -458 -213h-9c-202 5.33301 -352 139.333 -450 402l-307 -1180h401l-24 -78h-1053l24 78h373l688 2609h-360l20 86h578zM586 537c0 -166.667 36.666 -289.668 109.999 -369.001c71.333 -79.333 149.333 -124.333 234 -135h16
c177.333 0 341.333 169.333 492 508c150 346.667 225 648.334 225 905.001c0 142 -28.667 241.667 -86 299c-57.333 54.667 -118.666 84.667 -183.999 90h-25c-98 0 -206 -54.667 -324 -164c-130.667 -120 -239.667 -281 -327 -483s-131 -419 -131 -651z" />
    <glyph glyph-name="q" unicode="q" horiz-adv-x="1954" 
d="M1511 1573l152 311h197l-717 -2695h364l-12 -78h-1044l4 78h397l328 1180c-213.333 -251.333 -433.333 -385.333 -660 -402c-267.333 0 -408 165.333 -422 496v57c0 232 46.667 453.333 140 664c98 224 229 402.667 393 536c158 128.667 316.333 193 475 193h8
c202 0 329 -113.333 381 -340h16zM1159 545c68.667 122.667 133.001 297.334 193.001 524.001c40.667 150 61 274.333 61 373c0 49.333 -5.33301 91.666 -16 126.999c-38.667 172 -131.667 258 -279 258h-41c-133.333 -16.667 -257.333 -105.334 -372 -266.001
c-118 -161.333 -209.667 -354 -275 -578c-62.667 -210 -94 -401 -94 -573v-41c0 -210.667 79 -316 237 -316h13c103.333 8.66699 209.666 63.334 318.999 164.001c109.333 98.667 194 208 254 328z" />
    <glyph glyph-name="r" unicode="r" horiz-adv-x="1757" 
d="M750 1315c76 172 185 316.667 327 434c134 109.333 259.667 164 377 164h25c136 -14 212.333 -92 229 -234c0 -136 -58.667 -213.667 -176 -233c-19.333 -2.66699 -37 -4 -53 -4c-41.333 0 -77 11 -107 33c-40.667 32.667 -61 73.334 -61 122.001v82
c0 30 -18 49.333 -54 58c-8 2.66699 -16 4 -24 4c-79.333 0 -183 -87.333 -311 -262c-142 -196.667 -261 -471.334 -357 -824.001l-172 -655h-270l479 1798h-381l8 86h660z" />
    <glyph glyph-name="s" unicode="s" horiz-adv-x="1683" 
d="M410 1372c0 169.333 68.002 304.669 204.002 406.002c126 90 266.667 135 422 135h41c158.667 -8 283 -53 373 -135c79.333 -74 119 -152 119 -234v-24c-11.333 -120.667 -74.333 -189 -189 -205h-16c-52 0 -93 15 -123 45c-35.333 32.667 -53 71 -53 115
c0 57.333 31.333 109 94 155c8 14 16.333 25 25 33c5.33301 5.33301 8 10.666 8 15.999c5.33301 8.66699 8 17 8 25c0 22 -13.667 46.667 -41 74c-43.333 38 -111.666 57 -204.999 57c-18.667 2.66699 -36.334 4 -53.001 4c-114.667 0 -204.667 -32.667 -270 -98
c-68.667 -68.667 -103 -146.667 -103 -234v-16c0 -62.667 23.333 -127 70 -193c40.667 -57.333 115.667 -125.333 225 -204c109.333 -71.333 205 -156 287 -254c73.333 -90 110 -189.667 110 -299v-33c0 -131.333 -58.667 -253 -176 -365
c-120 -114.667 -286.333 -173.334 -499 -176.001c-188.667 0 -329.334 42.333 -422.001 127c-93.333 82 -140 175 -140 279c0 73.333 23.333 136 70 188c38 44 79 66 123 66h25c46 0 86.667 -16.333 122 -49c33.333 -36 50 -81.333 50 -136c-6 -38 -19.667 -74.667 -41 -110
c-8.66699 -14 -37.334 -38.667 -86.001 -74c-19.333 -19.333 -29 -44 -29 -74v-8c19.333 -46.667 59 -82 119 -106c54.667 -24.667 123 -37 205 -37h24c144.667 10.667 251.334 50.334 320.001 119.001c65.333 68 98 141.667 98 221c0 90 -22 161 -66 213
c-18.667 38 -48.667 74.667 -90 110c-40.667 36 -80.334 69 -119.001 99c-98 76 -173 138.667 -225 188c-52 46.667 -97 104 -135 172c-38 65.333 -58.333 137.666 -61 216.999z" />
    <glyph glyph-name="t" unicode="t" horiz-adv-x="1315" 
d="M528 1884l205 668h279l-193 -668h410l-29 -86h-397l-381 -1495c-16.667 -38 -25 -72 -25 -102c0 -46.667 22 -81 66 -103c13.333 -2.66699 27 -4 41 -4c62.667 0 139 38.333 229 115c106.667 92.667 205 236 295 430l62 -41c-224 -420.667 -456.333 -631 -697 -631
c-180 11.333 -270 122 -270 332c0 76.667 15 153 45 229l340 1270h-385v86h405z" />
    <glyph glyph-name="u" unicode="u" horiz-adv-x="2249" 
d="M803 1884l-380.999 -1442c-35.333 -92.667 -53 -169 -53 -229v-25c0 -73.333 28.667 -114 86 -122c16 -6 32.333 -9 49 -9c16 0 31 3 45 9c90 13.333 199.333 76 328 188c125.333 112 238.666 239 339.999 381c98 139.333 162 258 192 356l217 807h-397l16 86h651
l-401 -1421c-32.667 -106.667 -49 -191.334 -49 -254.001c0 -30 4 -54.667 12 -74c5.33301 -35.333 32.666 -62.666 81.999 -81.999h21c138.667 0 314.667 233.667 528 701l70 -25c-98.667 -212.667 -197 -390 -295 -532c-98.667 -144.667 -217.667 -221.334 -357 -230.001
c-109.333 0 -189.666 49.333 -240.999 148c-24.667 48.667 -37 103.334 -37 164.001c0 65.333 13.667 137.666 41 216.999l41 127c-344 -437.333 -629.333 -656 -856 -656c-93.333 5.33301 -171.333 39.5 -234 102.5s-94 153.167 -94 270.5
c10.667 117.333 42 259.333 94 426l271 1032h-365l20 86h656z" />
    <glyph glyph-name="v" unicode="v" horiz-adv-x="1905" 
d="M745 1884l-319.002 -1200c0 -8 -11 -64 -33 -168c-16 -82 -24 -151.667 -24 -209v-37c0 -78.667 28.667 -136 86 -172c32.667 -18.667 69.334 -28 110.001 -28c82 0 184.333 41 307 123c178 120 346 292 504 516c158.667 223.333 259.667 439 303 647
c8.66699 27.333 13 52 13 74c0 48.667 -22 81.334 -66 98.001c-5.33301 2.66699 -15 4 -29 4c-13.333 0 -31 -1.33301 -53 -4c-40.667 -8 -62.334 -12 -65.001 -12c-54.667 0 -98.334 20.333 -131.001 61c-27.333 30 -41 65.333 -41 106c0 14 1.33301 27.667 4 41
c0 46.667 23 92 69 136c38.667 35.333 85.334 53 140.001 53h32c84.667 -8 154.334 -43.667 209.001 -107c41.333 -48.667 62 -111.334 62 -188.001c0 -24.667 -1.33301 -50.667 -4 -78c-8.66699 -166.667 -81 -375.667 -217 -627
c-139.333 -254 -311.666 -473.667 -516.999 -659c-207.333 -188.667 -405 -284.334 -593 -287.001c-238 0 -362.333 128.333 -373 385c-2.66699 19.333 -4 40 -4 62c0 73.333 13.667 163.333 41 270l299 1114h-377l20 86h647z" />
    <glyph glyph-name="w" unicode="w" horiz-adv-x="2851" 
d="M1298 975l283.001 908.999h266l-426 -1478c-16 -33.333 -24 -73 -24 -119c0 -22 1.33301 -44 4 -66c10.667 -73.333 61 -121 151 -143c19.333 -2.66699 38.666 -4 57.999 -4c117.333 0 247 61.333 389 184c166.667 144.667 312.667 326.334 438 545.001
c122.667 218 189.667 411.667 201 581c0 90.667 -35.667 136 -107 136h-16c-8 0 -25.667 -3 -53 -9c-27.333 -5.33301 -46.666 -8 -58 -8c-38 0 -74.667 12.333 -110 37s-57.333 63 -66 115v33c0 51.333 17.667 100.333 53 147c41.333 52 104.333 78 189 78h16
c82 0 149 -31.333 201 -94c54.667 -66 82 -157.667 82 -275v-16c0 -92.667 -26 -213 -78 -361c-54.667 -147.333 -113.334 -271.333 -176 -372c-114.667 -218.667 -258 -408.667 -430 -570c-174.667 -163.333 -352.334 -249.333 -533.001 -258h-16
c-144.667 0 -244.334 45 -299.001 135c-52 84.667 -78 177.667 -78 279v25c-191.333 -270.667 -401.666 -417 -630.999 -439h-16c-112 0 -195.333 24.667 -250 74c-60 49.333 -95.333 106.666 -106 171.999c-8.66699 44 -13 79.333 -13 106c0 14 1.33301 25 4 33
c3.33301 22 6.33301 42.667 9 62v65c13.333 19.333 20 50.666 20 93.999c24.667 76.667 39.667 127.334 45 152.001l275 1073h-357l8 86h660l-385 -1470c-8 -19.333 -15 -48 -21 -86c-5.33301 -27.333 -8 -52 -8 -74v-25c16.667 -87.333 71.334 -140.333 164.001 -159h16
c79.333 0 161.333 30 246 90c90 62.667 178.667 166.334 266 311.001c88 142 159 310 213 504z" />
    <glyph glyph-name="x" unicode="x" horiz-adv-x="2224" 
d="M393 1335l-57 53.998c128 188 246.667 324.333 356 409c101.333 76.667 195.666 115 282.999 115h16c109.333 0 187.333 -41 234 -123c43.333 -82 72 -187 86 -315c32.667 65.333 111.667 155.333 237 270c120.667 112 234 168 340 168h8c74 0 139.667 -27.333 197 -82
c46.667 -46.667 70 -108 70 -184v-33c0 -68.667 -18 -120.667 -54 -156c-32.667 -32.667 -70.667 -49 -114 -49h-17c-46 0 -81.333 15 -106 45s-37 60 -37 90c0 44 17.667 81 53 111c2.66699 10.667 9.66699 20 21 28c8 6 14.667 10.333 20 13
c2.66699 10.667 9.5 24.167 20.5 40.5s16.5 28.833 16.5 37.5c-13.333 40.667 -46 61 -98 61c-106.667 -10.667 -216 -117.167 -328 -319.5s-202 -427.5 -270 -675.5c-60 -224 -90 -399 -90 -525v-45c10.667 -76 32.334 -129 65.001 -159c30 -30 75 -49.333 135 -58
c98.667 0 209.334 60 332.001 180c120 118 218.333 239.667 295 365l53 -61c-248 -366 -488.333 -556 -721 -570c-87.333 0 -158.333 27.333 -213 82c-57.333 54.667 -95.333 161.334 -114 320.001c-84.667 -112 -173.667 -205 -267 -279
c-92.667 -73.333 -195 -114.333 -307 -123h-32c-186 0 -286 93 -300 279c0 188 64.333 282 193 282c49.333 0 87.666 -15 114.999 -45c27.333 -32.667 41 -70.667 41 -114v-25c0 -57.333 -30 -101 -90 -131c-33.333 -27.333 -51.333 -49.333 -54 -66v-16
c0 -22 7 -42.333 21 -61c16 -24.667 46 -37 90 -37h8c104 0 212 92.667 324 278c112 188.667 206 408.667 282 660c76.667 248 115 437.667 115 569c0 144.667 -53.333 233.334 -160 266.001c-10.667 2.66699 -23 4 -37 4c-57.333 0 -127 -31.333 -209 -94
c-100.667 -76 -218 -203 -352 -381z" />
    <glyph glyph-name="y" unicode="y" horiz-adv-x="1831" 
d="M1511 1884l278.999 0.000976562l-479 -1638c-93.333 -322.667 -211 -589 -353 -799c-144.667 -210 -341 -322 -589 -336h-17c-128 0 -231.667 39.667 -311 119c-79.333 74 -119 156 -119 246v16c2.66699 60 24.667 107.667 66 143c40.667 33.333 87 50 139 50
c10.667 2.66699 21.667 4 33 4c43.333 0 78.666 -13.667 105.999 -41c32.667 -36 49 -73 49 -111c2.66699 -10.667 4 -20.334 4 -29.001c0 -62.667 -32.667 -106.334 -98 -131.001c-8 -5.33301 -19 -10.666 -33 -15.999c-13.333 -5.33301 -24 -10.666 -32 -15.999
c-8.66699 0 -13 -3 -13 -9c-2.66699 -8 -4 -14.667 -4 -20c-2.66699 -5.33301 -4 -10.666 -4 -15.999c0 -24.667 20.667 -50.667 62 -78c35.333 -24.667 76 -37 122 -37c16.667 0 33.334 1.33301 50.001 4c166 13.333 294.333 91 385 233c87.333 142 173.333 340 258 594
c16 57.333 32.333 112 49 164c16 49.333 36.333 121.666 61 216.999c5.33301 22 12.333 44 21 66c5.33301 19.333 8 37 8 53c-27.333 -35.333 -52 -72 -74 -110c-27.333 -24.667 -62.666 -63 -105.999 -115l-135 -144c-118 -106 -242.333 -166 -373 -180
c-128.667 0 -227 57.333 -295 172c-38 60 -57 139.333 -57 238c0 87.333 15 189.666 45 306.999l299 1114h-365l16 74l644 12l-381 -1388c-33.333 -104 -50 -188.667 -50 -254c0 -126 57.667 -189 173 -189c84 0 176.667 46.5 278 139.5s197 215.833 287 368.5
c90 150 155.333 293.333 196 430z" />
    <glyph glyph-name="z" unicode="z" horiz-adv-x="1880" 
d="M1430 1626l-553 -0.00195312c-139.333 0 -246 -50.333 -320 -151c-43.333 -68.667 -69.333 -115.334 -78 -140.001c-5.33301 -16 -9.33301 -28.333 -12 -37c-5.33301 -10.667 -15 -32.334 -29 -65.001h-98l270 651h1143l-1356 -1708h25c134 82 267.667 123 401 123h25
c32.667 0 96.667 -17.667 192 -53c24.667 -11.333 52 -25.166 82 -41.499s67 -35.5 111 -57.5c57.333 -18.667 94 -28 110 -28h17c60 0 99.667 16.333 119 49c8 16.667 12 33 12 49c2.66699 19.333 -1.33301 38.333 -12 57c-14 33.333 -30.333 59.333 -49 78
c-16.667 8.66699 -45.667 33.334 -87 74.001c0 8 -2.66699 24.333 -8 49s-8 42.334 -8 53.001c-2.66699 11.333 -4 21 -4 29c0 40.667 16.333 73.334 49 98.001c27.333 22 60 33 98 33c11.333 0 23.666 -1.33301 36.999 -4c46.667 0 87.667 -16.333 123 -49
c32.667 -35.333 49 -87.333 49 -156c-5.33301 -122.667 -55.666 -238.667 -150.999 -348c-98.667 -109.333 -236.667 -164 -414 -164c-27.333 0 -98.333 9.66699 -213 29c-24.667 10.667 -56 21.667 -94 33c-41.333 8 -74 16 -98 24c-104 30 -164.333 45 -181 45h-24
c-106.667 0 -203.667 -43.667 -291 -131l-74 49z" />
    <glyph glyph-name="bar" unicode="|" horiz-adv-x="1499" 
d="M373 -819l-172 -8l1159 4649l176 4z" />
    <glyph glyph-name="Agrave" horiz-adv-x="1094" 
d="M918 1966h73l-635 -958v-963h-69l-271 963z" />
    <glyph glyph-name="quoteleft" 
d="M1393 3105l37 -66c-101.333 -54.667 -214.666 -132.334 -339.999 -233c-128.667 -104 -193 -191.333 -193 -262c0 -33.333 9.66699 -52.666 29 -58c21.333 -16 40.333 -24 57 -24c142 -11.333 213 -78.333 213 -201c0 -62.667 -19 -117.334 -57 -164
c-41.333 -49.333 -93.333 -74 -156 -74c-84.667 0 -154.334 24.667 -209.001 74s-82 112.333 -82 189c0 133.333 63 276.666 189 430c125.333 150 296 279.667 512 389z" />
    <glyph glyph-name="quoteright" 
d="M729 1999l-37 69c92.667 41.333 204.667 113.833 336 217.5s197 191.167 197 262.5c0 27.333 -12.333 53.333 -37 78h-49c-142 21.333 -213 93.666 -213 217c0 60 20.333 114.333 61 163c38 46.667 88.667 71.334 152 74h24c71.333 0 131.333 -23 180 -69
c52 -52 81 -119 87 -201c0 -128.667 -64.333 -268 -193 -418c-128.667 -152.667 -298 -283.667 -508 -393z" />
    <glyph glyph-name="quotedblleft" horiz-adv-x="1806" 
d="M1368 3019l33.002 -65.999c-106.667 -60 -221.334 -143.333 -344.001 -250c-126 -106 -189 -196 -189 -270c0 -40.667 11 -61 33 -61c5.33301 -8.66699 17.666 -13 36.999 -13c152.667 -30 229 -105 229 -225c0 -54.667 -21.667 -105.334 -65 -152.001
c-44 -46 -98.667 -70.333 -164 -73h-8c-74 0 -134 23 -180 69c-52 49.333 -82.333 115 -91 197v25c0 130.667 56 265.667 168 405c118 147.333 298.333 285.333 541 414zM2245 3006l27.999 -65c-103.333 -52 -215.333 -132.667 -336 -242
c-122.667 -109.333 -184 -203.333 -184 -282c0 -24.667 9.66699 -44 29 -58c8 -8 21.667 -12 41 -12c32.667 -8 58.667 -13.333 78 -16c16 -6 37.667 -15.667 65 -29c24.667 -14 45.334 -33 62.001 -57c16 -27.333 24 -64.333 24 -111c-5.33301 -62.667 -30 -116 -74 -160
c-43.333 -43.333 -95 -65 -155 -65h-25c-68 0 -125.333 23 -172 69c-54.667 49.333 -84.667 115 -90 197c0 128 61.333 270 184 426c120.667 152.667 295.667 287.667 525 405z" />
    <glyph glyph-name="quotedblright" horiz-adv-x="1831" 
d="M1573 2044l-37.001 57c104 57.333 220 140.666 348 250c128.667 109.333 193 199.333 193 270c0 33.333 -12.333 56.666 -37 70c-5.33301 5.33301 -20.333 8 -45 8c-49.333 0 -98.666 16.333 -147.999 49c-52 30 -78 86 -78 168c0 57.333 22 109.333 66 156
c40.667 44 94 67.333 160 70h33c62.667 0 117 -20.667 163 -62c52 -52 79.333 -120.333 82 -205v-24c0 -128.667 -54.667 -264 -164 -406c-120 -152.667 -298.667 -286.334 -536 -401zM699.999 2044l-41.001 70c68.667 32.667 142.667 79 222 139
c78.667 57.333 151 121.333 217 192c62.667 68.667 94 127.334 94 176c0 11.333 -1.33301 21 -4 29s-6.66699 17.667 -12 29c-8.66699 10.667 -13 17.334 -13 20h-53c-144.667 24.667 -217 97 -217 217c5.33301 63.333 27 118 65 164
c38.667 46.667 89.334 71.334 152.001 74h33c62.667 0 118.667 -23.333 168 -70c57.333 -54.667 87.333 -121.334 90 -200v-25c0 -74 -23.333 -156 -70 -246c-52 -100.667 -129.667 -199 -233 -295c-104 -95.333 -236.667 -186.666 -398 -274z" />
    <glyph glyph-name="_extra1" horiz-adv-x="2875" 
d="M786 1036c-8 -48.667 -18.665 -99 -31.998 -151c-16.667 -54.667 -29 -119 -37 -193c-8 -60 -12 -114.667 -12 -164v-32c0 -87.333 40.667 -187 122 -299c82 -114.667 235 -175 459 -181c213.333 0 410 60.333 590 181c177.333 117.333 309.666 330.333 397 639l467 1585
c27.333 100.667 41 177 41 229c0 16.667 -1.33301 30.334 -4 41c-10.667 82 -72 135.333 -184 160c-38.667 2.66699 -90.667 4 -156 4c-16 8 -37.667 12 -65 12l24 74h918l-25 -74c-144.667 -10.667 -244.334 -50.334 -299.001 -119
c-57.333 -68 -109.333 -178.333 -156 -331l-454 -1581c-68.667 -243.333 -187.667 -455 -357 -635c-160.667 -169.333 -410.334 -254 -749.001 -254h-66c-278 10.667 -488 81.5 -630 212.5s-222.667 286.833 -242 467.5c0 158 17.667 294.333 53 409l504 1831h-373l17 74
h1167l-29 -74h-381z" />
    <glyph glyph-name="endash" horiz-adv-x="3011" 
d="M205 1450h2621l-49 -205h-2621z" />
    <glyph glyph-name="emdash" horiz-adv-x="4289" 
d="M106 889l29 176h4047l-33 -176h-4043z" />
    <glyph glyph-name="_extra2" horiz-adv-x="1683" 
d="M410 1372c0 169.333 68.002 304.669 204.002 406.002c126 90 266.667 135 422 135h41c158.667 -8 283 -53 373 -135c79.333 -74 119 -152 119 -234v-24c-11.333 -120.667 -74.333 -189 -189 -205h-16c-52 0 -93 15 -123 45c-35.333 32.667 -53 71 -53 115
c0 57.333 31.333 109 94 155c8 14 16.333 25 25 33c5.33301 5.33301 8 10.666 8 15.999c5.33301 8.66699 8 17 8 25c0 22 -13.667 46.667 -41 74c-43.333 38 -111.666 57 -204.999 57c-18.667 2.66699 -36.334 4 -53.001 4c-114.667 0 -204.667 -32.667 -270 -98
c-68.667 -68.667 -103 -146.667 -103 -234v-16c0 -62.667 23.333 -127 70 -193c40.667 -57.333 115.667 -125.333 225 -204c109.333 -71.333 205 -156 287 -254c73.333 -90 110 -189.667 110 -299v-33c0 -131.333 -58.667 -253 -176 -365
c-120 -114.667 -286.333 -173.334 -499 -176.001c-188.667 0 -329.334 42.333 -422.001 127c-93.333 82 -140 175 -140 279c0 73.333 23.333 136 70 188c38 44 79 66 123 66h25c46 0 86.667 -16.333 122 -49c33.333 -36 50 -81.333 50 -136c-6 -38 -19.667 -74.667 -41 -110
c-8.66699 -14 -37.334 -38.667 -86.001 -74c-19.333 -19.333 -29 -44 -29 -74v-8c19.333 -46.667 59 -82 119 -106c54.667 -24.667 123 -37 205 -37h24c144.667 10.667 251.334 50.334 320.001 119.001c65.333 68 98 141.667 98 221c0 90 -22 161 -66 213
c-18.667 38 -48.667 74.667 -90 110c-40.667 36 -80.334 69 -119.001 99c-98 76 -173 138.667 -225 188c-52 46.667 -97 104 -135 172c-38 65.333 -58.333 137.666 -61 216.999z" />
    <glyph glyph-name="trademark" horiz-adv-x="2273" 
d="M1155 2191h-344.001l4 21h111l209 840h-33c-27.333 0 -48 -1.66699 -62 -5c-128 -16 -218 -100.667 -270 -254h-20l77 279h746l-62 -279h-20c8 24.667 12 50.667 12 78s-4 56 -12 86c-19.333 54.667 -65.666 84.667 -138.999 90c-14 3.33301 -36 5 -66 5h-33l-209 -840
h115zM1966 2376l397 696h250l-4 -20h-115l-208 -840h114l-4 -21h-344l4 21h111l209 831l-500 -868h-12l-78 872l-172 -688c-8 -35.333 -12 -62.666 -12 -82v-16c2.66699 -24.667 23 -41 61 -49h29h8l-4 -21h-262l4 21c73.333 2.66699 122.333 50.334 147 143l172 697h-110
l4 20h254z" />
    <glyph glyph-name="Atilde" horiz-adv-x="1094" 
d="M127 45h-82l647 954v967h70l270 -967z" />
    <glyph glyph-name="ydieresis" unicode="&#xa1;" horiz-adv-x="3011" 
d="M1884 958l791 1336c57.333 106.667 98.333 192.667 123 258c16 40.667 24 78.667 24 114c0 19.333 -2.66699 38.666 -8 58c-22 103.333 -97 155 -225 155h-115l16 74h955l-37 -74c-90 0 -165.167 -19 -225.5 -57s-110.833 -84.333 -151.5 -139
c-40.667 -57.333 -99.334 -150.333 -176.001 -279l-1114 -1863c-101.333 -174.667 -208 -315.334 -320 -422.001s-248.333 -160 -409 -160c-109.333 0 -205 26 -287 78c-84.667 52 -149 121.667 -193 209c-40.667 82 -61 164 -61 246v16c8 109.333 40.667 194 98 254
s124.333 90 201 90c62.667 0 116 -22 160 -66c40.667 -43.333 62.334 -92.333 65.001 -147c0 -92.667 -53 -166.334 -159 -221.001c-11.333 -5.33301 -29.333 -15 -54 -29c-27.333 -13.333 -50.333 -25.666 -69 -36.999c-22 -10.667 -33 -38 -33 -82v-8
c0 -49.333 32.667 -99.666 98 -150.999c68.667 -54.667 156 -82 262 -82c106.667 8 209.167 53 307.5 135s174.833 185.667 229.5 311l-426 2404h-438l41 74h1130l-33 -74h-335zM3092 3564l74.001 -66c-142 -131.333 -297.667 -239.333 -467 -324
c-155.333 -76 -305.333 -114 -450 -114h-41c-128.667 8 -228.334 47.333 -299.001 118c-74 68.667 -111 144 -111 226c0 65.333 23.333 122.666 70 172c43.333 46 103.333 69 180 69c62.667 0 111.667 -20.333 147 -61c30.667 -32.667 46 -68 46 -106
c0 -8.66699 -1.66699 -17 -5 -25c0 -35.333 -9.33301 -66.666 -28 -94c-5.33301 -14 -26 -37.333 -62 -70c-27.333 -8 -41 -21.667 -41 -41c0 -22 12.333 -42.333 37 -61c22 -22 57.667 -33 107 -33c106 0 232.833 31.333 380.5 94s301.834 168 462.5 316z" />
    <glyph glyph-name="Ydieresis" unicode="&#xa2;" horiz-adv-x="2028" 
d="M1511 1884l278.999 0.000976562l-479 -1638c-93.333 -322.667 -211 -589 -353 -799c-144.667 -210 -341 -322 -589 -336h-17c-128 0 -231.667 39.667 -311 119c-79.333 74 -119 156 -119 246v16c2.66699 60 24.667 107.667 66 143c40.667 33.333 87 50 139 50
c10.667 2.66699 21.667 4 33 4c43.333 0 78.666 -13.667 105.999 -41c32.667 -36 49 -73 49 -111c2.66699 -10.667 4 -20.334 4 -29.001c0 -62.667 -32.667 -106.334 -98 -131.001c-8 -5.33301 -19 -10.666 -33 -15.999c-13.333 -5.33301 -24 -10.666 -32 -15.999
c-8.66699 0 -13 -3 -13 -9c-2.66699 -8 -4 -14.667 -4 -20c-2.66699 -5.33301 -4 -10.666 -4 -15.999c0 -24.667 20.667 -50.667 62 -78c35.333 -24.667 76 -37 122 -37c16.667 0 33.334 1.33301 50.001 4c166 13.333 294.333 91 385 233c87.333 142 173.333 340 258 594
c16 57.333 32.333 112 49 164c16 49.333 36.333 121.666 61 216.999c5.33301 22 12.333 44 21 66c5.33301 19.333 8 37 8 53c-27.333 -35.333 -52 -72 -74 -110c-27.333 -24.667 -62.666 -63 -105.999 -115l-135 -144c-118 -106 -242.333 -166 -373 -180
c-128.667 0 -227 57.333 -295 172c-38 60 -57 139.333 -57 238c0 87.333 15 189.666 45 306.999l299 1114h-365l16 74l644 12l-381 -1388c-33.333 -104 -50 -188.667 -50 -254c0 -126 57.667 -189 173 -189c84 0 176.667 46.5 278 139.5s197 215.833 287 368.5
c90 150 155.333 293.333 196 430zM1896 2769l53.999 -57.001c-84.667 -114.667 -194 -222.667 -328 -324c-136.667 -101.333 -281.334 -156 -434.001 -164c-117.333 0 -210.333 32.667 -279 98c-68 63.333 -102 140 -102 230c0 65.333 21.667 118.666 65 160
c44 40.667 90.667 61 140 61c10.667 2.66699 21.334 4 32.001 4c24.667 0 48 -5.33301 70 -16c27.333 -16.667 49.333 -40 66 -70c13.333 -24.667 20 -54.667 20 -90v-16c0 -49.333 -34 -91.666 -102 -126.999c-19.333 -8.66699 -35.666 -13 -48.999 -13
c-6 -16 -9 -33.667 -9 -53c0 -46.667 53.333 -74 160 -82c92.667 0 200.667 34.333 324 103c122.667 65.333 246.667 184 372 356z" />
    <glyph glyph-name="lozenge" unicode="&#xa3;" horiz-adv-x="1671" 
d="M782 -672l-37 58.001c104 57.333 220.333 140.333 349 249c128 109.333 192 199.666 192 270.999c0 32.667 -12.333 55.667 -37 69c-5.33301 6 -20.333 9 -45 9c-49.333 0 -98.333 16.333 -147 49c-52 30 -78 86 -78 168c0 57.333 21.667 109 65 155
c41.333 44 94.666 67.333 159.999 70h33c62.667 0 117.334 -20.333 164.001 -61c52 -52 79.333 -120.333 82 -205v-25c0 -128 -54.667 -263 -164 -405c-120 -153.333 -299 -287.333 -537 -402zM-90 -671.999l-41 69.999c68 32.667 141.667 79 221 139
c79.333 57.333 151.666 121.666 216.999 192.999c62.667 68 94 126.667 94 176c0 10.667 -1.33301 20 -4 28c-2.66699 8.66699 -6.66699 18.334 -12 29.001c-8 11.333 -12 18.333 -12 21h-54c-144.667 24 -217 96.333 -217 217c6 62.667 28 117.167 66 163.5
s88.333 70.833 151 73.5h33c62.667 0 118.667 -23 168 -69c57.333 -54.667 87.333 -121.667 90 -201v-25c0 -73.333 -23 -155 -69 -245c-52 -101.333 -130 -199.666 -234 -294.999c-103.333 -96 -235.666 -187.667 -396.999 -275z" />
    <glyph glyph-name="caron" unicode="&#xa4;" horiz-adv-x="3703" 
d="M647 3592l249.995 193.001l459 -615c114.667 82 252.334 151.667 413.001 209c145.333 44 289 67.333 431 70c117.333 0 248.333 -23.333 393 -70c125.333 -49.333 230.333 -119 315 -209l762 615l152 -193l-770 -610c48.667 -95.333 85.334 -218.333 110.001 -369v-37
c0 -112 -11 -236 -33 -372c-32.667 -123.333 -90 -257.333 -172 -402c-68 -112 -165 -233.333 -291 -364l467 -615l-249 -196l-459 618c-128.667 -92.667 -266.667 -159.667 -414 -201c-147.333 -46 -290.666 -69 -429.999 -69c-144.667 0 -275.667 23 -393 69
c-117.333 38.667 -222.666 105.667 -315.999 201l-761 -618l-152 196l774 615c-57.333 100.667 -95.666 222 -114.999 364c-2.66699 24.667 -4 50.667 -4 78c0 95.333 12.333 203.333 37 323.999c30 133.333 87.333 269.666 172 409c74 136.667 172.333 259.667 295 369z
M2744 2888c-125.333 182.667 -327.333 276.666 -606 281.999c-270 0 -521.333 -94 -754 -282c-232 -186 -380.667 -410 -446 -672c-22 -84.667 -33 -165.334 -33 -242c0 -163.333 48 -310.666 144 -441.999c128 -186 331.333 -279 610 -279c262 0 511.667 93 749 279
c230 188.667 380.333 416.667 451 684c22 82 33 159.667 33 233c0 164 -49.333 310.333 -148 439z" />
    <glyph glyph-name="brokenbar" unicode="&#xa6;" horiz-adv-x="1499" 
d="M373 -819l-172 -8l1159 4649l176 4z" />
    <glyph glyph-name="section" unicode="&#xa7;" horiz-adv-x="2261" 
d="M987 1868c-87.333 169.333 -131.001 323.669 -131.001 463.002v16c0 174.667 68.333 329 205 463c142 139.333 314 209 516 209c109.333 0 206.333 -23.333 291 -70s148.667 -106.667 192 -180c38.667 -65.333 58 -132.333 58 -201v-24
c-8.66699 -79.333 -36 -145 -82 -197c-49.333 -54.667 -112.333 -82 -189 -82c-62.667 0 -110.334 20.667 -143.001 62c-32.667 38 -51.667 83 -57 135c0 95.333 43.667 163.333 131 204c16 14 32.333 25 49 33c13.333 8.66699 24.333 17 33 25
c5.33301 10.667 9.33301 21.5 12 32.5s4 20.5 4 28.5c-16.667 101.333 -102.667 152 -258 152c-136.667 0 -254 -48 -352 -144c-101.333 -98 -152 -209.667 -152 -335c0 -98.667 27.333 -208 82 -328c92.667 -164 161 -278.667 205 -344
c125.333 -204.667 216.666 -376.667 273.999 -516c49.333 -123.333 74 -242.333 74 -357v-49c-8 -155.333 -61.333 -285 -160 -389c-98 -104 -210 -158.667 -336 -164c-82 0 -138 11 -168 33c8.66699 -13.333 15.667 -28.333 21 -45
c2.66699 -16.667 5.33398 -30.334 8.00098 -41.001c38 -131.333 60 -228.333 66 -291v-33c0 -166 -60.333 -313.333 -181 -442c-130.667 -136.667 -298.334 -205 -503.001 -205c-161.333 0 -288.333 48 -381 144c-84.667 84.667 -127 172 -127 262v33
c0 62.667 23 124 69 184c44 57.333 101.333 86 172 86c60 -5.33301 110.667 -30 152 -74c32.667 -35.333 49 -75 49 -119c0 -10.667 -1.33301 -21.334 -4 -32.001c-2.66699 -41.333 -11 -70 -25 -86c-16 -19.333 -44.667 -45.333 -86 -78
c-13.333 0 -29.666 -9.66699 -48.999 -29c-18.667 -16 -28 -32.333 -28 -49c0 -8 1.33301 -16.333 4 -25c0 -32.667 23 -62.667 69 -90c44 -27.333 105.667 -41 185 -41c150 16.667 257.667 64.667 323 144c66 78.667 99 172.667 99 282c0 76.667 -18 162.667 -54 258
c-27.333 84.667 -98.333 229.667 -213 435c-125.333 220.667 -208.666 389.667 -249.999 507c-43.333 118 -65 241 -65 369c8 156 53 277.667 135 365c82 84.667 179 133.667 291 147c16 2.66699 40.667 4 74 4h73l49 -8c16.667 -5.33301 26.334 -8 29.001 -8zM589.999 1503
c0 -65.333 20.333 -165.001 61 -299.001c19.333 -43.333 49.333 -104.666 90 -183.999l107 -229c54.667 -120.667 105 -204 151 -250c74 -106.667 156 -160 246 -160c92.667 0 165 35.333 217 106c49.333 68.667 74 148 74 238c0 82 -23.333 185.667 -70 311
c-48.667 123.333 -108.667 245 -180 365c-73.333 120 -154 221 -242 303c-78.667 70.667 -149.667 106 -213 106h-16c-62.667 -8 -116 -40.667 -160 -98c-43.333 -57.333 -65 -127 -65 -209z" />
    <glyph glyph-name="guilsinglright" unicode="&#xa8;" horiz-adv-x="2814" 
d="M1430 3367c0 68 22.998 125.333 68.998 172c46.667 46.667 101.334 70 164.001 70s115.834 -24.667 159.501 -74s65.5 -105.333 65.5 -168c0 -54.667 -21.667 -105.334 -65 -152c-44 -46 -97.333 -69 -160 -69c-60 0 -113.333 23 -160 69c-48.667 44 -73 94.667 -73 152z
M2458 3367c0 68 21.667 125.333 65 172c44 46.667 97.333 70 160 70c73.333 0 132 -23.333 176 -70c40.667 -46.667 61 -104 61 -172c0 -57.333 -20.333 -108 -61 -152c-44 -46 -102.667 -69 -176 -69c-60 0 -112 23 -156 69c-46 44 -69 94.667 -69 152zM1393 1569
l270 0.000976562c186 0 332 47.667 438 143c104 92.667 190 238.667 258 438h82l-397 -1314h-78c41.333 106 62 211 62 315c0 35.333 -3 70.666 -9 105.999c-40.667 153.333 -163.334 230 -368.001 230h-283l-434 -1397h496c174.667 0 334.334 11 479.001 33
c142 19.333 292 83.333 450 192c156 109.333 268 283 336 521h82l-250 -836h-2388l37 90h373l831 2777h-381l29 74h2110l-185 -819h-86c19.333 95.333 29 180 29 254c0 100.667 -17.667 184 -53 250c-63.333 108.667 -145.333 176.667 -246 204
c-104 24.667 -222.667 37 -356 37h-463z" />
    <glyph glyph-name="copyright" unicode="&#xa9;" horiz-adv-x="3969" 
d="M238 1614c54 224 150.667 440.999 290 650.999c136.667 207.333 304.667 393 504 557c196.667 164 418 293.667 664 389c242.667 96 487 144 733 144c330.667 0 607.667 -80.667 831 -242c221.333 -164 374.333 -378.333 459 -643c44 -136.667 66 -278.667 66 -426
c0 -139.333 -19.333 -282.666 -58 -429.999c-78.667 -308.667 -224.667 -595.334 -438 -860.001c-215.333 -268 -474.666 -482.333 -778 -643c-306 -161.333 -622.667 -242 -950 -242c-333.333 0 -613.333 80.667 -840 242c-229.333 160.667 -386.333 376.334 -471 647.001
c-44 142 -66 288 -66 438c0 136.667 18 276 54 418zM397 1614c-35.333 -142 -53.001 -278.667 -53.001 -410c0 -144.667 22 -281 66 -409c84.667 -246 233.334 -438.667 446.001 -578c210 -142 455.667 -213 737 -213c218.667 0 438.667 43.667 660 131
c218 84.667 421.333 206.334 610 365.001c186 155.333 341.667 327.333 467 516c122.667 188 208.667 387.333 258 598c32.667 128 49 253.667 49 377c0 139.333 -20.333 274.333 -61 405c-79.333 246 -222.666 444 -429.999 594c-208 147.333 -459.333 221 -754 221
c-226.667 0 -446.334 -42.333 -659.001 -127c-216 -84.667 -417 -203.334 -603 -356.001c-185.333 -156 -340.833 -329.5 -466.5 -520.5s-214.5 -388.833 -266.5 -593.5zM2720 2040l-45.001 0.00292969c2.66699 24.667 4 49.334 4 74.001c0 111.333 -26 220.333 -78 327
c-60 120 -174.667 180 -344 180h-41c-382.667 -40.667 -649 -384.667 -799 -1032c-40.667 -190.667 -61 -350.334 -61 -479.001c-2.66699 -131.333 17.666 -232.333 60.999 -303c84.667 -139.333 200.667 -209 348 -209h17c139.333 0 282.666 58.667 429.999 176
c152.667 120 274 277 364 471h58l-197 -659h-53c2.66699 13.333 4 25.666 4 36.999c0 13.333 -2.66699 24 -8 32c-14 11.333 -33.333 21 -58 29c-5.33301 2.66699 -10.666 4 -16 4c-30 0 -73.667 -16.333 -131 -49c-117.333 -57.333 -263.333 -86 -438 -86h-17
c-202 0 -361.667 46.333 -479 139c-122.667 96 -199 223 -229 381c-11.333 62.667 -17 127 -17 193c0 95.333 12.333 193.666 37 294.999c62.667 284 203.334 537.667 422.001 761c218.667 221.333 479.334 337.666 782.001 349c19.333 2.66699 41.333 4 66 4
c46.667 0 105.334 -4.33301 176 -13c8 0 29.833 -6.83301 65.5 -20.5s65.834 -20.5 90.501 -20.5c8 -13.333 34 -20 78 -20c60 19.333 90 42.666 90 69.999h45z" />
    <glyph glyph-name="guillemotleft" unicode="&#xab;" horiz-adv-x="1782" 
d="M1090 1966h73l-635 -958v-963h-69l-271 963zM1712 1815h62l-537 -807v-832h-74l-237 832z" />
    <glyph glyph-name="logicalnot" unicode="&#xac;" horiz-adv-x="1413" 
d="M119 877l49 176h1089l-40 -176h-1098z" />
    <glyph glyph-name="softhyphen" unicode="&#xad;" horiz-adv-x="2568" 
d="M-102 -631h2572l-49 -209h-2573z" />
    <glyph glyph-name="registered" unicode="&#xae;" horiz-adv-x="2851" 
d="M369 2253c54.667 210 156.999 409.333 306.999 598c150 185.333 333 335.333 549 450c212.667 114.667 432.334 172 659.001 172c344 0 602 -121.333 774 -364c112 -161.333 168 -341.666 168 -541c0 -100.667 -13.667 -205.667 -41 -315
c-52 -210.667 -153 -410 -303 -598c-152.667 -188.667 -335.667 -339 -549 -451c-212.667 -112 -431 -168 -655 -168c-344 0 -600.667 121.667 -770 365c-117.333 164 -176 348.333 -176 553c0 95.333 12.333 195 37 299zM536.999 2253
c-22 -92.667 -32.998 -181.334 -32.998 -266.001c0 -178 49 -338 147 -480c147.333 -210 370 -315 668 -315c185.333 0 369.666 47.667 552.999 143c182.667 96 342.334 224.333 479 385c134 158.667 225.667 336.334 275 533.001c21.333 84.667 32 168 32 250
c0 90 -13.667 178.667 -41 266c-48.667 161.333 -141.334 291 -278.001 389s-302 147 -496 147c-196.667 0 -386.334 -49 -569.001 -147c-186 -98 -344.333 -227.667 -475 -389c-131.333 -164 -218.666 -336 -261.999 -516zM1217 1626h163.002l-12 -41h-602l12 41h156
l311 1241h-155l8 33h581c175.333 0 310.666 -19 405.999 -57c76.667 -30 115 -84.667 115 -164c0 -19.333 -3 -41.333 -9 -66c-43.333 -180 -208.333 -286.333 -495 -319l-4 -13c139.333 -26.667 224 -67.334 254 -122c21.333 -46.667 32 -101.334 32 -164.001v-41
c-5.33301 -22 -12 -79.333 -20 -172c-8 -35.333 -12 -65.333 -12 -90c0 -36 9.33301 -56.667 28 -62v0l29 12c19.333 8.66699 31.666 13 36.999 13c30 22 50.333 35.667 61 41l8 -29c-70.667 -65.333 -156.667 -98 -258 -98c-60 0 -106.333 8 -139 24
c-32.667 16.667 -51.667 49.667 -57 99c-2.66699 21.333 -4 44.333 -4 69c0 32.667 2.66699 68.334 8 107.001c2.66699 22 15 78 37 168c2.66699 21.333 4 41.666 4 61c0 62.667 -11 105 -33 127c-27.333 27.333 -76.333 41 -147 41h-144zM1384 2306h115
c98.667 0 178 20.333 238 61c60 38.667 105 120.667 135 246c10.667 44 16 82.333 16 115c0 38 -8 66.667 -24 86c-32.667 35.333 -99.667 53 -201 53h-135z" />
    <glyph glyph-name="integral" unicode="&#xaf;" horiz-adv-x="1659" 
d="M1270 2867h-381l29 74h1159l-29 -74h-381l-749 -2777h368l-29 -90h-1134l16 90h369zM852 3367c0 68 23.167 125.333 69.5 172s100.833 70 163.5 70c63.333 0 116.666 -24.667 159.999 -74c44 -49.333 66 -105.333 66 -168c0 -54.667 -22 -105.334 -66 -152
c-43.333 -46 -96.666 -69 -159.999 -69c-60 0 -113 23 -159 69c-49.333 44 -74 94.667 -74 152zM1880 3367c0 68 21.832 125.333 65.499 172s96.834 70 159.501 70c74 0 132.667 -23.333 176 -70c41.333 -46.667 62 -104 62 -172c0 -57.333 -20.667 -108 -62 -152
c-43.333 -46 -102 -69 -176 -69c-60 0 -111.667 23 -155 69c-46.667 44 -70 94.667 -70 152z" />
    <glyph glyph-name="degree" unicode="&#xb0;" horiz-adv-x="1303" 
d="M389 2613c27.333 106.667 90.334 199.667 189.001 279c98 76 200.333 114 307 114c106 0 187.667 -39.333 245 -118c36 -52 54 -109.333 54 -172c0 -33.333 -4.33301 -67.666 -13 -103c-30 -112 -91.333 -204.833 -184 -278.5s-192.334 -110.5 -299.001 -110.5
s-188.667 39.667 -246 119c-43.333 57.333 -65 118.666 -65 184c0 27.333 4 56 12 86zM500.001 2613c-5.33301 -24.667 -7.99902 -47.667 -7.99902 -69c0 -49.333 15 -93 45 -131c43.333 -54.667 103.333 -82 180 -82c79.333 0 154.333 28.667 225 86
c71.333 57.333 115 122.666 131 196c5.33301 24.667 8 48 8 70c0 49.333 -13.667 93 -41 131c-40.667 57.333 -102 86 -184 86c-76.667 0 -150.334 -26 -221.001 -78c-71.333 -54.667 -116.333 -124.334 -135 -209z" />
    <glyph glyph-name="plusminus" unicode="&#xb1;" horiz-adv-x="3121" 
d="M389 1462h1192l295 1184h201l-295 -1184h1179l-49 -205h-1179l-299 -1187h-201l299 1187h-1192zM33 -274h2572l-49 -209h-2572z" />
    <glyph glyph-name="germandbls" unicode="&#xb2;" horiz-adv-x="1671" 
d="M1270 2867h-381l29 74h1159l-29 -74h-381l-749 -2777h368l-29 -90h-1134l16 90h369zM1343 3391c0 68.667 23.333 126.167 70 172.5s101.334 69.5 164.001 69.5s116 -24.667 160 -74c43.333 -48.667 65 -104.667 65 -168c0 -54 -21.833 -104.333 -65.5 -151
s-96.834 -70 -159.501 -70c-60 0 -113.333 23.333 -160 70c-49.333 43.333 -74 93.666 -74 151z" />
    <glyph glyph-name="threesuperior" unicode="&#xb3;" horiz-adv-x="1167" 
d="M397 442c-32.667 -120 -49 -204.667 -49 -254c0 -10.667 1.33301 -18.667 4 -24c11.333 -68.667 40 -103 86 -103c14 0 27.667 3 41 9c136.667 30 302 262 496 696l65 -29c-98 -232 -197.667 -416.333 -299 -553c-103.333 -136 -219.333 -208.333 -348 -217h-16
c-87.333 0 -150.333 24.667 -189 74c-40.667 52 -63.667 102.667 -69 152c-2.66699 30 -4 61.333 -4 94c0 79.333 10.667 169.333 32 270l345 1241h-386l17 86h655zM565 2585c0 54 19.168 98.833 57.501 134.5s80.833 53.5 127.5 53.5c38 0 72 -8.33301 102 -25
c27.333 -18.667 50.666 -41.667 69.999 -69c16 -27.333 24 -58.666 24 -94c0 -54.667 -17.667 -100 -53 -136c-38 -38 -85.667 -57 -143 -57c-46.667 0 -89 19 -127 57c-38.667 38.667 -58 84 -58 136z" />
    <glyph glyph-name="acute.0" unicode="&#xb4;" 
d="M729 1999l-37 69c92.667 41.333 204.667 113.833 336 217.5s197 191.167 197 262.5c0 27.333 -12.333 53.333 -37 78h-49c-142 21.333 -213 93.666 -213 217c0 60 20.333 114.333 61 163c38 46.667 88.667 71.334 152 74h24c71.333 0 131.333 -23 180 -69
c52 -52 81 -119 87 -201c0 -128.667 -64.333 -268 -193 -418c-128.667 -152.667 -298 -283.667 -508 -393z" />
    <glyph glyph-name="paragraph" unicode="&#xb6;" horiz-adv-x="2482" 
d="M1356 2884h1032l-41 -160h-287l-680 -2724h-180l680 2724h-422l-680 -2724h-184l332 1327c-254 14 -439.667 90.333 -557 229c-76.667 98.667 -115 215 -115 349c0 60 8.33301 125.333 25 196c57.333 232 184 422 380 570c196.667 142 429 213 697 213z" />
    <glyph glyph-name="bullet" unicode="&#xb7;" horiz-adv-x="1032" 
d="M98 1503c30 114.667 95.668 214.334 197.001 299.001c100.667 82 212.667 123 336 123c117.333 0 204.666 -41 261.999 -123c38 -54.667 57 -117.334 57 -188.001c0 -35.333 -5.33301 -72.333 -16 -111c-30 -114.667 -94.333 -213 -193 -295
c-98 -84.667 -205.667 -127 -323 -127c-120 0 -210.333 41 -271 123c-43.333 54.667 -65 117.667 -65 189c0 35.333 5.33301 72 16 110z" />
    <glyph glyph-name="fi" unicode="&#xb8;" horiz-adv-x="1720" 
d="M733 2585c0 54 19.167 98.833 57.5 134.5s80.833 53.5 127.5 53.5c62.667 0 111.667 -17.667 147 -53c32.667 -36 49 -81 49 -135c0 -57.333 -17.667 -104 -53 -140c-35.333 -35.333 -83 -53 -143 -53c-46.667 0 -89 19 -127 57c-38.667 38.667 -58 84 -58 136z
M1487 2585c0 54 17.668 98.833 53.001 134.5s77.666 53.5 126.999 53.5c57.333 0 105 -17.667 143 -53c38.667 -36 58 -81 58 -135c0 -54.667 -19.333 -100 -58 -136c-40.667 -38 -88.334 -57 -143.001 -57c-49.333 0 -91.666 19 -126.999 57c-35.333 38.667 -53 84 -53 136
zM1430 565l57.001 -37.001c-104 -163.333 -228.333 -295.666 -373 -396.999c-147.333 -100.667 -292 -155.334 -434 -164.001h-33c-158 0 -290.333 61.5 -397 184.5s-160 281.5 -160 475.5v24c5.33301 191.333 62.666 382.666 171.999 573.999
c106.667 190.667 247.334 353 422.001 487c174.667 131.333 346.667 198.333 516 201h17c122.667 0 218 -35.667 286 -107c71.333 -73.333 107 -160.666 107 -261.999c0 -142 -89 -278.333 -267 -409c-180 -134 -481.667 -210.667 -905 -230
c-65.333 -226.667 -99.333 -372.667 -102 -438c0 -161.333 41 -270.666 123 -327.999c79.333 -57.333 162.666 -86 249.999 -86c100.667 0 207 35.5 319 106.5s215.667 165.167 311 282.5c2.66699 8.66699 26 37.334 70 86.001c0 6 4 13 12 21c6 5.33301 9 10.666 9 15.999z
M455.002 990.999l16 0.000976562c254 0 460.333 58.667 619 176c160.667 117.333 245 260.666 253 429.999c3.33301 24.667 5 46.667 5 66c0 76.667 -20.667 125.667 -62 147c-38 19.333 -76.333 29 -115 29c-13.333 0 -27 -1.33301 -41 -4
c-141.333 -8 -272.333 -98 -393 -270c-122.667 -172 -216.667 -363.333 -282 -574z" />
    <glyph glyph-name="guilsinglleft" unicode="&#xb9;" horiz-adv-x="4669" 
d="M2703 586l463.002 1761c57.333 191.333 131 353.666 221 487c79.333 118 207.666 177 385 177c22 0 45.333 -1.66699 70 -5c134 -10.667 240.667 -62.334 320 -155c76 -92.667 114 -195 114 -307c0 -101.333 -28.666 -186.166 -86 -254.5
c-57.333 -68.333 -127 -102.5 -209 -102.5h-16c-49.333 0 -93 18 -131 54c-44 38 -66 88.333 -66 151v16c0 57.333 24.667 114.666 74 172c10.667 8.66699 28.334 18.334 53 29c24.667 8 46.667 16.167 66 24.5s37 15.166 53 20.5l45 37c11.333 8 18.333 20.333 21 37
c0 5.33301 -1.33301 10.666 -4 16c0 44 -24.667 85 -74 123c-52 35.333 -115 54.666 -189 58h-16c-114.667 0 -207.667 -31.667 -279 -95c-73.333 -68 -127.666 -145.667 -163 -233c-38.667 -87.333 -67.334 -176 -86.001 -266l-631 -2384h-94l-820 2568l-507 -1929
c-118 -426 -327 -639 -627 -639c-126 0 -225.667 42.333 -299 127c-76.667 84.667 -121.667 184.334 -135 299.001v45c0 117.333 28.667 215.666 86 294.999c65.333 90 148.666 139 249.999 147h24c52 0 99.667 -16.333 143 -49c49.333 -38 74 -95.333 74 -172
c0 -112 -49 -183 -147 -213c-19.333 -8 -72.666 -17.667 -159.999 -29c-32.667 -16 -57.334 -31 -74.001 -45c-13.333 -10.667 -20 -31 -20 -61c0 -14 1.33301 -29 4 -45c0 -54.667 24.5 -106.667 73.5 -156s115.833 -74 200.5 -74c144.667 2.66699 256.667 63 336 181
c76.667 114.667 138 262 184 442l533 2077c0 24.667 -15 54.667 -45 90c-30 32.667 -80.667 49 -152 49h-315l29 86h786zM3351 1057c10.667 182.667 81.667 335.668 213 459.001c122.667 111.333 248 167 376 167h25c100.667 -10.667 188 -54.334 262 -131.001
c68 -73.333 102 -174.333 102 -303v-16c0 -126 -27 -240.667 -81 -344c-57.334 -104 -132.667 -184.667 -226 -242c-87.333 -54.667 -178.666 -82 -274 -82h-17c-120 0 -215.333 46.667 -286 140c-62.667 81.333 -94 185 -94 311v41zM4039 213.001l-58 -213h-794l53 213h799
zM3547 807.001c14 -109.333 75.333 -169.334 184 -180.001h9c68 0 130.667 30 188 90c60 62.667 109.333 150 148 262c35.334 112 55.667 237.667 61 377c0 164 -57.333 246 -172 246h-25c-76 0 -145.667 -42.333 -209 -127c-68 -93.333 -118.333 -206.666 -151 -339.999
c-24.667 -101.333 -37 -187.333 -37 -258c0 -24.667 1.33301 -48 4 -70z" />
    <glyph glyph-name="guillemotright" unicode="&#xbb;" horiz-adv-x="1942" 
d="M877 33h-82l647 954v967h69l271 -967zM250 180h-53l536 807v836h62l237 -836z" />
    <glyph glyph-name="divide" unicode="&#xbc;" horiz-adv-x="1438" 
d="M119 889l49 176h1089l-40 -176h-1098zM360 205c0 68 22 123.832 66 167.499s97.333 65.5 160 65.5s115.667 -24.333 159 -73c41.333 -49.333 62 -102.666 62 -159.999s-22 -109.333 -66 -156c-43.333 -46 -95 -69 -155 -69c-66 0 -119.333 20.333 -160 61
c-44 38 -66 92.667 -66 164zM573 1765c0 71.333 22.001 127.333 66.001 168c44 41.333 97.333 62 160 62c65.333 0 120 -22 164 -66c43.333 -46 65 -100.667 65 -164c0 -54.667 -21.667 -105 -65 -151c-46.667 -49.333 -101.334 -74 -164.001 -74c-60 0 -112 23.333 -156 70
c-46.667 43.333 -70 95 -70 155z" />
    <glyph glyph-name="dieresis" unicode="&#xbd;" horiz-adv-x="2580" 
d="M139 520l1049 844l-631 836l180 139l631 -832l1045 832l106 -144l-1044 -835l630 -840l-180 -143l-622 844l-1057 -844z" />
    <glyph glyph-name="ellipsis" unicode="&#xbe;" horiz-adv-x="2298" 
d="M1753 205c0 68 21.832 123.833 65.499 167.5s96.834 65.5 159.501 65.5c46.667 0 86.334 -12.333 119.001 -37c32.667 -24 58.667 -52.667 78 -86c16.667 -35.333 25 -72 25 -110c0 -60 -19.333 -112 -58 -156c-40.667 -46 -95.334 -69 -164.001 -69
c-65.333 0 -118.333 20.333 -159 61c-44 38 -66 92.667 -66 164zM933.999 205c0 68 21.666 124 64.999 168c44 43.333 97.333 65 160 65c46.667 0 86.334 -12.333 119.001 -37c32.667 -24 58.667 -52.667 78 -86c16 -35.333 24 -72 24 -110c0 -60 -19 -112 -57 -156
c-40.667 -46 -95.334 -69 -164.001 -69c-65.333 0 -118.666 20.333 -159.999 61c-43.333 38 -65 92.667 -65 164zM114.998 205c0 68 21.665 124 64.998 168c44 43.333 97.333 65 160 65c46.667 0 86.334 -12.333 119.001 -37c32.667 -24 58.667 -52.667 78 -86
c16 -35.333 24 -72 24 -110c0 -60 -19 -112 -57 -156c-41.333 -46 -96 -69 -164 -69c-65.333 0 -118.666 20.333 -159.999 61c-43.333 38 -65 92.667 -65 164z" />
    <glyph glyph-name="ordfeminine" unicode="&#xbf;" horiz-adv-x="1204" 
d="M397 442c-32.667 -120 -49 -204.667 -49 -254c0 -10.667 1.33301 -18.667 4 -24c11.333 -68.667 40 -103 86 -103c14 0 27.667 3 41 9c136.667 30 302 262 496 696l65 -29c-98 -232 -197.667 -416.333 -299 -553c-103.333 -136 -219.333 -208.333 -348 -217h-16
c-87.333 0 -150.333 24.667 -189 74c-40.667 52 -63.667 102.667 -69 152c-2.66699 30 -4 61.333 -4 94c0 79.333 10.667 169.333 32 270l345 1241h-386l17 86h655zM193 2548c0 54.667 19 99.667 57 135s80.333 53 127 53c62.667 0 111.667 -17.667 147 -53
c32.667 -35.333 49 -80.333 49 -135c0 -57.333 -17.667 -104 -53 -140c-35.333 -35.333 -83 -53 -143 -53c-46.667 0 -89 19.167 -127 57.5s-57 83.5 -57 135.5zM946 2548c0 54.667 17.668 99.667 53.001 135c36 35.333 78.333 53 127 53
c57.333 0 105.166 -17.667 143.499 -53s57.5 -80.333 57.5 -135s-19 -99.667 -57 -135c-41.333 -38.667 -89.333 -58 -144 -58c-48.667 0 -91 19.333 -127 58c-35.333 38 -53 83 -53 135z" />
    <glyph glyph-name="Adieresis" unicode="&#xc0;" horiz-adv-x="3146" 
d="M2347 2941l111 -0.000976562l114 -2851h402l-21 -90h-1134l16 90h352l-24 799h-1065l-221 -344c-16.667 -16.667 -40 -61.667 -70 -135c-24.667 -57.333 -37 -105.333 -37 -144c0 -13.333 1.33301 -25.666 4 -36.999c2.66699 -24 23.334 -55.333 62.001 -94
c30 -24.667 107.667 -37 233 -37h33h8c5.33301 -2.66699 9.33301 -2.66699 12 0l-16 -98h-967l8 90c145.333 22 263 69.667 353 143c87.333 74 174.666 182 261.999 324zM1151 966.999h1012l-33 1466z" />
    <glyph glyph-name="Adieresis" unicode="&#x410;" horiz-adv-x="3146" 
d="M2347 2941l111 -0.000976562l114 -2851h402l-21 -90h-1134l16 90h352l-24 799h-1065l-221 -344c-16.667 -16.667 -40 -61.667 -70 -135c-24.667 -57.333 -37 -105.333 -37 -144c0 -13.333 1.33301 -25.666 4 -36.999c2.66699 -24 23.334 -55.333 62.001 -94
c30 -24.667 107.667 -37 233 -37h33h8c5.33301 -2.66699 9.33301 -2.66699 12 0l-16 -98h-967l8 90c145.333 22 263 69.667 353 143c87.333 74 174.666 182 261.999 324zM1151 966.999h1012l-33 1466z" />
    <glyph glyph-name="Aring" unicode="&#xc1;" horiz-adv-x="2961" 
d="M2798 1982h-95c19.333 118 29 224.667 29 320c0 142 -22 256.667 -66 344c-73.333 147.333 -228.666 221 -466 221h-533l-340 -1265h569c374.667 0 626 -82 754 -246c112 -142 168 -291 168 -447c0 -21.333 -1.33301 -44.333 -4 -69
c-35.333 -333.333 -184.333 -552 -447 -656c-262 -103.333 -548.667 -163.333 -860 -180l-237 -4h-1147l16 90h381l750 2777h-369l17 74h2105zM1130 90c382.667 0 673.667 61.333 873 184c199.333 120.667 322.333 267 369 439c21.333 84.667 32 168 32 250
c0 87.333 -12.333 173.333 -37 258c-65.333 204.667 -238.666 307 -520 307h-536l-393 -1438h212z" />
    <glyph glyph-name="Aring" unicode="&#x411;" horiz-adv-x="2961" 
d="M2798 1982h-95c19.333 118 29 224.667 29 320c0 142 -22 256.667 -66 344c-73.333 147.333 -228.666 221 -466 221h-533l-340 -1265h569c374.667 0 626 -82 754 -246c112 -142 168 -291 168 -447c0 -21.333 -1.33301 -44.333 -4 -69
c-35.333 -333.333 -184.333 -552 -447 -656c-262 -103.333 -548.667 -163.333 -860 -180l-237 -4h-1147l16 90h381l750 2777h-369l17 74h2105zM1130 90c382.667 0 673.667 61.333 873 184c199.333 120.667 322.333 267 369 439c21.333 84.667 32 168 32 250
c0 87.333 -12.333 173.333 -37 258c-65.333 204.667 -238.666 307 -520 307h-536l-393 -1438h212z" />
    <glyph glyph-name="Ccedilla" unicode="&#xc2;" horiz-adv-x="2986" 
d="M528 90l799 2777h-369l17 74h1282c188.667 0 343 -27.333 463 -82c117.333 -57.333 202 -131 254 -221c48.667 -90 73 -187 73 -291c0 -125.333 -34 -241.333 -102 -348s-170.333 -198.334 -307 -275.001c-139.333 -76 -308.666 -127.667 -508 -155v-13
c207.333 -10.667 375.333 -89.667 504 -237c112 -134 168 -276 168 -426c0 -19.333 -1.33301 -38.333 -4 -57c-22 -221.333 -142.333 -415.333 -361 -582c-218.667 -169.333 -513.667 -254 -885 -254h-1425l29 90h372zM1343 90.001c128.667 0 269.332 16.332 421.999 48.999
c150.667 30 292.667 113.333 426.001 250c114.667 117.333 172 285.333 172 504c0 32.667 -1.33301 65.334 -4 98.001c-27.333 358 -254 537 -680 537h-336l-413 -1438h413zM1368 1614h299c647.333 0 980.333 248.333 999 745v17c0 204.667 -61.333 338.334 -184 401
c-128 60 -259 90 -393 90h-365z" />
    <glyph glyph-name="Ccedilla" unicode="&#x412;" horiz-adv-x="2986" 
d="M528 90l799 2777h-369l17 74h1282c188.667 0 343 -27.333 463 -82c117.333 -57.333 202 -131 254 -221c48.667 -90 73 -187 73 -291c0 -125.333 -34 -241.333 -102 -348s-170.333 -198.334 -307 -275.001c-139.333 -76 -308.666 -127.667 -508 -155v-13
c207.333 -10.667 375.333 -89.667 504 -237c112 -134 168 -276 168 -426c0 -19.333 -1.33301 -38.333 -4 -57c-22 -221.333 -142.333 -415.333 -361 -582c-218.667 -169.333 -513.667 -254 -885 -254h-1425l29 90h372zM1343 90.001c128.667 0 269.332 16.332 421.999 48.999
c150.667 30 292.667 113.333 426.001 250c114.667 117.333 172 285.333 172 504c0 32.667 -1.33301 65.334 -4 98.001c-27.333 358 -254 537 -680 537h-336l-413 -1438h413zM1368 1614h299c647.333 0 980.333 248.333 999 745v17c0 204.667 -61.333 338.334 -184 401
c-128 60 -259 90 -393 90h-365z" />
    <glyph glyph-name="Eacute" unicode="&#xc3;" horiz-adv-x="2556" 
d="M2654 1954h-86c41.333 144.667 62 273 62 385c0 352 -203.667 528 -611 528h-295l-872 -2777h541l-25 -90h-1229l17 90h299l860 2777h-410l25 74h1995z" />
    <glyph glyph-name="Eacute" unicode="&#x413;" horiz-adv-x="2556" 
d="M2654 1954h-86c41.333 144.667 62 273 62 385c0 352 -203.667 528 -611 528h-295l-872 -2777h541l-25 -90h-1229l17 90h299l860 2777h-410l25 74h1995z" />
    <glyph glyph-name="Ntilde" unicode="&#xc4;" horiz-adv-x="2961" 
d="M2245 -823c21.333 73.333 31.999 148.333 31.999 225c0 104 -19 209 -57 315c-65.333 188.667 -286.666 283 -663.999 283h-405c-246 0 -459 -53.333 -639 -160c-182.667 -106 -342.334 -327 -479.001 -663h-111l225 913c145.333 19.333 299.666 134 462.999 344
c161.333 210.667 310.333 458 447 742s247.334 565 332.001 843c81.333 268 122 466 122 594v13c0 108.667 -28.667 176.667 -86 204c-57.333 24.667 -163.666 37 -318.999 37l24 74h2118v-74h-270l-819 -2777h438l-238 -913h-114zM2572 2867h-330.999
c-210.667 0 -358.334 -45 -443.001 -135c-84.667 -92.667 -157 -234.667 -217 -426l-111 -307l-131 -373c-43.333 -130.667 -102 -283.667 -176 -459c-76 -174.667 -156.333 -344 -241 -508c-84.667 -166 -162.667 -299.667 -234 -401c-2.66699 -5.33301 -8 -15 -16 -29
c-8.66699 -13.333 -15.667 -27 -21 -41c-13.333 -13.333 -20 -31 -20 -53c10.667 -32.667 36.667 -49 78 -49h8c46 0 91 1.33301 135 4h901z" />
    <glyph glyph-name="Ntilde" unicode="&#x414;" horiz-adv-x="2961" 
d="M2245 -823c21.333 73.333 31.999 148.333 31.999 225c0 104 -19 209 -57 315c-65.333 188.667 -286.666 283 -663.999 283h-405c-246 0 -459 -53.333 -639 -160c-182.667 -106 -342.334 -327 -479.001 -663h-111l225 913c145.333 19.333 299.666 134 462.999 344
c161.333 210.667 310.333 458 447 742s247.334 565 332.001 843c81.333 268 122 466 122 594v13c0 108.667 -28.667 176.667 -86 204c-57.333 24.667 -163.666 37 -318.999 37l24 74h2118v-74h-270l-819 -2777h438l-238 -913h-114zM2572 2867h-330.999
c-210.667 0 -358.334 -45 -443.001 -135c-84.667 -92.667 -157 -234.667 -217 -426l-111 -307l-131 -373c-43.333 -130.667 -102 -283.667 -176 -459c-76 -174.667 -156.333 -344 -241 -508c-84.667 -166 -162.667 -299.667 -234 -401c-2.66699 -5.33301 -8 -15 -16 -29
c-8.66699 -13.333 -15.667 -27 -21 -41c-13.333 -13.333 -20 -31 -20 -53c10.667 -32.667 36.667 -49 78 -49h8c46 0 91 1.33301 135 4h901z" />
    <glyph glyph-name="Odieresis" unicode="&#xc5;" horiz-adv-x="2728" 
d="M1393 1569l270.001 0.000976562c186 0 332 47.667 438 143c104 92.667 190 238.667 258 438h82l-397 -1314h-78c41.333 106 62 211 62 315c0 35.333 -3 70.666 -9 105.999c-40.667 153.333 -163.334 230 -368.001 230h-283l-422 -1397h484c262 0 515.667 42.333 761 127
c243.333 84.667 411.333 291 504 619h82l-250 -836h-2388l37 90h373l831 2777h-381l29 74h2110l-185 -819h-86c19.333 95.333 29 180 29 254c0 100.667 -17.667 184 -53 250c-63.333 108.667 -145.333 176.667 -246 204c-104 24.667 -222.667 37 -356 37h-463z" />
    <glyph glyph-name="Odieresis" unicode="&#x415;" horiz-adv-x="2728" 
d="M1393 1569l270.001 0.000976562c186 0 332 47.667 438 143c104 92.667 190 238.667 258 438h82l-397 -1314h-78c41.333 106 62 211 62 315c0 35.333 -3 70.666 -9 105.999c-40.667 153.333 -163.334 230 -368.001 230h-283l-422 -1397h484c262 0 515.667 42.333 761 127
c243.333 84.667 411.333 291 504 619h82l-250 -836h-2388l37 90h373l831 2777h-381l29 74h2110l-185 -819h-86c19.333 95.333 29 180 29 254c0 100.667 -17.667 184 -53 250c-63.333 108.667 -145.333 176.667 -246 204c-104 24.667 -222.667 37 -356 37h-463z" />
    <glyph glyph-name="Udieresis" unicode="&#xc6;" horiz-adv-x="4239" 
d="M1724 0l-384.997 -0.00195312l17 90h393l434 1401c-57.333 5.33301 -112 8 -164 8c-185.333 0 -332.666 -34 -441.999 -102c-142 -90 -252.667 -210.333 -332 -361c-38 -76 -100.667 -223.333 -188 -442c-98.667 -232 -214.667 -400 -348 -504
c-120.667 -95.333 -291.334 -143 -512.001 -143h-70v69c117.333 0 226.666 59 327.999 177c73.333 106 138.666 249.333 195.999 430c117.333 357.333 300.333 607 549 749c52 27.333 165.333 71 340 131c14 0 27.667 2.66699 41 8c14 3.33301 33 9 57 17l13 16
c-150.667 38.667 -235.334 152 -254.001 340c0 46.667 20.333 139.667 61 279l123 340c5.33301 62.667 8 110.334 8 143c0 22 -1.33301 37 -4 45c0 139.333 -68.333 209 -205 209c-13.333 2.66699 -25.666 4 -36.999 4c-32.667 0 -61.334 -8.33301 -86.001 -25
c-35.333 -24 -53 -49.667 -53 -77l17 -21c8 -13.333 12 -25.666 12 -37c13.333 -8 25.666 -14.667 36.999 -20c8 -8 21.667 -19 41 -33c46 -46.667 69 -100 69 -160c0 -68 -21.667 -122.667 -65 -164c-44 -40.667 -98.667 -61 -164 -61c-60 0 -113.333 23.333 -160 70
c-48.667 43.333 -73 102 -73 176c0 109.333 45 213 135 311c90 95.333 196.333 143 319 143c96 0 176.667 -27 242 -81c62.667 -57.333 94 -140.666 94 -249.999c0 -112 -42.333 -297.667 -127 -557c-40.667 -93.333 -61 -176.666 -61 -249.999v-33
c2.66699 -8 13.334 -35.333 32.001 -82c19.333 -49.333 56.333 -91.666 111 -126.999c52 -35.333 129.667 -53 233 -53h316l385 1294h-385l33 74h1171l-41 -74h-381l-385 -1294h258c128.667 0 243.334 26 344 78c101.333 48.667 188.666 140 262 274
c36 62.667 63.333 117.334 82 164.001c16.667 46.667 37.334 115 62 205c24.667 87.333 42.334 146 53 176c49.333 144.667 112 270.334 188 377c76.667 103.333 188.667 156.333 336 159c96 0 179.334 -27 250 -81c68.666 -54.667 104.333 -132.667 107 -234
c0 -95.333 -26 -178.666 -78 -250c-54.666 -73.333 -128.333 -114.333 -221 -123c-66 0 -118 19.167 -156 57.5s-60 84.833 -66 139.5v25c0 35.333 11 73.333 33 114c24.667 46.667 63 76.667 115 90c22 11.333 45.334 22.333 70 33c21.334 8 32 20.333 32 37
c6 5.33301 9 10.666 9 16c2.66602 8.66699 -0.333984 17 -9 25c-10.666 30 -48.666 45 -114 45c-148 -14 -256 -115 -324 -303c-54.667 -120 -97 -237.333 -127 -352c-49.333 -172 -106.666 -314 -172 -426c-65.333 -114.667 -171.666 -198 -319 -250l-9 -25
c139.333 -13.333 263.666 -63.666 373 -150.999c109.333 -90.667 165.333 -212.334 168 -365.001c0 -114.667 -23.333 -229.334 -70 -344.001c-48.667 -147.333 -76 -264.666 -82 -351.999c0 -117.333 24.667 -195.333 74 -234c16.667 -21.333 40 -36.333 70 -45
c27.333 -10.667 56 -17.334 86 -20.001c30 -5.33301 58.667 -11 86 -17h86l-29 -69c-30 -2.66699 -60 -4 -90 -4c-147.333 0 -289.333 27.333 -426 82c-158 60 -237 185.333 -237 376v41c5.33301 57.333 20.333 138 45 242c62.667 177.333 98 318 106 422
c2.66699 19.333 4 38.333 4 57c0 71.333 -19 139.666 -57 204.999c-52 82 -166.667 123 -344 123h-398l-421 -1401h381l-29 -90h-787z" />
    <glyph glyph-name="Udieresis" unicode="&#x416;" horiz-adv-x="4239" 
d="M1724 0l-384.997 -0.00195312l17 90h393l434 1401c-57.333 5.33301 -112 8 -164 8c-185.333 0 -332.666 -34 -441.999 -102c-142 -90 -252.667 -210.333 -332 -361c-38 -76 -100.667 -223.333 -188 -442c-98.667 -232 -214.667 -400 -348 -504
c-120.667 -95.333 -291.334 -143 -512.001 -143h-70v69c117.333 0 226.666 59 327.999 177c73.333 106 138.666 249.333 195.999 430c117.333 357.333 300.333 607 549 749c52 27.333 165.333 71 340 131c14 0 27.667 2.66699 41 8c14 3.33301 33 9 57 17l13 16
c-150.667 38.667 -235.334 152 -254.001 340c0 46.667 20.333 139.667 61 279l123 340c5.33301 62.667 8 110.334 8 143c0 22 -1.33301 37 -4 45c0 139.333 -68.333 209 -205 209c-13.333 2.66699 -25.666 4 -36.999 4c-32.667 0 -61.334 -8.33301 -86.001 -25
c-35.333 -24 -53 -49.667 -53 -77l17 -21c8 -13.333 12 -25.666 12 -37c13.333 -8 25.666 -14.667 36.999 -20c8 -8 21.667 -19 41 -33c46 -46.667 69 -100 69 -160c0 -68 -21.667 -122.667 -65 -164c-44 -40.667 -98.667 -61 -164 -61c-60 0 -113.333 23.333 -160 70
c-48.667 43.333 -73 102 -73 176c0 109.333 45 213 135 311c90 95.333 196.333 143 319 143c96 0 176.667 -27 242 -81c62.667 -57.333 94 -140.666 94 -249.999c0 -112 -42.333 -297.667 -127 -557c-40.667 -93.333 -61 -176.666 -61 -249.999v-33
c2.66699 -8 13.334 -35.333 32.001 -82c19.333 -49.333 56.333 -91.666 111 -126.999c52 -35.333 129.667 -53 233 -53h316l385 1294h-385l33 74h1171l-41 -74h-381l-385 -1294h258c128.667 0 243.334 26 344 78c101.333 48.667 188.666 140 262 274
c36 62.667 63.333 117.334 82 164.001c16.667 46.667 37.334 115 62 205c24.667 87.333 42.334 146 53 176c49.333 144.667 112 270.334 188 377c76.667 103.333 188.667 156.333 336 159c96 0 179.334 -27 250 -81c68.666 -54.667 104.333 -132.667 107 -234
c0 -95.333 -26 -178.666 -78 -250c-54.666 -73.333 -128.333 -114.333 -221 -123c-66 0 -118 19.167 -156 57.5s-60 84.833 -66 139.5v25c0 35.333 11 73.333 33 114c24.667 46.667 63 76.667 115 90c22 11.333 45.334 22.333 70 33c21.334 8 32 20.333 32 37
c6 5.33301 9 10.666 9 16c2.66602 8.66699 -0.333984 17 -9 25c-10.666 30 -48.666 45 -114 45c-148 -14 -256 -115 -324 -303c-54.667 -120 -97 -237.333 -127 -352c-49.333 -172 -106.666 -314 -172 -426c-65.333 -114.667 -171.666 -198 -319 -250l-9 -25
c139.333 -13.333 263.666 -63.666 373 -150.999c109.333 -90.667 165.333 -212.334 168 -365.001c0 -114.667 -23.333 -229.334 -70 -344.001c-48.667 -147.333 -76 -264.666 -82 -351.999c0 -117.333 24.667 -195.333 74 -234c16.667 -21.333 40 -36.333 70 -45
c27.333 -10.667 56 -17.334 86 -20.001c30 -5.33301 58.667 -11 86 -17h86l-29 -69c-30 -2.66699 -60 -4 -90 -4c-147.333 0 -289.333 27.333 -426 82c-158 60 -237 185.333 -237 376v41c5.33301 57.333 20.333 138 45 242c62.667 177.333 98 318 106 422
c2.66699 19.333 4 38.333 4 57c0 71.333 -19 139.666 -57 204.999c-52 82 -166.667 123 -344 123h-398l-421 -1401h381l-29 -90h-787z" />
    <glyph glyph-name="aacute" unicode="&#xc7;" horiz-adv-x="2531" 
d="M918 1516l24.001 86h410c193.333 0 354.333 50.333 483 151c125.333 98.667 216.666 221.667 273.999 369c46.667 128 70 252 70 372v58c-38 248.667 -158 373 -360 373c-412.667 -11.333 -742 -316 -988 -914h-90l283 930h86v-16c0 -33.333 9.66699 -59.333 29 -78
c21.333 -22 40.333 -33 57 -33c5.33301 -2.66699 12.333 -4 21 -4c30 0 79 13.667 147 41c82 43.333 166.667 80 254 110c84.667 30 183 45 295 45h16c180.667 0 326.667 -55.667 438 -167c115.333 -115.333 173 -254.666 173 -417.999v-25c0 -368.667 -269 -639 -807 -811
v-12c38 0 106 -20.667 204 -62c96 -40.667 185 -108.667 267 -204c78.667 -93.333 118 -217.666 118 -372.999v-16c-13.333 -278.667 -129.333 -509.667 -348 -693c-218 -185.333 -487 -278 -807 -278c-193.333 0 -351.666 31.333 -474.999 94
c-122.667 62.667 -211.334 142 -266.001 238c-57.333 95.333 -86 190.666 -86 285.999v17c0 100.667 28.667 186.5 86 257.5s131 109.167 221 114.5c60 0 110.667 -10.667 152 -32c38 -22 68 -52.333 90 -91c13.333 -32.667 20 -65.334 20 -98.001v-24
c0 -90.667 -50.333 -164.667 -151 -222c-60 -10.667 -108 -25.667 -144 -45c-35.333 -24 -53 -48.333 -53 -73v-17c0 -68 49.333 -139 148 -213c106 -82 249.333 -123 430 -123c218 8.66699 392.667 84 524 226s206.333 341.333 225 598c5.33301 43.333 8 84.333 8 123
c0 371.333 -208.667 557 -626 557z" />
    <glyph glyph-name="aacute" unicode="&#x417;" horiz-adv-x="2531" 
d="M918 1516l24.001 86h410c193.333 0 354.333 50.333 483 151c125.333 98.667 216.666 221.667 273.999 369c46.667 128 70 252 70 372v58c-38 248.667 -158 373 -360 373c-412.667 -11.333 -742 -316 -988 -914h-90l283 930h86v-16c0 -33.333 9.66699 -59.333 29 -78
c21.333 -22 40.333 -33 57 -33c5.33301 -2.66699 12.333 -4 21 -4c30 0 79 13.667 147 41c82 43.333 166.667 80 254 110c84.667 30 183 45 295 45h16c180.667 0 326.667 -55.667 438 -167c115.333 -115.333 173 -254.666 173 -417.999v-25c0 -368.667 -269 -639 -807 -811
v-12c38 0 106 -20.667 204 -62c96 -40.667 185 -108.667 267 -204c78.667 -93.333 118 -217.666 118 -372.999v-16c-13.333 -278.667 -129.333 -509.667 -348 -693c-218 -185.333 -487 -278 -807 -278c-193.333 0 -351.666 31.333 -474.999 94
c-122.667 62.667 -211.334 142 -266.001 238c-57.333 95.333 -86 190.666 -86 285.999v17c0 100.667 28.667 186.5 86 257.5s131 109.167 221 114.5c60 0 110.667 -10.667 152 -32c38 -22 68 -52.333 90 -91c13.333 -32.667 20 -65.334 20 -98.001v-24
c0 -90.667 -50.333 -164.667 -151 -222c-60 -10.667 -108 -25.667 -144 -45c-35.333 -24 -53 -48.333 -53 -73v-17c0 -68 49.333 -139 148 -213c106 -82 249.333 -123 430 -123c218 8.66699 392.667 84 524 226s206.333 341.333 225 598c5.33301 43.333 8 84.333 8 123
c0 371.333 -208.667 557 -626 557z" />
    <glyph glyph-name="agrave" unicode="&#xc8;" horiz-adv-x="3293" 
d="M1077 487l1757 2175l58 205h-377l29 74h1142l-16 -74h-373l-786 -2777h368l-28 -90h-1155l28 90h377l668 2314l-1757 -2175l-49 -139h380l-28 -90h-1147l25 90h372l791 2777h-373l16 74h1164l-29 -74h-381z" />
    <glyph glyph-name="agrave" unicode="&#x418;" horiz-adv-x="3293" 
d="M1077 487l1757 2175l58 205h-377l29 74h1142l-16 -74h-373l-786 -2777h368l-28 -90h-1155l28 90h377l668 2314l-1757 -2175l-49 -139h380l-28 -90h-1147l25 90h372l791 2777h-373l16 74h1164l-29 -74h-381z" />
    <glyph glyph-name="acircumflex" unicode="&#xc9;" horiz-adv-x="3293" 
d="M3203 3527l74 -66c-142 -130.667 -297.667 -238.334 -467 -323c-156 -76.667 -306.333 -115 -451 -115h-41c-128 8 -227.667 47.667 -299 119c-73.333 68 -110 143 -110 225c0 65.333 23 122.666 69 172c44 46.667 104.333 70 181 70c62.667 0 111.667 -20.667 147 -62
c30 -32.667 45 -68 45 -106c0 -8.66699 -1.33301 -17 -4 -25c0 -35.333 -9.66699 -66.666 -29 -94c-5.33301 -14 -25.666 -37.333 -61 -70c-27.333 -8 -41 -21.667 -41 -41c0 -22 12.333 -42.333 37 -61c22 -22 57.333 -33 106 -33c106.667 0 233.667 31.333 381 94
s301.666 168 463 316zM1077 487l1757 2175l58 205h-377l29 74h1142l-16 -74h-373l-786 -2777h368l-28 -90h-1155l28 90h377l668 2314l-1757 -2175l-49 -139h380l-28 -90h-1147l25 90h372l791 2777h-373l16 74h1164l-29 -74h-381z" />
    <glyph glyph-name="acircumflex" unicode="&#x419;" horiz-adv-x="3293" 
d="M3203 3527l74 -66c-142 -130.667 -297.667 -238.334 -467 -323c-156 -76.667 -306.333 -115 -451 -115h-41c-128 8 -227.667 47.667 -299 119c-73.333 68 -110 143 -110 225c0 65.333 23 122.666 69 172c44 46.667 104.333 70 181 70c62.667 0 111.667 -20.667 147 -62
c30 -32.667 45 -68 45 -106c0 -8.66699 -1.33301 -17 -4 -25c0 -35.333 -9.66699 -66.666 -29 -94c-5.33301 -14 -25.666 -37.333 -61 -70c-27.333 -8 -41 -21.667 -41 -41c0 -22 12.333 -42.333 37 -61c22 -22 57.333 -33 106 -33c106.667 0 233.667 31.333 381 94
s301.666 168 463 316zM1077 487l1757 2175l58 205h-377l29 74h1142l-16 -74h-373l-786 -2777h368l-28 -90h-1155l28 90h377l668 2314l-1757 -2175l-49 -139h380l-28 -90h-1147l25 90h372l791 2777h-373l16 74h1164l-29 -74h-381z" />
    <glyph glyph-name="adieresis" unicode="&#xca;" horiz-adv-x="3121" 
d="M1421 1585l316 -0.00292969c130.667 0 244 24.667 340 74c95.333 46.667 185.333 135.334 270 266.001c62.667 120 122.667 303 180 549c114.667 346.667 293.667 524 537 532c90 0 170.333 -27 241 -81c71.333 -57.333 108.333 -135.333 111 -234
c0 -92.667 -26 -176 -78 -250c-52 -73.333 -125.667 -114.333 -221 -123c-62.667 0 -114.667 19.333 -156 58c-40.667 38 -63.667 84.333 -69 139c0 46.667 13.667 93 41 139c24.667 44 62.667 74 114 90c11.333 8.66699 29.333 18.334 54 29
c24.667 10.667 39.667 24.334 45 41.001v41c0 30 -37 45 -111 45c-130.667 -10.667 -241.334 -111.667 -332 -303c-46 -92.667 -87 -210 -123 -352c-51.333 -180.667 -110 -325.667 -176 -435c-65.333 -112 -174.333 -192.333 -327 -241v-25
c136 -13.333 258.667 -63.666 368 -150.999c106.667 -90.667 165.334 -212.334 176 -365.001c0 -68 -17.667 -182.667 -53 -344c-65.333 -136.667 -98 -254 -98 -352c0 -117.333 24.667 -195.333 74 -234c16 -21.333 39 -36.333 69 -45
c27.333 -10.667 56 -17.334 86 -20.001c30 -5.33301 58.667 -11 86 -17h82l-16 -69c-32.667 -2.66699 -65.334 -4 -98 -4c-150.667 0 -294.334 25.667 -431 77c-155.333 60.667 -233 187.667 -233 381v41c0 22 2.66699 45.333 8 70c2.66699 22 9.66699 50.667 21 86
c8 32.667 13.333 61.334 16 86.001c8 30 21.667 71 41 123c16.667 52 31.667 106.667 45 164c14 54.667 22.333 99.667 25 135c0 106.667 -20.667 199.334 -62 278.001c-40.667 79.333 -152.667 119 -336 119h-454l-418 -1413h368l-28 -90h-1147l25 90h393l807 2777h-381
l28 74h1172l-37 -74h-385z" />
    <glyph glyph-name="adieresis" unicode="&#x41a;" horiz-adv-x="3121" 
d="M1421 1585l316 -0.00292969c130.667 0 244 24.667 340 74c95.333 46.667 185.333 135.334 270 266.001c62.667 120 122.667 303 180 549c114.667 346.667 293.667 524 537 532c90 0 170.333 -27 241 -81c71.333 -57.333 108.333 -135.333 111 -234
c0 -92.667 -26 -176 -78 -250c-52 -73.333 -125.667 -114.333 -221 -123c-62.667 0 -114.667 19.333 -156 58c-40.667 38 -63.667 84.333 -69 139c0 46.667 13.667 93 41 139c24.667 44 62.667 74 114 90c11.333 8.66699 29.333 18.334 54 29
c24.667 10.667 39.667 24.334 45 41.001v41c0 30 -37 45 -111 45c-130.667 -10.667 -241.334 -111.667 -332 -303c-46 -92.667 -87 -210 -123 -352c-51.333 -180.667 -110 -325.667 -176 -435c-65.333 -112 -174.333 -192.333 -327 -241v-25
c136 -13.333 258.667 -63.666 368 -150.999c106.667 -90.667 165.334 -212.334 176 -365.001c0 -68 -17.667 -182.667 -53 -344c-65.333 -136.667 -98 -254 -98 -352c0 -117.333 24.667 -195.333 74 -234c16 -21.333 39 -36.333 69 -45
c27.333 -10.667 56 -17.334 86 -20.001c30 -5.33301 58.667 -11 86 -17h82l-16 -69c-32.667 -2.66699 -65.334 -4 -98 -4c-150.667 0 -294.334 25.667 -431 77c-155.333 60.667 -233 187.667 -233 381v41c0 22 2.66699 45.333 8 70c2.66699 22 9.66699 50.667 21 86
c8 32.667 13.333 61.334 16 86.001c8 30 21.667 71 41 123c16.667 52 31.667 106.667 45 164c14 54.667 22.333 99.667 25 135c0 106.667 -20.667 199.334 -62 278.001c-40.667 79.333 -152.667 119 -336 119h-454l-418 -1413h368l-28 -90h-1147l25 90h393l807 2777h-381
l28 74h1172l-37 -74h-385z" />
    <glyph glyph-name="atilde" unicode="&#xcb;" horiz-adv-x="3109" 
d="M2707 2867l-274.001 0.00195312c-194 0 -337.333 -45 -430 -135c-92.667 -92.667 -191 -282.334 -295 -569.001l-475 -1397c-14 -46.667 -38.667 -111 -74 -193c-57.333 -166 -122.666 -292.667 -195.999 -380c-101.333 -164 -246.333 -246 -435 -246
c-122.667 0 -216.667 42.333 -282 127c-60 76 -90 163.333 -90 262v33c10.667 112 46 198 106 258c57.333 57.333 124.333 86 201 86c73.333 0 133.333 -24.667 180 -74c35.333 -44 53 -91.667 53 -143v-29c-5.33301 -92.667 -72 -158.334 -200 -197.001
c-2.66699 -10.667 -22 -20 -58 -28c-27.333 -24.667 -46.333 -46.667 -57 -66v-16c0 -44 21.667 -79.667 65 -107c30.667 -18.667 65 -28 103 -28c22 0 45 2.66699 69 8c136.667 30 242 120 316 270c43.333 68.667 91 180.667 143 336l25 57l24 58
c8.66699 18.667 17 37.667 25 57l463 1352c70.667 212.667 106 367 106 463v8c0 103.333 -45 175.666 -135 217c-35.333 10.667 -90 16 -164 16h-176l25 74h2240l-20 -74h-381l-762 -2777h381l-25 -90h-1151l29 90h377z" />
    <glyph glyph-name="atilde" unicode="&#x41b;" horiz-adv-x="3109" 
d="M2707 2867l-274.001 0.00195312c-194 0 -337.333 -45 -430 -135c-92.667 -92.667 -191 -282.334 -295 -569.001l-475 -1397c-14 -46.667 -38.667 -111 -74 -193c-57.333 -166 -122.666 -292.667 -195.999 -380c-101.333 -164 -246.333 -246 -435 -246
c-122.667 0 -216.667 42.333 -282 127c-60 76 -90 163.333 -90 262v33c10.667 112 46 198 106 258c57.333 57.333 124.333 86 201 86c73.333 0 133.333 -24.667 180 -74c35.333 -44 53 -91.667 53 -143v-29c-5.33301 -92.667 -72 -158.334 -200 -197.001
c-2.66699 -10.667 -22 -20 -58 -28c-27.333 -24.667 -46.333 -46.667 -57 -66v-16c0 -44 21.667 -79.667 65 -107c30.667 -18.667 65 -28 103 -28c22 0 45 2.66699 69 8c136.667 30 242 120 316 270c43.333 68.667 91 180.667 143 336l25 57l24 58
c8.66699 18.667 17 37.667 25 57l463 1352c70.667 212.667 106 367 106 463v8c0 103.333 -45 175.666 -135 217c-35.333 10.667 -90 16 -164 16h-176l25 74h2240l-20 -74h-381l-762 -2777h381l-25 -90h-1151l29 90h377z" />
    <glyph glyph-name="aring" unicode="&#xcc;" horiz-adv-x="3711" 
d="M1868 651l1356 2290h901l-29 -74h-381l-848 -2777h381l-24 -90h-1151l28 90h381l848 2777h-41l-1704 -2867h-74l-24 2867h-21l-704 -2330c-32.667 -98.667 -49 -176.667 -49 -234c0 -10.667 1.33301 -21.667 4 -33c8 -51.333 34 -96.333 78 -135
c38 -38 107.667 -57 209 -57h24l-29 -78h-860l37 78c147.333 10.667 256.666 62.334 327.999 155.001c70.667 93.333 132 219 184 377l668 2257h-381l24 74h832z" />
    <glyph glyph-name="aring" unicode="&#x41c;" horiz-adv-x="3711" 
d="M1868 651l1356 2290h901l-29 -74h-381l-848 -2777h381l-24 -90h-1151l28 90h381l848 2777h-41l-1704 -2867h-74l-24 2867h-21l-704 -2330c-32.667 -98.667 -49 -176.667 -49 -234c0 -10.667 1.33301 -21.667 4 -33c8 -51.333 34 -96.333 78 -135
c38 -38 107.667 -57 209 -57h24l-29 -78h-860l37 78c147.333 10.667 256.666 62.334 327.999 155.001c70.667 93.333 132 219 184 377l668 2257h-381l24 74h832z" />
    <glyph glyph-name="ccedilla" unicode="&#xcd;" horiz-adv-x="3158" 
d="M1311 1540l-393 -1450h352l-17 -90h-1147l21 90h381l762 2777h-381l29 74h1155l-29 -74h-377l-352 -1253h1102l340 1253h-381l28 74h1151l-16 -74h-381l-754 -2777h373l-20 -90h-1160l29 90h381l389 1450h-1085z" />
    <glyph glyph-name="ccedilla" unicode="&#x41d;" horiz-adv-x="3158" 
d="M1311 1540l-393 -1450h352l-17 -90h-1147l21 90h381l762 2777h-381l29 74h1155l-29 -74h-377l-352 -1253h1102l340 1253h-381l28 74h1151l-16 -74h-381l-754 -2777h373l-20 -90h-1160l29 90h381l389 1450h-1085z" />
    <glyph glyph-name="eacute" unicode="&#xce;" horiz-adv-x="2753" 
d="M319 1012v16c0 308.667 82 616 246 922c164 311.333 377 568 639 770c262 199.333 528.333 299 799 299c229.333 0 430 -76.667 602 -230c172 -155.333 282.667 -364 332 -626c13.333 -76.667 20 -154.667 20 -234c0 -191.333 -41 -392 -123 -602
c-144.667 -384.667 -361.667 -708.334 -651 -971.001c-292 -264.667 -595 -397 -909 -397c-174.667 0 -333 42.333 -475 127c-144.667 84.667 -259.334 207.667 -344.001 369c-87.333 160.667 -132.666 346.334 -135.999 557.001zM2015 2937
c-204.667 0 -391.667 -81.999 -561 -245.999c-172 -164 -318 -375.667 -438 -635c-123.333 -259.333 -215 -521.333 -275 -786c-48.667 -216 -73 -401.667 -73 -557c0 -36 1.33301 -70.333 4 -103c22 -357.333 206.333 -551 553 -581h24c180.667 0 352.667 76.333 516 229
c172 161.333 320.833 370.333 446.5 627s221.5 514.667 287.5 774c57.333 229.333 86 431.333 86 605.999v66c-19.333 392.667 -209.333 594.667 -570 606z" />
    <glyph glyph-name="eacute" unicode="&#x41e;" horiz-adv-x="2753" 
d="M319 1012v16c0 308.667 82 616 246 922c164 311.333 377 568 639 770c262 199.333 528.333 299 799 299c229.333 0 430 -76.667 602 -230c172 -155.333 282.667 -364 332 -626c13.333 -76.667 20 -154.667 20 -234c0 -191.333 -41 -392 -123 -602
c-144.667 -384.667 -361.667 -708.334 -651 -971.001c-292 -264.667 -595 -397 -909 -397c-174.667 0 -333 42.333 -475 127c-144.667 84.667 -259.334 207.667 -344.001 369c-87.333 160.667 -132.666 346.334 -135.999 557.001zM2015 2937
c-204.667 0 -391.667 -81.999 -561 -245.999c-172 -164 -318 -375.667 -438 -635c-123.333 -259.333 -215 -521.333 -275 -786c-48.667 -216 -73 -401.667 -73 -557c0 -36 1.33301 -70.333 4 -103c22 -357.333 206.333 -551 553 -581h24c180.667 0 352.667 76.333 516 229
c172 161.333 320.833 370.333 446.5 627s221.5 514.667 287.5 774c57.333 229.333 86 431.333 86 605.999v66c-19.333 392.667 -209.333 594.667 -570 606z" />
    <glyph glyph-name="egrave" unicode="&#xcf;" horiz-adv-x="3269" 
d="M1315 2867h-381l29 74h2723l-36 -74h-373l-762 -2777h381l-29 -90h-1143l25 90h381l749 2777h-1171l-750 -2777h381l-28 -90h-1155l32 90h369z" />
    <glyph glyph-name="egrave" unicode="&#x41f;" horiz-adv-x="3269" 
d="M1315 2867h-381l29 74h2723l-36 -74h-373l-762 -2777h381l-29 -90h-1143l25 90h381l749 2777h-1171l-750 -2777h381l-28 -90h-1155l32 90h369z" />
    <glyph glyph-name="ecircumflex" unicode="&#xd0;" horiz-adv-x="2703" 
d="M1200 1204l-311 -1114h368l-24 -90h-1135l25 90h369l761 2777h-376l24 74h995c243.333 0 468.666 -41 676 -123c208 -84.667 320 -282.667 336 -594v-33c0 -152.667 -36.667 -300 -110 -442c-79.333 -155.333 -212 -285 -398 -389c-188 -104 -422.667 -156 -704 -156
h-496zM1229 1286h352c92.667 0 206 20.667 340 62c134 38 263.667 136 389 294c117.333 148 176 368 176 660v57c0 208 -56 344.667 -168 410c-114.667 65.333 -234.667 98 -360 98h-307z" />
    <glyph glyph-name="ecircumflex" unicode="&#x420;" horiz-adv-x="2703" 
d="M1200 1204l-311 -1114h368l-24 -90h-1135l25 90h369l761 2777h-376l24 74h995c243.333 0 468.666 -41 676 -123c208 -84.667 320 -282.667 336 -594v-33c0 -152.667 -36.667 -300 -110 -442c-79.333 -155.333 -212 -285 -398 -389c-188 -104 -422.667 -156 -704 -156
h-496zM1229 1286h352c92.667 0 206 20.667 340 62c134 38 263.667 136 389 294c117.333 148 176 368 176 660v57c0 208 -56 344.667 -168 410c-114.667 65.333 -234.667 98 -360 98h-307z" />
    <glyph glyph-name="edieresis" unicode="&#xd1;" horiz-adv-x="2568" 
d="M2630 1982l-74 -0.00195312c19.333 88 29 181 29 279c0 40.667 -1.66699 81.667 -5 123c-13.333 142 -59.666 266.333 -138.999 373c-79.333 103.333 -198 159.333 -356 168h-25c-182.667 0 -356 -78 -520 -234c-174.667 -166.667 -329 -379.667 -463 -639
c-133.333 -262 -234.333 -520 -303 -774c-65.333 -237.333 -98 -440.666 -98 -609.999v-41c8 -221.333 68 -375.666 180 -462.999c109.333 -87.333 226.666 -131 351.999 -131h29c338.667 0 692.334 234.667 1061 704l74 -53c-175.333 -232 -364 -412.333 -566 -541
c-204.667 -130.667 -408 -196 -610 -196c-232 0 -435.333 90 -610 270c-174.667 177.333 -262 427.333 -262 750c2.66699 300 88.667 608.333 258 925s387.666 580.334 654.999 791c267.333 207.333 540.333 315 819 323c106.667 0 198.334 -16.333 275 -49
c27.333 -10.667 57.333 -25.667 90 -45l94 -61c22 -8 38.333 -13.667 49 -17c10.667 -5.33301 22.834 -10.666 36.5 -16c13.667 -5.33301 31.5 -10.666 53.5 -16c11.333 -2.66699 21 -4 29 -4c10.667 0 20.334 1.33301 29 4c68 21.333 108.667 67.666 122 139h82z" />
    <glyph glyph-name="edieresis" unicode="&#x421;" horiz-adv-x="2568" 
d="M2630 1982l-74 -0.00195312c19.333 88 29 181 29 279c0 40.667 -1.66699 81.667 -5 123c-13.333 142 -59.666 266.333 -138.999 373c-79.333 103.333 -198 159.333 -356 168h-25c-182.667 0 -356 -78 -520 -234c-174.667 -166.667 -329 -379.667 -463 -639
c-133.333 -262 -234.333 -520 -303 -774c-65.333 -237.333 -98 -440.666 -98 -609.999v-41c8 -221.333 68 -375.666 180 -462.999c109.333 -87.333 226.666 -131 351.999 -131h29c338.667 0 692.334 234.667 1061 704l74 -53c-175.333 -232 -364 -412.333 -566 -541
c-204.667 -130.667 -408 -196 -610 -196c-232 0 -435.333 90 -610 270c-174.667 177.333 -262 427.333 -262 750c2.66699 300 88.667 608.333 258 925s387.666 580.334 654.999 791c267.333 207.333 540.333 315 819 323c106.667 0 198.334 -16.333 275 -49
c27.333 -10.667 57.333 -25.667 90 -45l94 -61c22 -8 38.333 -13.667 49 -17c10.667 -5.33301 22.834 -10.666 36.5 -16c13.667 -5.33301 31.5 -10.666 53.5 -16c11.333 -2.66699 21 -4 29 -4c10.667 0 20.334 1.33301 29 4c68 21.333 108.667 67.666 122 139h82z" />
    <glyph glyph-name="iacute" unicode="&#xd2;" horiz-adv-x="2765" 
d="M2855 2011h-73.999c16.667 101.333 25 193 25 275c0 379.333 -173.333 569 -520 569h-54l-807 -2777h381l-28 -90h-1160l29 90h381l807 2777h-45c-158.667 0 -325.334 -50.667 -500.001 -152c-174.667 -103.333 -327.667 -334 -459 -692h-73l270 918h2032z" />
    <glyph glyph-name="iacute" unicode="&#x422;" horiz-adv-x="2765" 
d="M2855 2011h-73.999c16.667 101.333 25 193 25 275c0 379.333 -173.333 569 -520 569h-54l-807 -2777h381l-28 -90h-1160l29 90h381l807 2777h-45c-158.667 0 -325.334 -50.667 -500.001 -152c-174.667 -103.333 -327.667 -334 -459 -692h-73l270 918h2032z" />
    <glyph glyph-name="igrave" unicode="&#xd3;" horiz-adv-x="2900" 
d="M1786 958l789.999 1336c57.333 106.667 98.333 192.667 123 258c16.667 40.667 25 78.667 25 114c0 19.333 -2.66699 38.666 -8 58c-22 103.333 -97.333 155 -226 155h-114l16 74h954l-36 -74c-90.667 0 -166 -19 -226 -57s-110.333 -84.333 -151 -139
c-41.333 -57.333 -100 -150.333 -176 -279l-1115 -1863c-100.667 -174.667 -207 -315.334 -319 -422.001s-248.667 -160 -410 -160c-108.667 0 -204 26 -286 78c-84.667 52 -149 121.667 -193 209c-40.667 82 -61 164 -61 246v16c8 109.333 40.667 194 98 254
s124.333 90 201 90c62.667 0 115.667 -22 159 -66c41.333 -43.333 63.333 -92.333 66 -147c0 -92.667 -53.333 -166.334 -160 -221.001c-10.667 -5.33301 -28.334 -15 -53.001 -29c-27.333 -13.333 -50.666 -25.666 -69.999 -36.999c-21.333 -10.667 -32 -38 -32 -82v-8
c0 -49.333 32.667 -99.666 98 -150.999c68 -54.667 155.333 -82 262 -82c106.667 8 209 53 307 135c98.667 82 175.334 185.667 230.001 311l-426 2404h-439l41 74h1131l-33 -74h-336z" />
    <glyph glyph-name="igrave" unicode="&#x423;" horiz-adv-x="2900" 
d="M1786 958l789.999 1336c57.333 106.667 98.333 192.667 123 258c16.667 40.667 25 78.667 25 114c0 19.333 -2.66699 38.666 -8 58c-22 103.333 -97.333 155 -226 155h-114l16 74h954l-36 -74c-90.667 0 -166 -19 -226 -57s-110.333 -84.333 -151 -139
c-41.333 -57.333 -100 -150.333 -176 -279l-1115 -1863c-100.667 -174.667 -207 -315.334 -319 -422.001s-248.667 -160 -410 -160c-108.667 0 -204 26 -286 78c-84.667 52 -149 121.667 -193 209c-40.667 82 -61 164 -61 246v16c8 109.333 40.667 194 98 254
s124.333 90 201 90c62.667 0 115.667 -22 159 -66c41.333 -43.333 63.333 -92.333 66 -147c0 -92.667 -53.333 -166.334 -160 -221.001c-10.667 -5.33301 -28.334 -15 -53.001 -29c-27.333 -13.333 -50.666 -25.666 -69.999 -36.999c-21.333 -10.667 -32 -38 -32 -82v-8
c0 -49.333 32.667 -99.666 98 -150.999c68 -54.667 155.333 -82 262 -82c106.667 8 209 53 307 135c98.667 82 175.334 185.667 230.001 311l-426 2404h-439l41 74h1131l-33 -74h-336z" />
    <glyph glyph-name="icircumflex" unicode="&#xd4;" horiz-adv-x="3342" 
d="M2560 2912l-119 -426.002c254 -2.66699 463 -46.334 627 -131c164 -87.333 284 -200.666 360 -339.999c71.333 -133.333 107 -279.333 107 -438v-33c-8 -450.667 -177.333 -751 -508 -901c-319.333 -147.333 -696.333 -221 -1131 -221h-49l-106 -344h381l-29 -90h-1147
l29 90h381l98 344c-371.333 0 -651.333 80.667 -840 242c-188 158 -284.667 365.333 -290 622c0 199.333 57.333 392 172 578c112 182.667 297.667 332.667 557 450.001c251.333 114.667 573.333 172 966 172h25l119 426h-381l28 82h1160l-29 -82h-381zM2015 2392h-68.999
c-278.667 0 -508.334 -60 -689.001 -180c-196 -134 -335 -299.333 -417 -496c-84.667 -199.333 -127 -389 -127 -569c0 -428.667 228 -643 684 -643h69zM1876 495.998l49 0.000976562c464 0 786.333 121.333 967 364c177.333 243.333 266 530 266 860v33
c-2.66699 267.333 -65.5 439.333 -188.5 515.999c-123 76.667 -304.5 117.667 -544.5 123z" />
    <glyph glyph-name="icircumflex" unicode="&#x424;" horiz-adv-x="3342" 
d="M2560 2912l-119 -426.002c254 -2.66699 463 -46.334 627 -131c164 -87.333 284 -200.666 360 -339.999c71.333 -133.333 107 -279.333 107 -438v-33c-8 -450.667 -177.333 -751 -508 -901c-319.333 -147.333 -696.333 -221 -1131 -221h-49l-106 -344h381l-29 -90h-1147
l29 90h381l98 344c-371.333 0 -651.333 80.667 -840 242c-188 158 -284.667 365.333 -290 622c0 199.333 57.333 392 172 578c112 182.667 297.667 332.667 557 450.001c251.333 114.667 573.333 172 966 172h25l119 426h-381l28 82h1160l-29 -82h-381zM2015 2392h-68.999
c-278.667 0 -508.334 -60 -689.001 -180c-196 -134 -335 -299.333 -417 -496c-84.667 -199.333 -127 -389 -127 -569c0 -428.667 228 -643 684 -643h69zM1876 495.998l49 0.000976562c464 0 786.333 121.333 967 364c177.333 243.333 266 530 266 860v33
c-2.66699 267.333 -65.5 439.333 -188.5 515.999c-123 76.667 -304.5 117.667 -544.5 123z" />
    <glyph glyph-name="idieresis" unicode="&#xd5;" horiz-adv-x="3084" 
d="M1847 1614l693 803c16 24.667 43 62.667 81 114c38.667 52 59.334 95.667 62 131c2.66699 14 4 26.333 4 37c0 66 -39.667 114 -119 144c-38 16 -102 24 -192 24h-45l28 74h1073l-16 -74c-164 -2.66699 -291 -38 -381 -106c-92.667 -68.667 -210 -178 -352 -328
l-787 -930l521 -1413h381l-13 -90h-1204l29 90h385l-414 1102l-582 -655c-106 -118 -170 -207 -192 -267c0 -82 37 -136.667 111 -164c21.333 -2.66699 40.333 -4 57 -4l74 -12h57l-29 -90h-958l20 90c158.667 0 287 38.333 385 115c96 76 213.667 196 353 360l663 750
l-582 1552h-409l29 74h1228v-74h-426z" />
    <glyph glyph-name="idieresis" unicode="&#x425;" horiz-adv-x="3084" 
d="M1847 1614l693 803c16 24.667 43 62.667 81 114c38.667 52 59.334 95.667 62 131c2.66699 14 4 26.333 4 37c0 66 -39.667 114 -119 144c-38 16 -102 24 -192 24h-45l28 74h1073l-16 -74c-164 -2.66699 -291 -38 -381 -106c-92.667 -68.667 -210 -178 -352 -328
l-787 -930l521 -1413h381l-13 -90h-1204l29 90h385l-414 1102l-582 -655c-106 -118 -170 -207 -192 -267c0 -82 37 -136.667 111 -164c21.333 -2.66699 40.333 -4 57 -4l74 -12h57l-29 -90h-958l20 90c158.667 0 287 38.333 385 115c96 76 213.667 196 353 360l663 750
l-582 1552h-409l29 74h1228v-74h-426z" />
    <glyph glyph-name="ntilde" unicode="&#xd6;" horiz-adv-x="3269" 
d="M2089 90l790 2777h-364l41 74h1130l-36 -74h-373l-795 -2777h385l-270 -913h-86c24.667 109.333 37 206.333 37 291c0 90 -13.667 166.333 -41 229c-54.667 117.333 -151.667 198 -291 242c-142 40.667 -342.667 61 -602 61h-1446l25 90h372l803 2777h-377l21 74h1106
l-29 -74h-324l-802 -2777h1126z" />
    <glyph glyph-name="ntilde" unicode="&#x426;" horiz-adv-x="3269" 
d="M2089 90l790 2777h-364l41 74h1130l-36 -74h-373l-795 -2777h385l-270 -913h-86c24.667 109.333 37 206.333 37 291c0 90 -13.667 166.333 -41 229c-54.667 117.333 -151.667 198 -291 242c-142 40.667 -342.667 61 -602 61h-1446l25 90h372l803 2777h-377l21 74h1106
l-29 -74h-324l-802 -2777h1126z" />
    <glyph glyph-name="oacute" unicode="&#xd7;" horiz-adv-x="2802" 
d="M2400 2855h-368l16 74h1151l-25 -74h-372l-758 -2777h377l-25 -90h-1143l17 90h372l357 1282c-248.667 -144.667 -485 -217 -709 -217c-30 0 -60 1.33301 -90 4c-336 13.333 -524.333 109 -565 287c-16.667 68 -25 141.667 -25 221c0 120 19.333 252.333 58 397l217 803
h-377l29 74h1142l-16 -74h-381l-242 -901c-54.667 -177.333 -82 -326.333 -82 -447v-45c6 -128 104.333 -204.333 295 -229c22 -2.66699 44 -4 66 -4c112 0 226.667 23 344 69c142 52 265 116.333 369 193z" />
    <glyph glyph-name="oacute" unicode="&#x427;" horiz-adv-x="2802" 
d="M2400 2855h-368l16 74h1151l-25 -74h-372l-758 -2777h377l-25 -90h-1143l17 90h372l357 1282c-248.667 -144.667 -485 -217 -709 -217c-30 0 -60 1.33301 -90 4c-336 13.333 -524.333 109 -565 287c-16.667 68 -25 141.667 -25 221c0 120 19.333 252.333 58 397l217 803
h-377l29 74h1142l-16 -74h-381l-242 -901c-54.667 -177.333 -82 -326.333 -82 -447v-45c6 -128 104.333 -204.333 295 -229c22 -2.66699 44 -4 66 -4c112 0 226.667 23 344 69c142 52 265 116.333 369 193z" />
    <glyph glyph-name="ograve" unicode="&#xd8;" horiz-adv-x="4633" 
d="M3842 90h586l-25 -90h-3838h-438l20 90h390l802 2777h-393l29 74h1171l-28 -74h-381l-803 -2777h1061l782 2777h-381l33 74h1155l-16 -74h-381l-799 -2777h1069l778 2777h-381l29 74h1171l-28 -74h-393z" />
    <glyph glyph-name="ograve" unicode="&#x428;" horiz-adv-x="4633" 
d="M3842 90h586l-25 -90h-3838h-438l20 90h390l802 2777h-393l29 74h1171l-28 -74h-381l-803 -2777h1061l782 2777h-381l33 74h1155l-16 -74h-381l-799 -2777h1069l778 2777h-381l29 74h1171l-28 -74h-393z" />
    <glyph glyph-name="ocircumflex" unicode="&#xd9;" horiz-adv-x="4682" 
d="M3842 90l586 -0.000976562l-250 -913h-94c27.334 70.667 41 166 41 286c-8.66602 188.667 -85.333 325.334 -230 410.001s-416.334 127 -815 127h-2953l20 90h390l802 2777h-393l29 74h1171l-28 -74h-381l-803 -2777h1061l782 2777h-381l33 74h1155l-16 -74h-381
l-799 -2777h1069l778 2777h-381l29 74h1171l-28 -74h-393z" />
    <glyph glyph-name="ocircumflex" unicode="&#x429;" horiz-adv-x="4682" 
d="M3842 90l586 -0.000976562l-250 -913h-94c27.334 70.667 41 166 41 286c-8.66602 188.667 -85.333 325.334 -230 410.001s-416.334 127 -815 127h-2953l20 90h390l802 2777h-393l29 74h1171l-28 -74h-381l-803 -2777h1061l782 2777h-381l33 74h1155l-16 -74h-381
l-799 -2777h1069l778 2777h-381l29 74h1171l-28 -74h-393z" />
    <glyph glyph-name="odieresis" unicode="&#xda;" horiz-adv-x="3023" 
d="M2118 2855l-357 -1282h410c240 0 470.667 -41 692 -123c221.333 -84.667 332 -275.667 332 -573c0 -224 -95.667 -427.667 -287 -611c-194 -185.333 -509.333 -278 -946 -278h-1442l37 90h381l786 2777c-46 2.66699 -91 4 -135 4c-292 0 -536.333 -54.667 -733 -164
c-226.667 -125.333 -389 -353.333 -487 -684h-107l307 918h1971l-29 -74h-393zM1339 78l340 -0.000976562c265.333 0 522 57.333 770 172c210.667 98 316 301.333 316 610c0 52 -2.66699 106.667 -8 164c-19.333 204.667 -93.333 334.334 -222 389.001
c-128 52 -276.667 78 -446 78h-352z" />
    <glyph glyph-name="odieresis" unicode="&#x42a;" horiz-adv-x="3023" 
d="M2118 2855l-357 -1282h410c240 0 470.667 -41 692 -123c221.333 -84.667 332 -275.667 332 -573c0 -224 -95.667 -427.667 -287 -611c-194 -185.333 -509.333 -278 -946 -278h-1442l37 90h381l786 2777c-46 2.66699 -91 4 -135 4c-292 0 -536.333 -54.667 -733 -164
c-226.667 -125.333 -389 -353.333 -487 -684h-107l307 918h1971l-29 -74h-393zM1339 78l340 -0.000976562c265.333 0 522 57.333 770 172c210.667 98 316 301.333 316 610c0 52 -2.66699 106.667 -8 164c-19.333 204.667 -93.333 334.334 -222 389.001
c-128 52 -276.667 78 -446 78h-352z" />
    <glyph glyph-name="otilde" unicode="&#xdb;" horiz-adv-x="4166" 
d="M1724 2867l-380.999 -1294h422c251.333 0 486.333 -39.667 704.999 -119c218.667 -79.333 328 -267.666 328 -564.999c0 -224 -98.333 -427.333 -295 -610c-196.667 -186 -513.667 -279 -951 -279h-1429l24 90h381l787 2777h-381l29 74h1167l-29 -74h-377zM3768 2867
h-381l29 74h1155l-20 -74h-389l-758 -2777h381l-25 -90h-1151l29 90h368zM918.001 89.999l352 -0.000976562c267.333 0 526.666 57.333 777.999 172c212.667 98.667 319 302 319 610c0 52 -2.66699 106.667 -8 164c-21.333 196.667 -93.666 322.334 -216.999 377.001
c-125.333 52 -275.333 78 -450 78h-353z" />
    <glyph glyph-name="otilde" unicode="&#x42b;" horiz-adv-x="4166" 
d="M1724 2867l-380.999 -1294h422c251.333 0 486.333 -39.667 704.999 -119c218.667 -79.333 328 -267.666 328 -564.999c0 -224 -98.333 -427.333 -295 -610c-196.667 -186 -513.667 -279 -951 -279h-1429l24 90h381l787 2777h-381l29 74h1167l-29 -74h-377zM3768 2867
h-381l29 74h1155l-20 -74h-389l-758 -2777h381l-25 -90h-1151l29 90h368zM918.001 89.999l352 -0.000976562c267.333 0 526.666 57.333 777.999 172c212.667 98.667 319 302 319 610c0 52 -2.66699 106.667 -8 164c-21.333 196.667 -93.666 322.334 -216.999 377.001
c-125.333 52 -275.333 78 -450 78h-353z" />
    <glyph glyph-name="uacute" unicode="&#xdc;" horiz-adv-x="2654" 
d="M1737 2867l-365 -1282h406c685.333 0 1028 -232 1028 -696c0 -224 -95.667 -427.333 -287 -610c-194 -186 -506.667 -279 -938 -279h-1442l29 90h381l794 2777h-385l25 74h1163l-16 -74h-393zM946 90l340.001 -0.000976562c270.667 0 530 57.333 778 172
c210.667 96 316 294 316 594c0 57.333 -4.33301 117.333 -13 180c-21.333 204.667 -92.333 334.334 -213 389.001c-122.667 52 -271.334 78 -446.001 78h-365z" />
    <glyph glyph-name="uacute" unicode="&#x42c;" horiz-adv-x="2654" 
d="M1737 2867l-365 -1282h406c685.333 0 1028 -232 1028 -696c0 -224 -95.667 -427.333 -287 -610c-194 -186 -506.667 -279 -938 -279h-1442l29 90h381l794 2777h-385l25 74h1163l-16 -74h-393zM946 90l340.001 -0.000976562c270.667 0 530 57.333 778 172
c210.667 96 316 294 316 594c0 57.333 -4.33301 117.333 -13 180c-21.333 204.667 -92.333 334.334 -213 389.001c-122.667 52 -271.334 78 -446.001 78h-365z" />
    <glyph glyph-name="ugrave" unicode="&#xdd;" horiz-adv-x="2593" 
d="M897 2019l-74.001 -0.00390625l271 934h86c0 -62.667 38 -99.334 114 -110h9c26.667 0 85.334 12 176.001 36c204.667 93.333 359 140 463 140h24c204.667 0 386.334 -88.667 545.001 -266c166.667 -186 250 -440 250 -762v-82c0 -218.667 -37 -438.667 -111 -660
c-87.333 -251.333 -210.333 -475 -369 -671c-158 -199.333 -338 -353.666 -540 -462.999c-191.333 -104 -385.333 -156 -582 -156h-41c-221.333 10.667 -398.833 77.5 -532.5 200.5s-204.5 262.5 -212.5 418.5c0 114.667 32.667 203.334 98 266.001s140.333 94 225 94
c68.667 -5.33301 122 -25.833 160 -61.5s57 -82.167 57 -139.5c3.33301 -13.333 5 -25.666 5 -36.999c0 -95.333 -60.333 -170.333 -181 -225c-30 -8 -53 -20.333 -69 -37c-38.667 -38 -58 -70.667 -58 -98c5.33301 -68 60 -136.333 164 -205
c104 -70.667 224.333 -106 361 -106c308 2.66699 548 143.334 720 422.001c169.333 275.333 307.333 626 413.999 1052h-1306l28 82h1303c76 254 114 494.333 114 721c0 254 -50.333 423.333 -151 508c-101.333 82 -206.333 123 -315 123
c-218.667 0 -408.667 -83.333 -570 -250c-164 -166.667 -322.333 -389.334 -475 -668z" />
    <glyph glyph-name="ugrave" unicode="&#x42d;" horiz-adv-x="2593" 
d="M897 2019l-74.001 -0.00390625l271 934h86c0 -62.667 38 -99.334 114 -110h9c26.667 0 85.334 12 176.001 36c204.667 93.333 359 140 463 140h24c204.667 0 386.334 -88.667 545.001 -266c166.667 -186 250 -440 250 -762v-82c0 -218.667 -37 -438.667 -111 -660
c-87.333 -251.333 -210.333 -475 -369 -671c-158 -199.333 -338 -353.666 -540 -462.999c-191.333 -104 -385.333 -156 -582 -156h-41c-221.333 10.667 -398.833 77.5 -532.5 200.5s-204.5 262.5 -212.5 418.5c0 114.667 32.667 203.334 98 266.001s140.333 94 225 94
c68.667 -5.33301 122 -25.833 160 -61.5s57 -82.167 57 -139.5c3.33301 -13.333 5 -25.666 5 -36.999c0 -95.333 -60.333 -170.333 -181 -225c-30 -8 -53 -20.333 -69 -37c-38.667 -38 -58 -70.667 -58 -98c5.33301 -68 60 -136.333 164 -205
c104 -70.667 224.333 -106 361 -106c308 2.66699 548 143.334 720 422.001c169.333 275.333 307.333 626 413.999 1052h-1306l28 82h1303c76 254 114 494.333 114 721c0 254 -50.333 423.333 -151 508c-101.333 82 -206.333 123 -315 123
c-218.667 0 -408.667 -83.333 -570 -250c-164 -166.667 -322.333 -389.334 -475 -668z" />
    <glyph glyph-name="ucircumflex" unicode="&#xde;" horiz-adv-x="4424" 
d="M1343 1540l-397 -1450h365l-25 -90h-1147l29 90h381l762 2777h-381l28 74h1147l-28 -74h-381l-340 -1253h692c87.333 264.667 218.333 503.667 393 717c172 210 364.5 375 577.5 495s416.5 180 610.5 180c229.333 0 431.333 -76.333 606 -229
c172 -155.333 282.666 -364.333 332 -627c14 -76 21 -153.667 21 -233c0 -191.333 -41 -392 -123 -602c-93.334 -248.667 -221.667 -476.667 -385 -684c-166.667 -210.667 -354 -377.334 -562 -500.001c-207.333 -122.667 -416 -184 -626 -184
c-232 0 -431.333 76.333 -598 229c-166.667 150 -276 349.333 -328 598c-19.333 92.667 -29 187 -29 283c0 158 27.333 319 82 483h-676zM3650 2925c-205.333 0 -395.333 -83.332 -570 -249.999s-322 -378.334 -442 -635c-120 -256.667 -210.333 -516 -271 -778
c-51.333 -216 -77 -403.333 -77 -562c0 -35.333 1.33301 -69.333 4 -102c22 -358 207.667 -552 557 -582h33c240 0 461 130 663 390c207.333 270 371.333 592 492 966c112 349.333 168 648.333 168 897v49c-16.666 393.333 -202.333 595.666 -557 606.999z" />
    <glyph glyph-name="ucircumflex" unicode="&#x42e;" horiz-adv-x="4424" 
d="M1343 1540l-397 -1450h365l-25 -90h-1147l29 90h381l762 2777h-381l28 74h1147l-28 -74h-381l-340 -1253h692c87.333 264.667 218.333 503.667 393 717c172 210 364.5 375 577.5 495s416.5 180 610.5 180c229.333 0 431.333 -76.333 606 -229
c172 -155.333 282.666 -364.333 332 -627c14 -76 21 -153.667 21 -233c0 -191.333 -41 -392 -123 -602c-93.334 -248.667 -221.667 -476.667 -385 -684c-166.667 -210.667 -354 -377.334 -562 -500.001c-207.333 -122.667 -416 -184 -626 -184
c-232 0 -431.333 76.333 -598 229c-166.667 150 -276 349.333 -328 598c-19.333 92.667 -29 187 -29 283c0 158 27.333 319 82 483h-676zM3650 2925c-205.333 0 -395.333 -83.332 -570 -249.999s-322 -378.334 -442 -635c-120 -256.667 -210.333 -516 -271 -778
c-51.333 -216 -77 -403.333 -77 -562c0 -35.333 1.33301 -69.333 4 -102c22 -358 207.667 -552 557 -582h33c240 0 461 130 663 390c207.333 270 371.333 592 492 966c112 349.333 168 648.333 168 897v49c-16.666 393.333 -202.333 595.666 -557 606.999z" />
    <glyph glyph-name="udieresis" unicode="&#xdf;" horiz-adv-x="3170" 
d="M2339 1458h-221.001c-183.333 0 -326.666 -12.333 -429.999 -37c-106.667 -27.333 -209.334 -103.666 -308.001 -228.999c-60 -71.333 -120 -199.666 -180 -384.999c-68 -191.333 -137.667 -347 -209 -467c-70.667 -120 -173 -215.667 -307 -287
c-128 -70.667 -298.667 -106 -512 -106h-25l9 57c122.667 14 222.334 57.667 299.001 131c78.667 68.667 144 199.667 196 393c87.333 273.333 198 490.666 332 651.999c131.333 160.667 358 263 680 307l4 16c-229.333 19.333 -408.333 98.666 -537 237.999
c-114.667 120 -172 259.333 -172 418c0 18.667 1.66699 37.667 5 57c21.333 202 105.833 357.667 253.5 467s300.5 180.333 458.5 213c156 30 294 45 414 45h1487l-21 -74h-389l-848 -2777h389l-24 -90h-1176l25 90h397zM2769 2867h-335.999
c-155.333 0 -305.666 -13.667 -450.999 -41c-147.333 -30 -283.833 -106.333 -409.5 -229s-189.834 -309.667 -192.501 -561c0 -156 33 -269.333 99 -340c65.333 -74 145.666 -117.667 240.999 -131c93.333 -16.667 220.333 -25 381 -25h266z" />
    <glyph glyph-name="udieresis" unicode="&#x42f;" horiz-adv-x="3170" 
d="M2339 1458h-221.001c-183.333 0 -326.666 -12.333 -429.999 -37c-106.667 -27.333 -209.334 -103.666 -308.001 -228.999c-60 -71.333 -120 -199.666 -180 -384.999c-68 -191.333 -137.667 -347 -209 -467c-70.667 -120 -173 -215.667 -307 -287
c-128 -70.667 -298.667 -106 -512 -106h-25l9 57c122.667 14 222.334 57.667 299.001 131c78.667 68.667 144 199.667 196 393c87.333 273.333 198 490.666 332 651.999c131.333 160.667 358 263 680 307l4 16c-229.333 19.333 -408.333 98.666 -537 237.999
c-114.667 120 -172 259.333 -172 418c0 18.667 1.66699 37.667 5 57c21.333 202 105.833 357.667 253.5 467s300.5 180.333 458.5 213c156 30 294 45 414 45h1487l-21 -74h-389l-848 -2777h389l-24 -90h-1176l25 90h397zM2769 2867h-335.999
c-155.333 0 -305.666 -13.667 -450.999 -41c-147.333 -30 -283.833 -106.333 -409.5 -229s-189.834 -309.667 -192.501 -561c0 -156 33 -269.333 99 -340c65.333 -74 145.666 -117.667 240.999 -131c93.333 -16.667 220.333 -25 381 -25h266z" />
    <glyph glyph-name="daggerdbl" unicode="&#xe0;" horiz-adv-x="2064" 
d="M1438 1602l102.003 282.002h279l-439 -1511c-2.66699 -14 -9.5 -42.833 -20.5 -86.5s-16.5 -74.834 -16.5 -93.501v-9c0 -68 22 -111.667 66 -131c10.667 -2.66699 21.667 -4 33 -4c32.667 0 68 15 106 45c49.333 35.333 97.166 83.166 143.499 143.499
s87.5 116.5 123.5 168.5l106 167l57 -28c-202 -380 -395.667 -572.667 -581 -578c-96 0 -168.333 45 -217 135c-33.333 57.333 -50 131.333 -50 222c0 43.333 4.33301 91 13 143c-14 -10.667 -36 -43.334 -66 -98.001c-24.667 -27.333 -52 -61.666 -82 -102.999
c-32.667 -40.667 -64 -77.334 -94 -110.001c-32.667 -36 -64 -64.667 -94 -86c-98.667 -60 -194.334 -94.333 -287.001 -103c-70.667 0 -140.334 17.667 -209.001 53c-68 33.333 -122.667 96.333 -164 189c-35.333 70.667 -53 163.334 -53 278.001c0 27.333 1.33301 56 4 86
c11.333 205.333 71.5 413 180.5 623s241.5 383.333 397.5 520c150 131.333 290.667 197 422 197h8c74 0 143.667 -26 209 -78c62.667 -52 103.667 -129.667 123 -233zM352.003 299.002c0 -164 58.668 -252.667 176.001 -266h9c122.667 0 253.667 95.333 393 286
c142 194 256.667 419.333 344 676c70.667 202 106 368.667 106 500c0 32.667 -2.66699 62.667 -8 90c-10.667 82 -42 145 -94 189c-54.667 40.667 -109.334 61 -164.001 61h-16c-87.333 0 -173.333 -53.333 -258 -160c-90 -114.667 -173.333 -262 -250 -442
c-76.667 -183.333 -136.667 -359.333 -180 -528c-38.667 -150.667 -58 -275 -58 -373v-33z" />
    <glyph glyph-name="daggerdbl" unicode="&#x430;" horiz-adv-x="2064" 
d="M1438 1602l102.003 282.002h279l-439 -1511c-2.66699 -14 -9.5 -42.833 -20.5 -86.5s-16.5 -74.834 -16.5 -93.501v-9c0 -68 22 -111.667 66 -131c10.667 -2.66699 21.667 -4 33 -4c32.667 0 68 15 106 45c49.333 35.333 97.166 83.166 143.499 143.499
s87.5 116.5 123.5 168.5l106 167l57 -28c-202 -380 -395.667 -572.667 -581 -578c-96 0 -168.333 45 -217 135c-33.333 57.333 -50 131.333 -50 222c0 43.333 4.33301 91 13 143c-14 -10.667 -36 -43.334 -66 -98.001c-24.667 -27.333 -52 -61.666 -82 -102.999
c-32.667 -40.667 -64 -77.334 -94 -110.001c-32.667 -36 -64 -64.667 -94 -86c-98.667 -60 -194.334 -94.333 -287.001 -103c-70.667 0 -140.334 17.667 -209.001 53c-68 33.333 -122.667 96.333 -164 189c-35.333 70.667 -53 163.334 -53 278.001c0 27.333 1.33301 56 4 86
c11.333 205.333 71.5 413 180.5 623s241.5 383.333 397.5 520c150 131.333 290.667 197 422 197h8c74 0 143.667 -26 209 -78c62.667 -52 103.667 -129.667 123 -233zM352.003 299.002c0 -164 58.668 -252.667 176.001 -266h9c122.667 0 253.667 95.333 393 286
c142 194 256.667 419.333 344 676c70.667 202 106 368.667 106 500c0 32.667 -2.66699 62.667 -8 90c-10.667 82 -42 145 -94 189c-54.667 40.667 -109.334 61 -164.001 61h-16c-87.333 0 -173.333 -53.333 -258 -160c-90 -114.667 -173.333 -262 -250 -442
c-76.667 -183.333 -136.667 -359.333 -180 -528c-38.667 -150.667 -58 -275 -58 -373v-33z" />
    <glyph glyph-name="periodcentered" unicode="&#xe1;" horiz-adv-x="1978" 
d="M2101 2900c-8 -207.333 -129.33 -345.331 -363.997 -413.998c-82 -21.333 -154.333 -39 -217 -53l-152 -41c-221.333 -27.333 -422 -106.666 -602 -238c-180 -130.667 -322 -376.334 -426 -737.001h29c95.333 158.667 216.666 283 363.999 373
c134 82 269.333 123 406 123h41c172 -8 316.667 -76.333 434 -205c117.333 -128 181.333 -296 192 -504v-65c0 -191.333 -43.667 -374.333 -131 -549c-100.667 -194 -234.334 -348.333 -401.001 -463c-158.667 -106.667 -313 -160 -463 -160h-33
c-174.667 8.66699 -326 86.667 -454 234c-131.333 147.333 -197 339.666 -197 576.999c0 117.333 19 262 57 434c36 169.333 96.333 348.333 181 537c84.667 186 191 354 319 504c125.333 150 268.666 259 429.999 327c112 52 244.333 93 397 123
c38.667 6 109.667 19.667 213 41c44 11.333 92 25 144 41c98 32.667 156.667 71 176 115h57zM393.003 487.002c8.66699 -174.667 53.6689 -293.33 135.002 -355.997c79.333 -65.333 162.666 -98 249.999 -98h8c128.667 0 240.667 46.333 336 139
c98.667 95.333 182 223.666 250 384.999c65.333 161.333 111.666 315.666 138.999 462.999c19.333 120 29 229.333 29 328v61c-16 270.667 -145.667 412.667 -389 426h-25c-142 0 -269 -71 -381 -213c-120 -152.667 -210 -338.334 -270 -557.001
c-54.667 -194 -82 -367.333 -82 -520v-58z" />
    <glyph glyph-name="periodcentered" unicode="&#x431;" horiz-adv-x="1978" 
d="M2101 2900c-8 -207.333 -129.33 -345.331 -363.997 -413.998c-82 -21.333 -154.333 -39 -217 -53l-152 -41c-221.333 -27.333 -422 -106.666 -602 -238c-180 -130.667 -322 -376.334 -426 -737.001h29c95.333 158.667 216.666 283 363.999 373
c134 82 269.333 123 406 123h41c172 -8 316.667 -76.333 434 -205c117.333 -128 181.333 -296 192 -504v-65c0 -191.333 -43.667 -374.333 -131 -549c-100.667 -194 -234.334 -348.333 -401.001 -463c-158.667 -106.667 -313 -160 -463 -160h-33
c-174.667 8.66699 -326 86.667 -454 234c-131.333 147.333 -197 339.666 -197 576.999c0 117.333 19 262 57 434c36 169.333 96.333 348.333 181 537c84.667 186 191 354 319 504c125.333 150 268.666 259 429.999 327c112 52 244.333 93 397 123
c38.667 6 109.667 19.667 213 41c44 11.333 92 25 144 41c98 32.667 156.667 71 176 115h57zM393.003 487.002c8.66699 -174.667 53.6689 -293.33 135.002 -355.997c79.333 -65.333 162.666 -98 249.999 -98h8c128.667 0 240.667 46.333 336 139
c98.667 95.333 182 223.666 250 384.999c65.333 161.333 111.666 315.666 138.999 462.999c19.333 120 29 229.333 29 328v61c-16 270.667 -145.667 412.667 -389 426h-25c-142 0 -269 -71 -381 -213c-120 -152.667 -210 -338.334 -270 -557.001
c-54.667 -194 -82 -367.333 -82 -520v-58z" />
    <glyph glyph-name="quotesinglbase" unicode="&#xe2;" horiz-adv-x="1745" 
d="M1040 1028l0.000976562 -20c153.333 -8.66699 275 -52.5 365 -131.5s135 -173.167 135 -282.5v-25c0 -147.333 -71 -282.333 -213 -405c-150 -131.333 -333 -197 -549 -197c-196.667 8.66699 -349.667 77 -459 205c-108.667 125.333 -166 281 -172 467
c0 194 52 389.333 156 586c104 194 242 356.333 414 487c172 131.333 350.667 198.333 536 201h50c117.333 0 208.666 -27.333 273.999 -82c70.667 -65.333 109 -147.333 115 -246v-8c0 -259.333 -217.333 -442.333 -652 -549zM528.001 983c224 5.33301 430.333 64 619 176
s283 267.667 283 467c0 147.333 -61.667 221 -185 221c-13.333 0 -28.333 -1.33301 -45 -4c-136.667 -13.333 -266.334 -95.333 -389.001 -246c-125.333 -150 -219.666 -354.667 -282.999 -614zM492.001 877l-28.998 -180.999c-16.667 -84.667 -25 -154.334 -25 -209.001
c11.333 -275.333 124.666 -426.666 339.999 -453.999h25c79.333 0 154.333 24.333 225 73c79.333 54.667 142.333 128.667 189 222c38 76 57 156.333 57 241c0 19.333 -1.33301 38.666 -4 57.999c0 210 -104 319 -312 327h-20c-76.667 0 -225.334 -25.667 -446.001 -77z" />
    <glyph glyph-name="quotesinglbase" unicode="&#x432;" horiz-adv-x="1745" 
d="M1040 1028l0.000976562 -20c153.333 -8.66699 275 -52.5 365 -131.5s135 -173.167 135 -282.5v-25c0 -147.333 -71 -282.333 -213 -405c-150 -131.333 -333 -197 -549 -197c-196.667 8.66699 -349.667 77 -459 205c-108.667 125.333 -166 281 -172 467
c0 194 52 389.333 156 586c104 194 242 356.333 414 487c172 131.333 350.667 198.333 536 201h50c117.333 0 208.666 -27.333 273.999 -82c70.667 -65.333 109 -147.333 115 -246v-8c0 -259.333 -217.333 -442.333 -652 -549zM528.001 983c224 5.33301 430.333 64 619 176
s283 267.667 283 467c0 147.333 -61.667 221 -185 221c-13.333 0 -28.333 -1.33301 -45 -4c-136.667 -13.333 -266.334 -95.333 -389.001 -246c-125.333 -150 -219.666 -354.667 -282.999 -614zM492.001 877l-28.998 -180.999c-16.667 -84.667 -25 -154.334 -25 -209.001
c11.333 -275.333 124.666 -426.666 339.999 -453.999h25c79.333 0 154.333 24.333 225 73c79.333 54.667 142.333 128.667 189 222c38 76 57 156.333 57 241c0 19.333 -1.33301 38.666 -4 57.999c0 210 -104 319 -312 327h-20c-76.667 0 -225.334 -25.667 -446.001 -77z" />
    <glyph glyph-name="quotedblbase" unicode="&#xe3;" horiz-adv-x="1585" 
d="M299 1307l-78 36c204.667 355.333 464 545.333 778 570h41c123.333 0 221.666 -37 294.999 -111c82 -84.667 123 -184.334 123 -299.001c0 -169.333 -102.333 -310 -307 -422c-52 -24.667 -116.333 -50.334 -193 -77.001
c-78.667 -27.333 -130.334 -46.666 -155.001 -57.999c-251.333 -117.333 -378.333 -290.666 -381 -519.999v-25c0 -84.667 23.333 -155.667 70 -213c46 -60 111.333 -90 196 -90h8c112 0 228 52 348 156c118 101.333 226 253 324 455l70 -41
c-112 -226.667 -246 -401.667 -402 -525c-147.333 -117.333 -294.666 -176 -441.999 -176h-29c-136.667 8.66699 -248.667 56.667 -336 144c-82 78.667 -123 175.334 -123 290.001v33c11.333 183.333 127.666 325.333 348.999 426
c32.667 19.333 140.334 72.666 323.001 159.999c120 65.333 211.5 133.5 274.5 204.5s95.833 159.833 98.5 266.5v33c0 87.333 -19 154 -57 200c-41.333 49.333 -104.333 74 -189 74h-16c-98.667 -2.66699 -201 -47.667 -307 -135
c-109.333 -87.333 -203.666 -206 -282.999 -356z" />
    <glyph glyph-name="quotedblbase" unicode="&#x433;" horiz-adv-x="1585" 
d="M299 1307l-78 36c204.667 355.333 464 545.333 778 570h41c123.333 0 221.666 -37 294.999 -111c82 -84.667 123 -184.334 123 -299.001c0 -169.333 -102.333 -310 -307 -422c-52 -24.667 -116.333 -50.334 -193 -77.001
c-78.667 -27.333 -130.334 -46.666 -155.001 -57.999c-251.333 -117.333 -378.333 -290.666 -381 -519.999v-25c0 -84.667 23.333 -155.667 70 -213c46 -60 111.333 -90 196 -90h8c112 0 228 52 348 156c118 101.333 226 253 324 455l70 -41
c-112 -226.667 -246 -401.667 -402 -525c-147.333 -117.333 -294.666 -176 -441.999 -176h-29c-136.667 8.66699 -248.667 56.667 -336 144c-82 78.667 -123 175.334 -123 290.001v33c11.333 183.333 127.666 325.333 348.999 426
c32.667 19.333 140.334 72.666 323.001 159.999c120 65.333 211.5 133.5 274.5 204.5s95.833 159.833 98.5 266.5v33c0 87.333 -19 154 -57 200c-41.333 49.333 -104.333 74 -189 74h-16c-98.667 -2.66699 -201 -47.667 -307 -135
c-109.333 -87.333 -203.666 -206 -282.999 -356z" />
    <glyph glyph-name="perthousand" unicode="&#xe4;" horiz-adv-x="1978" 
d="M578 2294l-69.998 41.002c98 177.333 209.833 311 335.5 401s255.5 135 389.5 135c139.333 0 259.333 -42.333 360 -127c98.667 -87.333 172.5 -207.5 221.5 -360.5s76.167 -333.167 81.5 -540.5c0 -224 -31.333 -449.333 -94 -676s-150 -430 -262 -610
s-236.333 -322 -373 -426c-139.333 -106.667 -280 -161.334 -422 -164.001c-163.333 0 -310.666 65.667 -441.999 197c-131.333 128 -197 316.333 -197 565c6 210 58 406.667 156 590c98.667 180 225.667 326 381 438c144.667 104 293.667 156 447 156h24
c221.333 -14 373 -142.333 455 -385c27.333 103.333 53.333 235.666 78 396.999c16 109.333 24 205 24 287c0 35.333 -1.33301 68 -4 98c-10.667 166.667 -58.334 289.667 -143.001 369c-76.667 70.667 -172.334 106 -287.001 106h-33
c-212.667 0 -421.334 -163.667 -626.001 -491zM352.002 487.002c0 -169.333 38.332 -286.667 114.999 -352c76.667 -68 161.334 -102 254.001 -102c221.333 0 400 143.333 536 430c134 284 203.667 574.667 209 872v49c0 153.333 -32.667 265.333 -98 336
c-76.667 76.667 -164 115 -262 115c-139.333 -2.66699 -265 -82 -377 -238c-114.667 -155.333 -206 -341 -274 -557c-68.667 -218 -103 -402.333 -103 -553z" />
    <glyph glyph-name="perthousand" unicode="&#x434;" horiz-adv-x="1978" 
d="M578 2294l-69.998 41.002c98 177.333 209.833 311 335.5 401s255.5 135 389.5 135c139.333 0 259.333 -42.333 360 -127c98.667 -87.333 172.5 -207.5 221.5 -360.5s76.167 -333.167 81.5 -540.5c0 -224 -31.333 -449.333 -94 -676s-150 -430 -262 -610
s-236.333 -322 -373 -426c-139.333 -106.667 -280 -161.334 -422 -164.001c-163.333 0 -310.666 65.667 -441.999 197c-131.333 128 -197 316.333 -197 565c6 210 58 406.667 156 590c98.667 180 225.667 326 381 438c144.667 104 293.667 156 447 156h24
c221.333 -14 373 -142.333 455 -385c27.333 103.333 53.333 235.666 78 396.999c16 109.333 24 205 24 287c0 35.333 -1.33301 68 -4 98c-10.667 166.667 -58.334 289.667 -143.001 369c-76.667 70.667 -172.334 106 -287.001 106h-33
c-212.667 0 -421.334 -163.667 -626.001 -491zM352.002 487.002c0 -169.333 38.332 -286.667 114.999 -352c76.667 -68 161.334 -102 254.001 -102c221.333 0 400 143.333 536 430c134 284 203.667 574.667 209 872v49c0 153.333 -32.667 265.333 -98 336
c-76.667 76.667 -164 115 -262 115c-139.333 -2.66699 -265 -82 -377 -238c-114.667 -155.333 -206 -341 -274 -557c-68.667 -218 -103 -402.333 -103 -553z" />
    <glyph glyph-name="Acircumflex" unicode="&#xe5;" horiz-adv-x="1671" 
d="M1438 565l69.002 -37.002c-254 -357.333 -527 -544.333 -819 -561h-33c-158 0 -289 61.667 -393 185c-109.333 130.667 -164 297 -164 499c2.66699 183.333 60 373.333 172 570s252.667 360.334 422 491.001c169.333 131.333 338.666 198.333 507.999 201h17
c128 0 227.667 -35.667 299 -107c65.333 -68 98 -144.333 98 -229v-33c0 -142 -86 -278.333 -258 -409c-174.667 -134 -476.334 -210.667 -905.001 -230c-68.667 -234.667 -105.667 -380.667 -111 -438c0 -156 41 -264 123 -324s166.667 -90 254 -90
c98 0 204.333 35.667 319 107c112 70.667 214.333 164.667 307 282c11.333 14 25 29 41 45c16.667 16.667 29 30.334 37 41.001c2.66699 2.66699 5.66699 7 9 13c0 5.33301 1.33301 10.666 4 15.999c0 2.66699 1.33301 5.33398 4 8.00098zM475.002 990.998h16.999
c250.667 0 455.334 58.667 614.001 176c161.333 117.333 248.666 260.666 261.999 429.999v41c0 90.667 -23.333 148 -70 172c-40.667 19.333 -78.667 29 -114 29c-14 0 -27.667 -1.33301 -41 -4c-147.333 -8 -282.666 -101 -405.999 -279
c-122.667 -177.333 -210 -365.666 -262 -564.999z" />
    <glyph glyph-name="Acircumflex" unicode="&#x435;" horiz-adv-x="1671" 
d="M1438 565l69.002 -37.002c-254 -357.333 -527 -544.333 -819 -561h-33c-158 0 -289 61.667 -393 185c-109.333 130.667 -164 297 -164 499c2.66699 183.333 60 373.333 172 570s252.667 360.334 422 491.001c169.333 131.333 338.666 198.333 507.999 201h17
c128 0 227.667 -35.667 299 -107c65.333 -68 98 -144.333 98 -229v-33c0 -142 -86 -278.333 -258 -409c-174.667 -134 -476.334 -210.667 -905.001 -230c-68.667 -234.667 -105.667 -380.667 -111 -438c0 -156 41 -264 123 -324s166.667 -90 254 -90
c98 0 204.333 35.667 319 107c112 70.667 214.333 164.667 307 282c11.333 14 25 29 41 45c16.667 16.667 29 30.334 37 41.001c2.66699 2.66699 5.66699 7 9 13c0 5.33301 1.33301 10.666 4 15.999c0 2.66699 1.33301 5.33398 4 8.00098zM475.002 990.998h16.999
c250.667 0 455.334 58.667 614.001 176c161.333 117.333 248.666 260.666 261.999 429.999v41c0 90.667 -23.333 148 -70 172c-40.667 19.333 -78.667 29 -114 29c-14 0 -27.667 -1.33301 -41 -4c-147.333 -8 -282.666 -101 -405.999 -279
c-122.667 -177.333 -210 -365.666 -262 -564.999z" />
    <glyph glyph-name="Ecircumflex" unicode="&#xe6;" horiz-adv-x="3318" 
d="M369 1397l-57.998 61c238 303.333 459.333 455 664 455h24c96 -11.333 182 -55 258 -131c74 -76.667 111 -198.334 111 -365.001c0 -16 -1.33301 -40.667 -4 -74l-8 -94c-8.66699 -21.333 -13 -59.333 -13 -114v-33c-2.66699 -11.333 -4 -23.666 -4 -36.999h299l209 819
h283l-221 -819h303c114.667 289.333 255.334 505 422 647c155.333 134 294.666 201 418 201h24c76.667 -5.33301 142.334 -32.666 197 -81.999c52 -52 78 -124.333 78 -217c0 -87.333 -23.333 -158.333 -70 -213c-46.667 -57.333 -97.334 -86 -152 -86
c-35.333 0 -66.666 13.667 -94 41c-30 24.667 -45 54.667 -45 90c0 76.667 46.333 138 139 184c11.333 16.667 26.333 25 45 25c14 27.333 21 45 21 53c5.33301 14 8 26.333 8 37c0 19.333 -6.66699 37 -20 53c-22 24.667 -53.667 37 -95 37h-12
c-120 -8 -236 -92.667 -348 -254c-112 -164 -205 -359.333 -279 -586c-73.333 -226.667 -112.666 -430 -118 -610c0 -188.667 71 -293.667 213 -315c117.333 0 253.666 77.667 409 233c5.33301 5.33301 42.333 49 111 131c24.667 14 37 29 37 45l45 -37
c-76.667 -112 -177.667 -218.333 -303 -319c-128.667 -104 -249 -156 -361 -156c-106.667 11.333 -199.334 62 -278 152c-68.667 76 -103 194.667 -103 356v70c11.333 133.333 40 282 86 446h-291l-258 -991h-282l258 991h-303c-98.667 -319.333 -232.667 -569 -402 -749
c-172 -183.333 -334.333 -275 -487 -275c-98.667 2.66699 -172.334 34 -221.001 94c-49.333 60.667 -74 131.667 -74 213c0 82 20.333 151.667 61 209c41.333 54.667 90.666 82 147.999 82c49.333 0 87.666 -13.667 114.999 -41s41 -60 41 -98
c0 -65.333 -27.333 -121.333 -82 -168c-27.333 -8 -52 -23 -74 -45c-38 -22 -57 -50.667 -57 -86c10.667 -62.667 58.334 -94 143.001 -94c92.667 2.66699 189.5 73.667 290.5 213s189.833 312.666 266.5 519.999s127 409.333 151 606c8.66699 46.667 13 90.334 13 131.001
c0 177.333 -71 275.666 -213 294.999h-25c-79.333 0 -168 -39.667 -266 -119c-106.667 -87.333 -196.667 -181.333 -270 -282z" />
    <glyph glyph-name="Ecircumflex" unicode="&#x436;" horiz-adv-x="3318" 
d="M369 1397l-57.998 61c238 303.333 459.333 455 664 455h24c96 -11.333 182 -55 258 -131c74 -76.667 111 -198.334 111 -365.001c0 -16 -1.33301 -40.667 -4 -74l-8 -94c-8.66699 -21.333 -13 -59.333 -13 -114v-33c-2.66699 -11.333 -4 -23.666 -4 -36.999h299l209 819
h283l-221 -819h303c114.667 289.333 255.334 505 422 647c155.333 134 294.666 201 418 201h24c76.667 -5.33301 142.334 -32.666 197 -81.999c52 -52 78 -124.333 78 -217c0 -87.333 -23.333 -158.333 -70 -213c-46.667 -57.333 -97.334 -86 -152 -86
c-35.333 0 -66.666 13.667 -94 41c-30 24.667 -45 54.667 -45 90c0 76.667 46.333 138 139 184c11.333 16.667 26.333 25 45 25c14 27.333 21 45 21 53c5.33301 14 8 26.333 8 37c0 19.333 -6.66699 37 -20 53c-22 24.667 -53.667 37 -95 37h-12
c-120 -8 -236 -92.667 -348 -254c-112 -164 -205 -359.333 -279 -586c-73.333 -226.667 -112.666 -430 -118 -610c0 -188.667 71 -293.667 213 -315c117.333 0 253.666 77.667 409 233c5.33301 5.33301 42.333 49 111 131c24.667 14 37 29 37 45l45 -37
c-76.667 -112 -177.667 -218.333 -303 -319c-128.667 -104 -249 -156 -361 -156c-106.667 11.333 -199.334 62 -278 152c-68.667 76 -103 194.667 -103 356v70c11.333 133.333 40 282 86 446h-291l-258 -991h-282l258 991h-303c-98.667 -319.333 -232.667 -569 -402 -749
c-172 -183.333 -334.333 -275 -487 -275c-98.667 2.66699 -172.334 34 -221.001 94c-49.333 60.667 -74 131.667 -74 213c0 82 20.333 151.667 61 209c41.333 54.667 90.666 82 147.999 82c49.333 0 87.666 -13.667 114.999 -41s41 -60 41 -98
c0 -65.333 -27.333 -121.333 -82 -168c-27.333 -8 -52 -23 -74 -45c-38 -22 -57 -50.667 -57 -86c10.667 -62.667 58.334 -94 143.001 -94c92.667 2.66699 189.5 73.667 290.5 213s189.833 312.666 266.5 519.999s127 409.333 151 606c8.66699 46.667 13 90.334 13 131.001
c0 177.333 -71 275.666 -213 294.999h-25c-79.333 0 -168 -39.667 -266 -119c-106.667 -87.333 -196.667 -181.333 -270 -282z" />
    <glyph glyph-name="Aacute" unicode="&#xe7;" horiz-adv-x="1634" 
d="M410 1356l-74 53.002c114.667 164 241.667 289.667 381 377c130.667 84.667 261.667 127 393 127h12c98.667 0 182 -17.667 250 -53c65.333 -36 117.333 -82.667 156 -140c35.333 -57.333 53 -121.333 53 -192v-17c0 -136 -43.667 -238.333 -131 -307
c-92.667 -73.333 -217 -132 -373 -176v-29c79.333 -10.667 164 -53 254 -127c90 -73.333 135 -178.333 135 -315c0 -155.333 -68.167 -290.333 -204.5 -405s-312.5 -176.334 -528.5 -185.001c-188 0 -335.333 45 -442 135c-109.333 87.333 -164 195.333 -164 324
c0 90 20.333 158.333 61 205c38.667 46 89.334 72 152.001 78h12c49.333 0 90.333 -15 123 -45c35.333 -33.333 53 -75.666 53 -126.999c0 -68.667 -35.333 -123.334 -106 -164.001c-24.667 -2.66699 -53.334 -13.667 -86.001 -33c-19.333 -19.333 -29 -41.333 -29 -66
c0 -8 1.33301 -17.333 4 -28c8.66699 -57.333 53.667 -108 135 -152c66 -35.333 140 -53 222 -53c21.333 0 43 1.33301 65 4c106.667 8 198.334 46.333 275.001 115c73.333 68 126.333 151.333 159 250c19.333 62.667 29 122.667 29 180c0 32.667 -2.66699 64 -8 94
c-11.333 76.667 -37.333 136.667 -78 180c-40.667 41.333 -88.334 68.666 -143.001 81.999c-54.667 14 -125.667 21 -213 21h-205l16 69h53c208 0 369.333 30 484 90c120 63.333 189.667 193.333 209 390c2.66699 16 4 32.333 4 49c0 16 -1.33301 32.333 -4 49
c-11.333 98 -42.666 160.667 -93.999 188c-38.667 19.333 -75.667 29 -111 29c-14 0 -26.333 -1.33301 -37 -4c-136.667 -8 -255.334 -53 -356.001 -135c-101.333 -84.667 -202.333 -196.667 -303 -336z" />
    <glyph glyph-name="Aacute" unicode="&#x437;" horiz-adv-x="1634" 
d="M410 1356l-74 53.002c114.667 164 241.667 289.667 381 377c130.667 84.667 261.667 127 393 127h12c98.667 0 182 -17.667 250 -53c65.333 -36 117.333 -82.667 156 -140c35.333 -57.333 53 -121.333 53 -192v-17c0 -136 -43.667 -238.333 -131 -307
c-92.667 -73.333 -217 -132 -373 -176v-29c79.333 -10.667 164 -53 254 -127c90 -73.333 135 -178.333 135 -315c0 -155.333 -68.167 -290.333 -204.5 -405s-312.5 -176.334 -528.5 -185.001c-188 0 -335.333 45 -442 135c-109.333 87.333 -164 195.333 -164 324
c0 90 20.333 158.333 61 205c38.667 46 89.334 72 152.001 78h12c49.333 0 90.333 -15 123 -45c35.333 -33.333 53 -75.666 53 -126.999c0 -68.667 -35.333 -123.334 -106 -164.001c-24.667 -2.66699 -53.334 -13.667 -86.001 -33c-19.333 -19.333 -29 -41.333 -29 -66
c0 -8 1.33301 -17.333 4 -28c8.66699 -57.333 53.667 -108 135 -152c66 -35.333 140 -53 222 -53c21.333 0 43 1.33301 65 4c106.667 8 198.334 46.333 275.001 115c73.333 68 126.333 151.333 159 250c19.333 62.667 29 122.667 29 180c0 32.667 -2.66699 64 -8 94
c-11.333 76.667 -37.333 136.667 -78 180c-40.667 41.333 -88.334 68.666 -143.001 81.999c-54.667 14 -125.667 21 -213 21h-205l16 69h53c208 0 369.333 30 484 90c120 63.333 189.667 193.333 209 390c2.66699 16 4 32.333 4 49c0 16 -1.33301 32.333 -4 49
c-11.333 98 -42.666 160.667 -93.999 188c-38.667 19.333 -75.667 29 -111 29c-14 0 -26.333 -1.33301 -37 -4c-136.667 -8 -255.334 -53 -356.001 -135c-101.333 -84.667 -202.333 -196.667 -303 -336z" />
    <glyph glyph-name="Edieresis" unicode="&#xe8;" horiz-adv-x="2224" 
d="M778 1884l-384.998 -1442c-30 -98 -45 -170.333 -45 -217c0 -13.333 1.33301 -25.666 4 -36.999c11.333 -76 40 -116.667 86 -122c19.333 -6 37.333 -9 54 -9c16 0 31 3 45 9c108.667 21.333 222 85.333 340 192c114.667 104 218.334 228.333 311.001 373
s152.667 264.667 180 360l242 893h278l-409 -1421c0 -2.66699 -8.33301 -50.667 -25 -144c-10.667 -70.667 -17.334 -122.334 -20.001 -155.001c0 -11.333 1.33301 -21 4 -29c10.667 -27.333 35 -54.666 73 -81.999c8.66699 -2.66699 17 -4 25 -4
c155.333 0 334.333 235 537 705l61 -25c-90 -207.333 -184.333 -383.333 -283 -528c-100.667 -147.333 -219.334 -225.333 -356.001 -234c-79.333 0 -153 33 -221 99c-41.333 35.333 -62 99.333 -62 192c0 65.333 11 144.666 33 237.999l25 127
c-114.667 -161.333 -244.334 -310.333 -389.001 -447c-148 -139.333 -295.667 -209 -443 -209c-92.667 5.33301 -169 39.666 -229 102.999c-60 57.333 -90 142 -90 254v16c2.66699 40.667 13.667 104.667 33 192c16 84.667 32.333 162.667 49 234l278 1032h-373l17 86h655z
" />
    <glyph glyph-name="Edieresis" unicode="&#x438;" horiz-adv-x="2224" 
d="M778 1884l-384.998 -1442c-30 -98 -45 -170.333 -45 -217c0 -13.333 1.33301 -25.666 4 -36.999c11.333 -76 40 -116.667 86 -122c19.333 -6 37.333 -9 54 -9c16 0 31 3 45 9c108.667 21.333 222 85.333 340 192c114.667 104 218.334 228.333 311.001 373
s152.667 264.667 180 360l242 893h278l-409 -1421c0 -2.66699 -8.33301 -50.667 -25 -144c-10.667 -70.667 -17.334 -122.334 -20.001 -155.001c0 -11.333 1.33301 -21 4 -29c10.667 -27.333 35 -54.666 73 -81.999c8.66699 -2.66699 17 -4 25 -4
c155.333 0 334.333 235 537 705l61 -25c-90 -207.333 -184.333 -383.333 -283 -528c-100.667 -147.333 -219.334 -225.333 -356.001 -234c-79.333 0 -153 33 -221 99c-41.333 35.333 -62 99.333 -62 192c0 65.333 11 144.666 33 237.999l25 127
c-114.667 -161.333 -244.334 -310.333 -389.001 -447c-148 -139.333 -295.667 -209 -443 -209c-92.667 5.33301 -169 39.666 -229 102.999c-60 57.333 -90 142 -90 254v16c2.66699 40.667 13.667 104.667 33 192c16 84.667 32.333 162.667 49 234l278 1032h-373l17 86h655z
" />
    <glyph glyph-name="Egrave" unicode="&#xe9;" horiz-adv-x="2224" 
d="M1896 2769l53.999 -57c-84.667 -114.667 -194 -222.667 -328 -324c-136.667 -101.333 -281.334 -156 -434.001 -164c-117.333 0 -210.333 32.667 -279 98c-68 63.333 -102 140 -102 230c0 65.333 21.667 118.666 65 160c44 40.667 90.667 61 140 61
c10.667 2.66699 21.334 4 32.001 4c24.667 0 48 -5.33301 70 -16c27.333 -16.667 49.333 -40 66 -70c13.333 -24.667 20 -54.667 20 -90v-16c0 -49.333 -34 -91.666 -102 -127c-19.333 -8.66699 -35.666 -13 -48.999 -13c-6 -16 -9 -33.667 -9 -53
c0 -46.667 53.333 -74 160 -82c92.667 0 200.667 34.333 324 103c122.667 65.333 246.667 184 372 356zM777.999 1884l-384.998 -1442c-30 -98 -45 -170.333 -45 -217c0 -13.333 1.33301 -25.666 4 -36.999c11.333 -76 40 -116.667 86 -122c19.333 -6 37.333 -9 54 -9
c16 0 31 3 45 9c108.667 21.333 222 85.333 340 192c114.667 104 218.334 228.333 311.001 373s152.667 264.667 180 360l242 893h278l-409 -1421c0 -2.66699 -8.33301 -50.667 -25 -144c-10.667 -70.667 -17.334 -122.334 -20.001 -155.001c0 -11.333 1.33301 -21 4 -29
c10.667 -27.333 35 -54.666 73 -81.999c8.66699 -2.66699 17 -4 25 -4c155.333 0 334.333 235 537 705l61 -25c-90 -207.333 -184.333 -383.333 -283 -528c-100.667 -147.333 -219.334 -225.333 -356.001 -234c-79.333 0 -153 33 -221 99c-41.333 35.333 -62 99.333 -62 192
c0 65.333 11 144.666 33 237.999l25 127c-114.667 -161.333 -244.334 -310.333 -389.001 -447c-148 -139.333 -295.667 -209 -443 -209c-92.667 5.33301 -169 39.666 -229 102.999c-60 57.333 -90 142 -90 254v16c2.66699 40.667 13.667 104.667 33 192
c16 84.667 32.333 162.667 49 234l278 1032h-373l17 86h655z" />
    <glyph glyph-name="Egrave" unicode="&#x439;" horiz-adv-x="2224" 
d="M1896 2769l53.999 -57c-84.667 -114.667 -194 -222.667 -328 -324c-136.667 -101.333 -281.334 -156 -434.001 -164c-117.333 0 -210.333 32.667 -279 98c-68 63.333 -102 140 -102 230c0 65.333 21.667 118.666 65 160c44 40.667 90.667 61 140 61
c10.667 2.66699 21.334 4 32.001 4c24.667 0 48 -5.33301 70 -16c27.333 -16.667 49.333 -40 66 -70c13.333 -24.667 20 -54.667 20 -90v-16c0 -49.333 -34 -91.666 -102 -127c-19.333 -8.66699 -35.666 -13 -48.999 -13c-6 -16 -9 -33.667 -9 -53
c0 -46.667 53.333 -74 160 -82c92.667 0 200.667 34.333 324 103c122.667 65.333 246.667 184 372 356zM777.999 1884l-384.998 -1442c-30 -98 -45 -170.333 -45 -217c0 -13.333 1.33301 -25.666 4 -36.999c11.333 -76 40 -116.667 86 -122c19.333 -6 37.333 -9 54 -9
c16 0 31 3 45 9c108.667 21.333 222 85.333 340 192c114.667 104 218.334 228.333 311.001 373s152.667 264.667 180 360l242 893h278l-409 -1421c0 -2.66699 -8.33301 -50.667 -25 -144c-10.667 -70.667 -17.334 -122.334 -20.001 -155.001c0 -11.333 1.33301 -21 4 -29
c10.667 -27.333 35 -54.666 73 -81.999c8.66699 -2.66699 17 -4 25 -4c155.333 0 334.333 235 537 705l61 -25c-90 -207.333 -184.333 -383.333 -283 -528c-100.667 -147.333 -219.334 -225.333 -356.001 -234c-79.333 0 -153 33 -221 99c-41.333 35.333 -62 99.333 -62 192
c0 65.333 11 144.666 33 237.999l25 127c-114.667 -161.333 -244.334 -310.333 -389.001 -447c-148 -139.333 -295.667 -209 -443 -209c-92.667 5.33301 -169 39.666 -229 102.999c-60 57.333 -90 142 -90 254v16c2.66699 40.667 13.667 104.667 33 192
c16 84.667 32.333 162.667 49 234l278 1032h-373l17 86h655z" />
    <glyph glyph-name="Iacute" unicode="&#xea;" horiz-adv-x="2163" 
d="M918 1884l-278.996 -1048h41c30 38 72.333 102 127 192c112 169.333 195.333 288 250 356c278.667 352.667 510.667 529 696 529h25c73.333 -2.66699 136 -27.334 188 -74.001c52 -49.333 78 -115 78 -197v-16c0 -76.667 -22 -136.667 -66 -180
c-48.667 -49.333 -106 -74 -172 -74c-65.333 0 -113 17.667 -143 53c-24.667 27.333 -37 63 -37 107v24c0 22 17.667 64.333 53 127c14 6 26.333 11.667 37 17c8.66699 2.66699 15.667 6.66699 21 12c27.333 22 41 35.667 41 41c0 41.333 -27.333 62 -82 62
c-109.333 0 -251.333 -104 -426 -312c-174.667 -207.333 -325 -412 -451 -614c54.667 32.667 125.667 62.667 213 90s166.666 41 237.999 41h41c125.333 0 207 -61.333 245 -184c6 -19.333 9 -44 9 -74c0 -57.333 -11 -132.333 -33 -225c-14 -44 -27.667 -90.667 -41 -140
c-16.667 -52 -25 -98.333 -25 -139c-8 -22 -12 -41 -12 -57c0 -44 26 -71.333 78 -82h8c54.667 0 114.667 34 180 102c66 68.667 99 105.667 99 111v0c24 35.333 47 72 69 110c19.333 36 42.666 77 69.999 123c22 22 34.333 42.667 37 62l53 -29
c-212.667 -420.667 -429.667 -631 -651 -631c-128.667 14 -208 79.667 -238 197v29c0 60 13.667 137.667 41 233c11.333 38 23.666 75 36.999 111c10.667 32.667 17.334 57 20.001 73c16.667 60 25 99.667 25 119c-2.66699 54.667 -16.334 94.334 -41.001 119.001
c-27.333 24.667 -67 38.334 -119 41.001h-32c-84.667 0 -180.334 -26 -287.001 -78c-123.333 -60 -208 -170.667 -254 -332l-127 -479h-283l479 1798h-360v86h660z" />
    <glyph glyph-name="Iacute" unicode="&#x43a;" horiz-adv-x="2163" 
d="M918 1884l-278.996 -1048h41c30 38 72.333 102 127 192c112 169.333 195.333 288 250 356c278.667 352.667 510.667 529 696 529h25c73.333 -2.66699 136 -27.334 188 -74.001c52 -49.333 78 -115 78 -197v-16c0 -76.667 -22 -136.667 -66 -180
c-48.667 -49.333 -106 -74 -172 -74c-65.333 0 -113 17.667 -143 53c-24.667 27.333 -37 63 -37 107v24c0 22 17.667 64.333 53 127c14 6 26.333 11.667 37 17c8.66699 2.66699 15.667 6.66699 21 12c27.333 22 41 35.667 41 41c0 41.333 -27.333 62 -82 62
c-109.333 0 -251.333 -104 -426 -312c-174.667 -207.333 -325 -412 -451 -614c54.667 32.667 125.667 62.667 213 90s166.666 41 237.999 41h41c125.333 0 207 -61.333 245 -184c6 -19.333 9 -44 9 -74c0 -57.333 -11 -132.333 -33 -225c-14 -44 -27.667 -90.667 -41 -140
c-16.667 -52 -25 -98.333 -25 -139c-8 -22 -12 -41 -12 -57c0 -44 26 -71.333 78 -82h8c54.667 0 114.667 34 180 102c66 68.667 99 105.667 99 111v0c24 35.333 47 72 69 110c19.333 36 42.666 77 69.999 123c22 22 34.333 42.667 37 62l53 -29
c-212.667 -420.667 -429.667 -631 -651 -631c-128.667 14 -208 79.667 -238 197v29c0 60 13.667 137.667 41 233c11.333 38 23.666 75 36.999 111c10.667 32.667 17.334 57 20.001 73c16.667 60 25 99.667 25 119c-2.66699 54.667 -16.334 94.334 -41.001 119.001
c-27.333 24.667 -67 38.334 -119 41.001h-32c-84.667 0 -180.334 -26 -287.001 -78c-123.333 -60 -208 -170.667 -254 -332l-127 -479h-283l479 1798h-360v86h660z" />
    <glyph glyph-name="Icircumflex" unicode="&#xeb;" horiz-adv-x="2359" 
d="M1995 1913l-381.003 -1450l-41 -164c-14 -49.333 -21 -91.666 -21 -126.999v-16c8.66699 -44 33.334 -72.667 74.001 -86c10.667 -2.66699 21.667 -4 33 -4c142 0 318 243 528 729l58 -41c-66 -180.667 -156.333 -357 -271 -529c-112 -172 -230.667 -258 -356 -258h-8
c-90 5.33301 -166.667 56 -230 152c-35.333 49.333 -53 114.666 -53 195.999c0 71.333 13.667 154.666 41 249.999l324 1233h-17c-106 0 -204.333 -42.333 -295 -127c-98 -90 -194.667 -273 -290 -549l-78 -237l-94 -287l-70 -201
c-32.667 -84.667 -69.667 -159.667 -111 -225c-40.667 -68 -84.334 -118.667 -131.001 -152c-49.333 -35.333 -110.666 -53 -183.999 -53c-95.333 0 -170.333 33 -225 99c-52 60 -78 125.333 -78 196v25c0 79.333 21.667 144.666 65 195.999c44 49.333 94.667 74 152 74h16
c46.667 0 86.334 -13.667 119.001 -41c32.667 -32.667 49 -76.334 49 -131.001c-2.66699 -5.33301 -12 -25.666 -28 -60.999c-16.667 -38.667 -44 -70.334 -82 -95.001c-49.333 -18.667 -81 -36.334 -95 -53.001c-2.66699 -13.333 -4 -32.333 -4 -57
c5.33301 -32.667 38.333 -54.667 99 -66h24c74 0 135.333 35.667 184 107c52 76 100 177 144 303c13.333 27.333 42 106.333 86 237c40.667 128.667 68 213.334 82 254.001c84.667 265.333 163.667 464.666 237 597.999c74 134 173.667 232.333 299 295
c98.667 46.667 228.334 70 389.001 70c44 0 90.667 -1.33301 140 -4z" />
    <glyph glyph-name="Icircumflex" unicode="&#x43b;" horiz-adv-x="2359" 
d="M1995 1913l-381.003 -1450l-41 -164c-14 -49.333 -21 -91.666 -21 -126.999v-16c8.66699 -44 33.334 -72.667 74.001 -86c10.667 -2.66699 21.667 -4 33 -4c142 0 318 243 528 729l58 -41c-66 -180.667 -156.333 -357 -271 -529c-112 -172 -230.667 -258 -356 -258h-8
c-90 5.33301 -166.667 56 -230 152c-35.333 49.333 -53 114.666 -53 195.999c0 71.333 13.667 154.666 41 249.999l324 1233h-17c-106 0 -204.333 -42.333 -295 -127c-98 -90 -194.667 -273 -290 -549l-78 -237l-94 -287l-70 -201
c-32.667 -84.667 -69.667 -159.667 -111 -225c-40.667 -68 -84.334 -118.667 -131.001 -152c-49.333 -35.333 -110.666 -53 -183.999 -53c-95.333 0 -170.333 33 -225 99c-52 60 -78 125.333 -78 196v25c0 79.333 21.667 144.666 65 195.999c44 49.333 94.667 74 152 74h16
c46.667 0 86.334 -13.667 119.001 -41c32.667 -32.667 49 -76.334 49 -131.001c-2.66699 -5.33301 -12 -25.666 -28 -60.999c-16.667 -38.667 -44 -70.334 -82 -95.001c-49.333 -18.667 -81 -36.334 -95 -53.001c-2.66699 -13.333 -4 -32.333 -4 -57
c5.33301 -32.667 38.333 -54.667 99 -66h24c74 0 135.333 35.667 184 107c52 76 100 177 144 303c13.333 27.333 42 106.333 86 237c40.667 128.667 68 213.334 82 254.001c84.667 265.333 163.667 464.666 237 597.999c74 134 173.667 232.333 299 295
c98.667 46.667 228.334 70 389.001 70c44 0 90.667 -1.33301 140 -4z" />
    <glyph glyph-name="Idieresis" unicode="&#xec;" horiz-adv-x="3011" 
d="M1552 545l778.998 1339h323l-413 -1442c-41.333 -106 -62 -189 -62 -249c0 -82 35.667 -124.333 107 -127h8c68 0 134.667 39.333 200 118c68.667 79.333 131.667 172.333 189 279c54.667 103.333 102.334 200.333 143 291l66 -25c-104 -224 -202.333 -405.667 -295 -545
c-95.333 -142 -212.666 -214.333 -351.999 -217c-104 0 -188.667 43.667 -254 131c-32.667 41.333 -49 98.666 -49 171.999c-3.33301 76.667 13 168.334 49 275.001l327 1057l29 94h-29l-991 -1692l-57 1761h-17c-24 -114.667 -75.667 -311 -155 -589
c-96 -295.333 -152 -464.666 -168 -507.999c-82 -243.333 -138 -395 -168 -455c-82 -150 -195.333 -232 -340 -246c-92.667 0 -163.667 23.333 -213 70c-52 43.333 -80.667 103.333 -86 180c0 71.333 19 128.666 57 171.999c38.667 44 86.667 68.667 144 74h16
c40.667 0 76 -11 106 -33c33.333 -27.333 50 -61.333 50 -102c2.66699 -11.333 4 -21 4 -29c0 -49.333 -24.667 -90.333 -74 -123l-45 -57v-17c0 -16 8.33301 -29.667 25 -41c10.667 -8 25.667 -12 45 -12c13.333 0 27 1.33301 41 4c84 32.667 149.333 101 196 205
c54.667 109.333 109.334 255.333 164.001 438l160 508c10.667 32.667 20 62.667 28 90l29 90c8 30.667 17.667 65 29 103l16 69c5.33301 22 8 41.333 8 58c5.33301 22 8 42.333 8 61c0 76.667 -57.333 117.667 -172 123h-81h-70l12 86h688z" />
    <glyph glyph-name="Idieresis" unicode="&#x43c;" horiz-adv-x="3011" 
d="M1552 545l778.998 1339h323l-413 -1442c-41.333 -106 -62 -189 -62 -249c0 -82 35.667 -124.333 107 -127h8c68 0 134.667 39.333 200 118c68.667 79.333 131.667 172.333 189 279c54.667 103.333 102.334 200.333 143 291l66 -25c-104 -224 -202.333 -405.667 -295 -545
c-95.333 -142 -212.666 -214.333 -351.999 -217c-104 0 -188.667 43.667 -254 131c-32.667 41.333 -49 98.666 -49 171.999c-3.33301 76.667 13 168.334 49 275.001l327 1057l29 94h-29l-991 -1692l-57 1761h-17c-24 -114.667 -75.667 -311 -155 -589
c-96 -295.333 -152 -464.666 -168 -507.999c-82 -243.333 -138 -395 -168 -455c-82 -150 -195.333 -232 -340 -246c-92.667 0 -163.667 23.333 -213 70c-52 43.333 -80.667 103.333 -86 180c0 71.333 19 128.666 57 171.999c38.667 44 86.667 68.667 144 74h16
c40.667 0 76 -11 106 -33c33.333 -27.333 50 -61.333 50 -102c2.66699 -11.333 4 -21 4 -29c0 -49.333 -24.667 -90.333 -74 -123l-45 -57v-17c0 -16 8.33301 -29.667 25 -41c10.667 -8 25.667 -12 45 -12c13.333 0 27 1.33301 41 4c84 32.667 149.333 101 196 205
c54.667 109.333 109.334 255.333 164.001 438l160 508c10.667 32.667 20 62.667 28 90l29 90c8 30.667 17.667 65 29 103l16 69c5.33301 22 8 41.333 8 58c5.33301 22 8 42.333 8 61c0 76.667 -57.333 117.667 -172 123h-81h-70l12 86h688z" />
    <glyph glyph-name="Igrave" unicode="&#xed;" horiz-adv-x="2286" 
d="M1458 1036l220.999 847.998h279l-389 -1442c-5.33301 -27.333 -16.333 -69.666 -33 -126.999s-26.334 -95.333 -29.001 -114c0 -93.333 30 -140 90 -140c14 0 29 3 45 9c90.667 13.333 175.334 83 254.001 209c76.667 122.667 164.334 285 263.001 487l57 -29
c-90 -207.333 -185.667 -384.666 -287 -531.999c-100.667 -150 -220.667 -229.333 -360 -238c-74 0 -141 26 -201 78c-57.333 49.333 -86 138 -86 266v17c5.33301 112 20.333 188.333 45 229l111 418h-787l-270 -975h-262l471 1798h-377l16 86h660l-230 -848h799z" />
    <glyph glyph-name="Igrave" unicode="&#x43d;" horiz-adv-x="2286" 
d="M1458 1036l220.999 847.998h279l-389 -1442c-5.33301 -27.333 -16.333 -69.666 -33 -126.999s-26.334 -95.333 -29.001 -114c0 -93.333 30 -140 90 -140c14 0 29 3 45 9c90.667 13.333 175.334 83 254.001 209c76.667 122.667 164.334 285 263.001 487l57 -29
c-90 -207.333 -185.667 -384.666 -287 -531.999c-100.667 -150 -220.667 -229.333 -360 -238c-74 0 -141 26 -201 78c-57.333 49.333 -86 138 -86 266v17c5.33301 112 20.333 188.333 45 229l111 418h-787l-270 -975h-262l471 1798h-377l16 86h660l-230 -848h799z" />
    <glyph glyph-name="Oacute" unicode="&#xee;" horiz-adv-x="2003" 
d="M139 696c0 183.333 44.999 369.001 134.999 557.001c90.667 186 216.334 341.667 377.001 467c161.333 126 340.333 190.333 537 193h33c188 0 339.333 -64.333 454 -193c117.333 -136 179 -312 185 -528c0 -128.667 -22 -265.334 -66 -410.001
c-46.667 -147.333 -126 -289.333 -238 -426c-193.333 -248 -435 -377.667 -725 -389c-188 0 -347.667 65.667 -479 197c-133.333 128 -204.333 305.333 -213 532zM421.999 528.001c0 -297.333 128.333 -462.332 385 -494.999h24c150.667 0 282 72.333 394 217
c117.333 150 206 330.167 266 540.5s90 404.166 90 581.499c-10.667 186 -58.334 310.333 -143.001 373c-84.667 60 -173.667 90 -267 90c-202 0 -375.333 -140.667 -520 -422c-147.333 -284 -223.666 -579 -228.999 -885z" />
    <glyph glyph-name="Oacute" unicode="&#x43e;" horiz-adv-x="2003" 
d="M139 696c0 183.333 44.999 369.001 134.999 557.001c90.667 186 216.334 341.667 377.001 467c161.333 126 340.333 190.333 537 193h33c188 0 339.333 -64.333 454 -193c117.333 -136 179 -312 185 -528c0 -128.667 -22 -265.334 -66 -410.001
c-46.667 -147.333 -126 -289.333 -238 -426c-193.333 -248 -435 -377.667 -725 -389c-188 0 -347.667 65.667 -479 197c-133.333 128 -204.333 305.333 -213 532zM421.999 528.001c0 -297.333 128.333 -462.332 385 -494.999h24c150.667 0 282 72.333 394 217
c117.333 150 206 330.167 266 540.5s90 404.166 90 581.499c-10.667 186 -58.334 310.333 -143.001 373c-84.667 60 -173.667 90 -267 90c-202 0 -375.333 -140.667 -520 -422c-147.333 -284 -223.666 -579 -228.999 -885z" />
    <glyph glyph-name="Ocircumflex" unicode="&#xef;" horiz-adv-x="2298" 
d="M2159 639l56.998 -41.002c-79.333 -147.333 -181.666 -289.333 -306.999 -426c-128.667 -136.667 -254.334 -205 -377.001 -205c-92.667 5.33301 -163.667 39.666 -213 102.999c-44 51.333 -66 122.333 -66 213c0 18.667 1.33301 37.667 4 57c11.333 98 40 203 86 315
l238 672l66 246c5.33301 24.667 8 49.334 8 74.001c0 16 -1.33301 32.333 -4 49c-16.667 52 -56.334 86 -119.001 102c-16.667 2.66699 -33 4 -49 4c-74 0 -158.667 -35.333 -254 -106c-120 -87.333 -232 -211.666 -336 -372.999c-104 -164 -184.667 -344.333 -242 -541
l-200 -782h-295l495 1798h-393l21 74l655 12l-143 -569c100.667 169.333 219.334 312.666 356.001 429.999c134 112 259.667 168 377 168h8c70.667 0 139 -23.333 205 -70c62.667 -46 110.334 -110 143.001 -192c19.333 -49.333 29 -101.333 29 -156
c0 -35.333 -4.33301 -70.666 -13 -105.999c0 -41.333 -9.33301 -75.666 -28 -102.999c-5.33301 -10.667 -8 -28.334 -8 -53.001l-320 -860c-32.667 -49.333 -49 -102.666 -49 -159.999c0 -10.667 1.33301 -23 4 -37c0 -40.667 15 -66.667 45 -78
c16.667 -5.33301 34.334 -8 53.001 -8c54.667 -2.66699 123 27.333 205 90c106.667 79.333 227 232.333 361 459z" />
    <glyph glyph-name="Ocircumflex" unicode="&#x43f;" horiz-adv-x="2298" 
d="M2159 639l56.998 -41.002c-79.333 -147.333 -181.666 -289.333 -306.999 -426c-128.667 -136.667 -254.334 -205 -377.001 -205c-92.667 5.33301 -163.667 39.666 -213 102.999c-44 51.333 -66 122.333 -66 213c0 18.667 1.33301 37.667 4 57c11.333 98 40 203 86 315
l238 672l66 246c5.33301 24.667 8 49.334 8 74.001c0 16 -1.33301 32.333 -4 49c-16.667 52 -56.334 86 -119.001 102c-16.667 2.66699 -33 4 -49 4c-74 0 -158.667 -35.333 -254 -106c-120 -87.333 -232 -211.666 -336 -372.999c-104 -164 -184.667 -344.333 -242 -541
l-200 -782h-295l495 1798h-393l21 74l655 12l-143 -569c100.667 169.333 219.334 312.666 356.001 429.999c134 112 259.667 168 377 168h8c70.667 0 139 -23.333 205 -70c62.667 -46 110.334 -110 143.001 -192c19.333 -49.333 29 -101.333 29 -156
c0 -35.333 -4.33301 -70.666 -13 -105.999c0 -41.333 -9.33301 -75.666 -28 -102.999c-5.33301 -10.667 -8 -28.334 -8 -53.001l-320 -860c-32.667 -49.333 -49 -102.666 -49 -159.999c0 -10.667 1.33301 -23 4 -37c0 -40.667 15 -66.667 45 -78
c16.667 -5.33301 34.334 -8 53.001 -8c54.667 -2.66699 123 27.333 205 90c106.667 79.333 227 232.333 361 459z" />
    <glyph glyph-name="apple" unicode="&#xf0;" horiz-adv-x="2015" 
d="M819 1573h29c57.333 109.333 138 195.333 242 258c92.667 54.667 186.667 82 282 82h25c142 0 259.333 -50.667 352 -152c90 -100.667 139 -240 147 -418v-49c0 -182.667 -39.333 -373.667 -118 -573c-87.333 -218.667 -205 -399 -353 -541
c-147.333 -142 -300 -213 -458 -213h-9c-202 5.33301 -352 139.333 -450 402l-307 -1180h401l-24 -78h-1053l24 78h373l688 2609h-360l20 86h578zM586 537c0 -166.667 36.666 -289.668 109.999 -369.001c71.333 -79.333 149.333 -124.333 234 -135h16
c177.333 0 341.333 169.333 492 508c150 346.667 225 648.334 225 905.001c0 142 -28.667 241.667 -86 299c-57.333 54.667 -118.666 84.667 -183.999 90h-25c-98 0 -206 -54.667 -324 -164c-130.667 -120 -239.667 -281 -327 -483s-131 -419 -131 -651z" />
    <glyph glyph-name="apple" unicode="&#x440;" horiz-adv-x="2015" 
d="M819 1573h29c57.333 109.333 138 195.333 242 258c92.667 54.667 186.667 82 282 82h25c142 0 259.333 -50.667 352 -152c90 -100.667 139 -240 147 -418v-49c0 -182.667 -39.333 -373.667 -118 -573c-87.333 -218.667 -205 -399 -353 -541
c-147.333 -142 -300 -213 -458 -213h-9c-202 5.33301 -352 139.333 -450 402l-307 -1180h401l-24 -78h-1053l24 78h373l688 2609h-360l20 86h578zM586 537c0 -166.667 36.666 -289.668 109.999 -369.001c71.333 -79.333 149.333 -124.333 234 -135h16
c177.333 0 341.333 169.333 492 508c150 346.667 225 648.334 225 905.001c0 142 -28.667 241.667 -86 299c-57.333 54.667 -118.666 84.667 -183.999 90h-25c-98 0 -206 -54.667 -324 -164c-130.667 -120 -239.667 -281 -327 -483s-131 -419 -131 -651z" />
    <glyph glyph-name="Ograve" unicode="&#xf1;" horiz-adv-x="1683" 
d="M1393 528l72.999 -48.999c-100.667 -166.667 -218 -293.667 -352 -381s-273.333 -131 -418 -131c-160.667 0 -298.334 58.667 -413.001 176c-118 114.667 -177 280 -177 496v16c0 202 52 400 156 594c106.667 199.333 243.334 359.166 410.001 479.499
s329 181.833 487 184.5h17c68 0 136 -16.333 204 -49c71.333 -36 126 -85.333 164 -148c35.333 -60 53 -125.333 53 -196v-17c-13.333 -92.667 -43.333 -158 -90 -196c-43.333 -24.667 -84.333 -37 -123 -37c-30 0 -58.667 8 -86 24c-62.667 32.667 -94 87.334 -94 164.001
c11.333 46.667 33.333 89 66 127c5.33301 2.66699 13.333 9.66699 24 21l25 24c5.33301 8 12 16.333 20 25c19.333 0 29 13.667 29 41v16c0 30 -16.333 60 -49 90c-27.333 24.667 -64.333 37 -111 37c-16 0 -32.333 -1.33301 -49 -4c-136.667 -8 -263.667 -81.667 -381 -221
c-117.333 -142 -211.5 -315.5 -282.5 -520.5s-109.167 -404.167 -114.5 -597.5v-54c0 -158 32.667 -264.333 98 -319c74 -60 150.667 -90 230 -90c122.667 0 248 47.667 376 143c128.667 95.333 231.334 212.666 308.001 351.999z" />
    <glyph glyph-name="Ograve" unicode="&#x441;" horiz-adv-x="1683" 
d="M1393 528l72.999 -48.999c-100.667 -166.667 -218 -293.667 -352 -381s-273.333 -131 -418 -131c-160.667 0 -298.334 58.667 -413.001 176c-118 114.667 -177 280 -177 496v16c0 202 52 400 156 594c106.667 199.333 243.334 359.166 410.001 479.499
s329 181.833 487 184.5h17c68 0 136 -16.333 204 -49c71.333 -36 126 -85.333 164 -148c35.333 -60 53 -125.333 53 -196v-17c-13.333 -92.667 -43.333 -158 -90 -196c-43.333 -24.667 -84.333 -37 -123 -37c-30 0 -58.667 8 -86 24c-62.667 32.667 -94 87.334 -94 164.001
c11.333 46.667 33.333 89 66 127c5.33301 2.66699 13.333 9.66699 24 21l25 24c5.33301 8 12 16.333 20 25c19.333 0 29 13.667 29 41v16c0 30 -16.333 60 -49 90c-27.333 24.667 -64.333 37 -111 37c-16 0 -32.333 -1.33301 -49 -4c-136.667 -8 -263.667 -81.667 -381 -221
c-117.333 -142 -211.5 -315.5 -282.5 -520.5s-109.167 -404.167 -114.5 -597.5v-54c0 -158 32.667 -264.333 98 -319c74 -60 150.667 -90 230 -90c122.667 0 248 47.667 376 143c128.667 95.333 231.334 212.666 308.001 351.999z" />
    <glyph glyph-name="Uacute" unicode="&#xf2;" horiz-adv-x="3318" 
d="M119 0l470.999 1798h-369l8 86h660l-168 -614c104 155.333 235 304 393 446c150 131.333 289.333 197 418 197h24c109.333 -11.333 194 -63.333 254 -156c27.333 -46 41 -103.333 41 -172c0 -73.333 -15 -159.333 -45 -258c98.667 172 220.334 315.333 365.001 430
c130.667 104 256.334 156 377 156h24c109.333 -8 199.666 -62.667 271 -164c51.333 -74 77 -157.333 77 -250c0 -35.333 -4 -72 -12 -110c-5.33301 -22 -9.33301 -41.333 -12 -58c-5.33301 -18.667 -11 -33.667 -17 -45c-8 -10.667 -12 -28.334 -12 -53.001l-340 -946
c-10.667 -36 -16 -73 -16 -111c0 -52 19 -78 57 -78c14 -8 30.333 -12 49 -12c52 0 120.333 35.667 205 107c112 95.333 226.667 244 344 446l66 -41c-79.333 -144.667 -183.333 -285.334 -312 -422.001c-128 -139.333 -253.333 -209 -376 -209
c-98.667 2.66699 -172.667 42.334 -222 119.001c-40.667 62.667 -61 137.667 -61 225c0 19.333 1.33301 38.666 4 57.999c5.33301 46 20.333 99 45 159l270 799c52 142 78 248.667 78 320c0 13.333 -1.33301 25.333 -4 36c-16 60.667 -48.667 99 -98 115
c-19.333 5.33301 -38.333 8 -57 8c-76.667 0 -162.667 -35.333 -258 -106c-120.667 -87.333 -234.167 -215.666 -340.5 -384.999s-189.5 -357.666 -249.5 -564.999l-213 -750h-279l381 1327c38 156 57 261 57 315v25c-13.333 74 -52.666 117.667 -117.999 131h-25
c-74 0 -165.333 -45 -274 -135c-120.667 -101.333 -235.334 -235 -344.001 -401c-112 -166.667 -194 -337.334 -246 -512.001l-197 -750h-274z" />
    <glyph glyph-name="Uacute" unicode="&#x442;" horiz-adv-x="3318" 
d="M119 0l470.999 1798h-369l8 86h660l-168 -614c104 155.333 235 304 393 446c150 131.333 289.333 197 418 197h24c109.333 -11.333 194 -63.333 254 -156c27.333 -46 41 -103.333 41 -172c0 -73.333 -15 -159.333 -45 -258c98.667 172 220.334 315.333 365.001 430
c130.667 104 256.334 156 377 156h24c109.333 -8 199.666 -62.667 271 -164c51.333 -74 77 -157.333 77 -250c0 -35.333 -4 -72 -12 -110c-5.33301 -22 -9.33301 -41.333 -12 -58c-5.33301 -18.667 -11 -33.667 -17 -45c-8 -10.667 -12 -28.334 -12 -53.001l-340 -946
c-10.667 -36 -16 -73 -16 -111c0 -52 19 -78 57 -78c14 -8 30.333 -12 49 -12c52 0 120.333 35.667 205 107c112 95.333 226.667 244 344 446l66 -41c-79.333 -144.667 -183.333 -285.334 -312 -422.001c-128 -139.333 -253.333 -209 -376 -209
c-98.667 2.66699 -172.667 42.334 -222 119.001c-40.667 62.667 -61 137.667 -61 225c0 19.333 1.33301 38.666 4 57.999c5.33301 46 20.333 99 45 159l270 799c52 142 78 248.667 78 320c0 13.333 -1.33301 25.333 -4 36c-16 60.667 -48.667 99 -98 115
c-19.333 5.33301 -38.333 8 -57 8c-76.667 0 -162.667 -35.333 -258 -106c-120.667 -87.333 -234.167 -215.666 -340.5 -384.999s-189.5 -357.666 -249.5 -564.999l-213 -750h-279l381 1327c38 156 57 261 57 315v25c-13.333 74 -52.666 117.667 -117.999 131h-25
c-74 0 -165.333 -45 -274 -135c-120.667 -101.333 -235.334 -235 -344.001 -401c-112 -166.667 -194 -337.334 -246 -512.001l-197 -750h-274z" />
    <glyph glyph-name="Ucircumflex" unicode="&#xf3;" horiz-adv-x="1868" 
d="M1511 1884l278.999 0.000976562l-479 -1638c-93.333 -322.667 -211 -589 -353 -799c-144.667 -210 -341 -322 -589 -336h-17c-128 0 -231.667 39.667 -311 119c-79.333 74 -119 156 -119 246v16c2.66699 60 24.667 107.667 66 143c40.667 33.333 87 50 139 50
c10.667 2.66699 21.667 4 33 4c43.333 0 78.666 -13.667 105.999 -41c32.667 -36 49 -73 49 -111c2.66699 -10.667 4 -20.334 4 -29.001c0 -62.667 -32.667 -106.334 -98 -131.001c-8 -5.33301 -19 -10.666 -33 -15.999c-13.333 -5.33301 -24 -10.666 -32 -15.999
c-8.66699 0 -13 -3 -13 -9c-2.66699 -8 -4 -14.667 -4 -20c-2.66699 -5.33301 -4 -10.666 -4 -15.999c0 -24.667 20.667 -50.667 62 -78c35.333 -24.667 76 -37 122 -37c16.667 0 33.334 1.33301 50.001 4c166 13.333 294.333 91 385 233c87.333 142 173.333 340 258 594
c16 57.333 32.333 112 49 164c16 49.333 36.333 121.666 61 216.999c5.33301 22 12.333 44 21 66c5.33301 19.333 8 37 8 53c-27.333 -35.333 -52 -72 -74 -110c-27.333 -24.667 -62.666 -63 -105.999 -115l-135 -144c-118 -106 -242.333 -166 -373 -180
c-128.667 0 -227 57.333 -295 172c-38 60 -57 139.333 -57 238c0 87.333 15 189.666 45 306.999l299 1114h-365l16 74l644 12l-381 -1388c-33.333 -104 -50 -188.667 -50 -254c0 -126 57.667 -189 173 -189c84 0 176.667 46.5 278 139.5s197 215.833 287 368.5
c90 150 155.333 293.333 196 430z" />
    <glyph glyph-name="Ucircumflex" unicode="&#x443;" horiz-adv-x="1868" 
d="M1511 1884l278.999 0.000976562l-479 -1638c-93.333 -322.667 -211 -589 -353 -799c-144.667 -210 -341 -322 -589 -336h-17c-128 0 -231.667 39.667 -311 119c-79.333 74 -119 156 -119 246v16c2.66699 60 24.667 107.667 66 143c40.667 33.333 87 50 139 50
c10.667 2.66699 21.667 4 33 4c43.333 0 78.666 -13.667 105.999 -41c32.667 -36 49 -73 49 -111c2.66699 -10.667 4 -20.334 4 -29.001c0 -62.667 -32.667 -106.334 -98 -131.001c-8 -5.33301 -19 -10.666 -33 -15.999c-13.333 -5.33301 -24 -10.666 -32 -15.999
c-8.66699 0 -13 -3 -13 -9c-2.66699 -8 -4 -14.667 -4 -20c-2.66699 -5.33301 -4 -10.666 -4 -15.999c0 -24.667 20.667 -50.667 62 -78c35.333 -24.667 76 -37 122 -37c16.667 0 33.334 1.33301 50.001 4c166 13.333 294.333 91 385 233c87.333 142 173.333 340 258 594
c16 57.333 32.333 112 49 164c16 49.333 36.333 121.666 61 216.999c5.33301 22 12.333 44 21 66c5.33301 19.333 8 37 8 53c-27.333 -35.333 -52 -72 -74 -110c-27.333 -24.667 -62.666 -63 -105.999 -115l-135 -144c-118 -106 -242.333 -166 -373 -180
c-128.667 0 -227 57.333 -295 172c-38 60 -57 139.333 -57 238c0 87.333 15 189.666 45 306.999l299 1114h-365l16 74l644 12l-381 -1388c-33.333 -104 -50 -188.667 -50 -254c0 -126 57.667 -189 173 -189c84 0 176.667 46.5 278 139.5s197 215.833 287 368.5
c90 150 155.333 293.333 196 430z" />
    </font>
</defs>
</svg>
